<svg xmlns="http://www.w3.org/2000/svg" viewBox="0 0 160 210"><defs><style>.cls-1{fill:none;}.cls-2,.cls-3{isolation:isolate;}.cls-3{fill:#444f57;}.cls-4{fill:#fb4500;}.cls-5{fill:#04954c;}</style></defs><title>Asset 5</title><g id="Layer_2" data-name="Layer 2"><g id="CMG-logo2"><rect class="cls-1" x="0.25" width="159.75" height="210"/><g class="cls-2"><path class="cls-3" d="M43.68,112v42.06a60.46,60.46,0,0,0,16,8.48V112Z"/><path class="cls-3" d="M72.26,93v72.51a61.73,61.73,0,0,0,7.62.49,60.82,60.82,0,0,0,8.36-.59V93Z"/><path class="cls-3" d="M100.59,74v88.37a60.48,60.48,0,0,0,16-8.69V74Z"/></g><path class="cls-4" d="M25.92,161.71l12.75,3.65h0L29.54,130.5l-6.27,6.28A64.92,64.92,0,0,1,118,52.4l-1.54-5.89-1.78-6.78,6.74,1.92,12.05,3.45C110.18,17.84,79.88,0,79.88,0S0,47,0,105c0,14.91,5.28,29.09,13.13,41.93l-8.64,8.66Z"/><path class="cls-5" d="M146.65,63.12l7.84-7.85L120.31,45.5l2.92,11.14,6.21,23.72,7.07-7.08a64.92,64.92,0,0,1-96,83.4l2,7.66,1.78,6.79-6.74-1.93-10-2.87C50.62,192.78,79.88,210,79.88,210s79.87-47,79.87-105C159.75,90.11,154.48,76,146.65,63.12Z"/></g></g></svg>