<?xml version="1.0" standalone="no"?>
<!DOCTYPE svg PUBLIC "-//W3C//DTD SVG 20010904//EN"
 "http://www.w3.org/TR/2001/REC-SVG-20010904/DTD/svg10.dtd">
<svg version="1.0" xmlns="http://www.w3.org/2000/svg"
 width="458.000000pt" height="293.000000pt" viewBox="0 0 458.000000 293.000000"
 preserveAspectRatio="xMidYMid meet">
<metadata>
Created by potrace 1.15, written by Peter Selinger 2001-2017
</metadata>
<g transform="translate(0.000000,293.000000) scale(0.100000,-0.100000)"
fill="none" stroke="none">
<path fill="#00508b" d="M1976 2809 c-796 -77 -1458 -426 -1713 -904 -88 -166 -119 -305 -110
-488 32 -665 813 -1209 1866 -1298 175 -15 539 -7 699 16 339 47 601 122 870
251 466 222 762 550 832 923 15 80 12 252 -6 338 -124 602 -868 1075 -1829
1163 -129 12 -481 11 -609 -1z m689 -144 c732 -86 1335 -417 1545 -850 68
-140 84 -205 84 -350 0 -146 -16 -211 -84 -351 -306 -622 -1372 -992 -2405
-834 -745 114 -1325 483 -1481 944 -147 430 108 876 668 1170 312 164 666 254
1133 290 94 7 410 -4 540 -19z"/>
<path fill="#00508b" d="M2130 1709 l-375 -131 -37 -96 c-20 -54 -40 -105 -44 -114 -6 -17 15
-18 340 -18 190 0 346 -2 346 -4 0 -2 -7 -22 -15 -45 l-14 -41 124 0 123 0 18
45 17 45 112 0 111 0 99 70 99 70 -182 0 c-100 0 -182 1 -182 3 0 1 29 78 65
171 36 92 65 170 65 172 0 2 -66 4 -147 3 l-148 0 -375 -130z m360 -31 c0 -2
-15 -43 -34 -93 l-34 -90 -238 -3 c-131 -1 -235 0 -232 3 6 6 517 184 531 184
4 1 7 0 7 -1z"/>
<path fill="#00508b" d="M935 1811 c-48 -22 -79 -54 -100 -104 l-15 -37 125 0 c124 0 126 0
137 25 l11 25 183 0 c179 0 182 0 177 -21 -3 -11 -16 -27 -30 -36 -13 -9 -146
-42 -296 -74 -286 -62 -339 -77 -383 -111 -23 -19 -88 -142 -109 -206 l-6 -22
454 0 454 0 21 50 21 50 -315 0 c-335 0 -332 0 -298 48 27 38 69 52 328 107
269 57 350 82 384 118 18 19 64 110 93 185 l9 22 -403 0 c-369 0 -405 -2 -442
-19z"/>
<path fill="#7cce62" d="M2899 1763 l-26 -68 315 -5 315 -5 -425 -280 -424 -280 172 -3 172
-2 439 287 c413 272 439 291 459 333 12 25 25 55 28 68 l7 22 -503 0 -503 0
-26 -67z"/>
</g>
</svg>
