<?xml version="1.0" encoding="utf-8"?>
<!-- Generator: Adobe Illustrator 17.0.0, SVG Export Plug-In . SVG Version: 6.00 Build 0)  -->
<!DOCTYPE svg PUBLIC "-//W3C//DTD SVG 1.1//EN" "http://www.w3.org/Graphics/SVG/1.1/DTD/svg11.dtd">
<svg version="1.1" id="Layer_1" xmlns="http://www.w3.org/2000/svg" xmlns:xlink="http://www.w3.org/1999/xlink" x="0px" y="0px"
	 width="72px" height="72px" viewBox="0 0 72 72" enable-background="new 0 0 72 72" xml:space="preserve">
<path fill="#CB2026" d="M45.045,30.944c-0.536-2.354-1.746-3.901-3.429-4.909c-1.615-1.008-3.631-1.413-5.854-1.413
	c-5.85,0-9.818,5.179-9.818,11.502c0,8.612,5.584,12.109,10.291,11.906c3.564-0.135,6.659-1.679,8.14-5.044h15.002
	C57.895,55.498,46.66,62.023,34.754,62.023c-15.339,0-23.745-11.37-23.745-25.967c0-13.788,8.275-24.753,22.804-24.753
	c3.901,0,8.743,1.143,11.299,4.505h0.135v-3.429H58.03v18.566L45.045,30.944L45.045,30.944z"/>
</svg>
