<?xml version="1.0" encoding="utf-8"?>
<!-- Generator: Adobe Illustrator 17.0.0, SVG Export Plug-In . SVG Version: 6.00 Build 0)  -->
<!DOCTYPE svg PUBLIC "-//W3C//DTD SVG 1.1//EN" "http://www.w3.org/Graphics/SVG/1.1/DTD/svg11.dtd">
<svg version="1.1" id="Layer_1" xmlns="http://www.w3.org/2000/svg" xmlns:xlink="http://www.w3.org/1999/xlink" x="0px" y="0px"
	 width="72px" height="72px" viewBox="0 0 72 72" enable-background="new 0 0 72 72" xml:space="preserve">
<path fill="orange" d="M60.963,34.474c0,13.738-11.139,24.871-24.879,24.871c-13.736,0-24.871-11.133-24.871-24.871
	c0-13.737,11.136-24.875,24.871-24.875C49.824,9.599,60.963,20.737,60.963,34.474z M12.607,35.12
	c5.114,10.626,17.825,16.477,29.558,13.437c7.802-2.025,14.221-7.349,17.536-14.48c-4.169-7.817-12.159-13.228-21.03-14.047
	C27.794,19.02,17.15,25.326,12.607,35.12z M36.085,21.391c-7.225,0-13.081,5.855-13.081,13.083c0,7.225,5.856,13.082,13.081,13.082
	s13.09-5.857,13.09-13.082C49.174,27.246,43.31,21.391,36.085,21.391z"/>
</svg>
