<?xml version="1.0" encoding="utf-8"?>
<!-- Generator: Adobe Illustrator 17.0.0, SVG Export Plug-In . SVG Version: 6.00 Build 0)  -->
<!DOCTYPE svg PUBLIC "-//W3C//DTD SVG 1.1//EN" "http://www.w3.org/Graphics/SVG/1.1/DTD/svg11.dtd">
<svg version="1.1" id="Layer_1" xmlns="http://www.w3.org/2000/svg" xmlns:xlink="http://www.w3.org/1999/xlink" x="0px" y="0px"
	 width="72px" height="72px" viewBox="0 0 72 72" enable-background="new 0 0 72 72" xml:space="preserve">
<g display="none">
	<path display="inline" fill="#292929" d="M36.718,19.063V50.92h-2.593V34.763c0-4.187,0.227-11.195,0.183-11.195h-0.046
		c-0.047,0-1.411,2.458-2.731,4.824l-8.464,14.7h-1.411l-8.465-14.7c-1.32-2.367-2.685-4.824-2.729-4.824h-0.047
		c-0.046,0,0.182,7.008,0.182,11.195V50.92H8.002V19.063h2.46l8.417,14.517c2.868,4.868,3.415,6.28,3.459,6.28h0.046
		c0.047,0,0.593-1.412,3.459-6.28l8.42-14.517H36.718z"/>
	<path display="inline" fill="#ED1B5A" d="M64.443,45.002v5.918H42.371V19.063h6.325v25.939H64.443z"/>
</g>
<g display="none">
	<g display="inline">
		<circle fill="#FFFFFF" cx="36.293" cy="35.589" r="24.787"/>
		<path fill="#010101" d="M36.293,61.382c-1.749,0-3.498-0.176-5.197-0.524c-1.656-0.339-3.286-0.845-4.843-1.503
			c-1.529-0.646-3.003-1.447-4.382-2.378c-1.366-0.923-2.65-1.982-3.817-3.149c-1.167-1.167-2.226-2.451-3.149-3.817
			c-0.932-1.379-1.732-2.853-2.378-4.382c-0.659-1.557-1.164-3.186-1.503-4.843c-0.348-1.699-0.524-3.448-0.524-5.197
			c0-1.749,0.176-3.498,0.524-5.197c0.339-1.657,0.845-3.286,1.503-4.843c0.647-1.529,1.447-3.003,2.378-4.382
			c0.923-1.366,1.982-2.65,3.149-3.817c1.167-1.167,2.451-2.226,3.817-3.149c1.379-0.932,2.853-1.732,4.382-2.378
			c1.557-0.659,3.186-1.164,4.843-1.503c1.699-0.348,3.448-0.524,5.197-0.524c1.749,0,3.498,0.176,5.197,0.524
			c1.657,0.339,3.286,0.845,4.843,1.503c1.529,0.647,3.003,1.447,4.382,2.378c1.366,0.923,2.65,1.982,3.817,3.149
			c1.167,1.167,2.226,2.451,3.149,3.817c0.932,1.379,1.732,2.853,2.378,4.382c0.658,1.557,1.164,3.186,1.503,4.843
			c0.348,1.699,0.524,3.448,0.524,5.197c0,1.749-0.176,3.498-0.524,5.197c-0.339,1.656-0.845,3.286-1.503,4.843
			c-0.647,1.529-1.447,3.003-2.378,4.382c-0.923,1.366-1.982,2.65-3.149,3.817c-1.167,1.167-2.451,2.226-3.817,3.149
			c-1.379,0.932-2.853,1.732-4.382,2.378c-1.557,0.659-3.186,1.164-4.843,1.503C39.791,61.206,38.042,61.382,36.293,61.382z
			 M36.293,11.809c-1.614,0-3.227,0.163-4.794,0.483c-1.526,0.312-3.028,0.778-4.462,1.385c-1.409,0.596-2.768,1.333-4.039,2.192
			c-1.259,0.851-2.444,1.828-3.52,2.904c-1.076,1.076-2.053,2.261-2.904,3.52c-0.859,1.271-1.596,2.63-2.192,4.039
			c-0.607,1.435-1.073,2.936-1.385,4.462c-0.321,1.567-0.483,3.179-0.483,4.794c0,1.614,0.163,3.227,0.483,4.794
			c0.312,1.526,0.778,3.028,1.385,4.462c0.596,1.409,1.333,2.768,2.192,4.039c0.851,1.259,1.828,2.444,2.904,3.52
			c1.076,1.076,2.261,2.054,3.52,2.904c1.271,0.859,2.63,1.596,4.039,2.192c1.435,0.607,2.936,1.073,4.462,1.385
			c1.567,0.321,3.18,0.483,4.794,0.483c1.614,0,3.227-0.162,4.793-0.483c1.526-0.312,3.028-0.778,4.462-1.385
			c1.409-0.596,2.768-1.334,4.039-2.192c1.259-0.851,2.444-1.828,3.52-2.904c1.076-1.076,2.054-2.261,2.904-3.52
			c0.859-1.271,1.596-2.63,2.192-4.039c0.607-1.435,1.073-2.936,1.385-4.462c0.321-1.567,0.483-3.179,0.483-4.794
			c0-1.614-0.162-3.227-0.483-4.794c-0.312-1.526-0.778-3.028-1.385-4.462c-0.596-1.409-1.333-2.768-2.192-4.039
			c-0.851-1.259-1.828-2.444-2.904-3.52c-1.076-1.076-2.261-2.053-3.52-2.904c-1.271-0.859-2.63-1.596-4.039-2.192
			c-1.435-0.607-2.936-1.073-4.462-1.385C39.52,11.971,37.907,11.809,36.293,11.809z"/>
	</g>
	<g display="inline">
		<circle fill="#010101" cx="40.344" cy="21.822" r="1.006"/>
		<path fill="#010101" d="M48.812,31.859l-0.003-0.003c0.493-0.494,0.765-1.151,0.765-1.849c0-0.7-0.272-1.357-0.767-1.852
			c-0.495-0.495-1.153-0.767-1.852-0.767c-0.682,0-1.323,0.259-1.813,0.729l-0.001-0.001L32.947,40.299l-0.002-0.002
			c-1.053,1.053-2.768,1.053-3.821,0c-1.053-1.053-1.053-2.767,0-3.821c1.053-1.053,2.767-1.053,3.821,0l0.001-0.001
			c0.178,0.159,0.413,0.256,0.67,0.256c0.556,0,1.006-0.451,1.006-1.006c0-0.257-0.097-0.492-0.256-0.67l0.002-0.002
			c-0.012-0.012-0.025-0.024-0.037-0.036c-0.005-0.005-0.009-0.009-0.014-0.014c-0.438-0.425-0.945-0.757-1.509-0.986
			c-0.565-0.229-1.162-0.345-1.774-0.345c-0.612,0-1.209,0.116-1.774,0.345c-0.586,0.237-1.11,0.586-1.56,1.036
			c-0.45,0.45-0.798,0.975-1.036,1.56c-0.032,0.079-0.062,0.159-0.089,0.239c-1.029,0.764-2.493,0.68-3.425-0.253
			c-1.025-1.025-1.025-2.693,0-3.718c1.001-1.001,2.615-1.024,3.645-0.07c0.184,0.208,0.454,0.339,0.753,0.339
			c0.556,0,1.006-0.451,1.006-1.006c0-0.263-0.101-0.503-0.267-0.682l0.003-0.003c-0.443-0.443-0.96-0.813-1.536-1.047
			c-0.556-0.226-1.144-0.366-1.746-0.366h0c-0.602,0-1.19,0.14-1.746,0.366c-0.577,0.234-1.093,0.588-1.536,1.031
			c-0.443,0.443-0.786,0.967-1.02,1.543c-0.225,0.556-0.34,1.147-0.34,1.75c0,0.602,0.114,1.192,0.34,1.748
			c0.234,0.576,0.577,1.094,1.02,1.537c0.443,0.443,0.96,0.786,1.536,1.02c0.556,0.226,1.144,0.34,1.746,0.34
			c0.47,0,0.931-0.07,1.376-0.208c0.057,0.337,0.15,0.666,0.28,0.986c0.237,0.585,0.586,1.11,1.036,1.56
			c0.45,0.45,0.975,0.798,1.56,1.036c0.565,0.229,1.162,0.345,1.774,0.345c0.612,0,1.209-0.116,1.774-0.345
			c0.577-0.234,1.095-0.576,1.54-1.016l0.003,0.003l12.175-12.164l0.001,0.001c0.114-0.114,0.267-0.178,0.429-0.178
			c0.162,0,0.314,0.063,0.429,0.178c0.115,0.115,0.178,0.267,0.178,0.429c0,0.162-0.063,0.314-0.178,0.429l0.003,0.003
			L28.204,49.621c-0.423,0.375-0.962,0.58-1.532,0.58c-0.618,0-1.199-0.241-1.636-0.678c-0.437-0.437-0.678-1.018-0.678-1.636
			c0-0.618,0.241-1.199,0.678-1.636c0.437-0.437,1.018-0.678,1.636-0.678c0.618,0,1.199,0.241,1.636,0.678l0.002-0.002
			c0.183,0.187,0.437,0.302,0.719,0.302c0.556,0,1.006-0.451,1.006-1.006c0-0.306-0.137-0.58-0.353-0.765
			c-0.402-0.39-0.867-0.693-1.383-0.903c-0.519-0.21-1.066-0.317-1.628-0.317c-0.562,0-1.109,0.107-1.628,0.317
			c-0.537,0.218-1.019,0.538-1.432,0.95c-0.413,0.413-0.733,0.894-0.95,1.432c-0.21,0.518-0.317,1.066-0.317,1.628
			c0,0.561,0.107,1.109,0.317,1.628c0.218,0.537,0.538,1.019,0.95,1.432c0.413,0.413,0.894,0.732,1.432,0.95
			c0.519,0.21,1.066,0.317,1.628,0.317c0.562,0,1.109-0.107,1.628-0.317c0.537-0.218,1.019-0.538,1.432-0.95l-0.003-0.003
			L48.812,31.859z"/>
		<path fill="#010101" d="M43.746,26.673c0.013,0.007,0.025,0.013,0.038,0.02c0.005-0.011,0.011-0.022,0.016-0.033
			C43.781,26.665,43.763,26.669,43.746,26.673z"/>
		<path fill="#010101" d="M52.734,27.234c-0.324-1.487-1.02-2.964-2.013-4.273c-0.269-0.354-0.566-0.702-0.883-1.035
			c-0.929-0.976-2.002-1.805-3.189-2.463l-0.007-0.004c-0.397-0.216-0.824-0.428-1.27-0.632c-0.406-0.186-0.839-0.369-1.287-0.546
			c-0.213-0.087-0.441-0.189-0.682-0.298c-0.77-0.346-1.643-0.739-2.528-0.839c-1.089-0.123-2.212,0.368-3.003,1.316
			c-0.069,0.083-0.127,0.156-0.178,0.22c-0.033,0.042-0.072,0.092-0.102,0.127c-0.021,0.003-0.051,0.005-0.09,0.007
			c-0.074,0.004-0.147,0.007-0.221,0.011c-0.434,0.02-0.882,0.042-1.357,0.147l-0.01,0.002c-1.217,0.283-2.1,0.655-2.866,1.207
			c-0.757,0.546-1.423,1.252-1.926,2.042c-0.524,0.823-0.873,1.742-1.01,2.658c-0.262,1.751,0.205,3.574,1.279,5.002
			c1.011,1.343,2.453,2.201,4.06,2.415c1.099,0.146,2.194,0.033,3.255-0.337c0.963-0.336,1.875-0.946,2.711-1.672
			C42.947,28.96,44.132,28,44.671,25h-0.002c0.03,0,0.046-0.125,0.046-0.231c0-0.556-0.451-0.971-1.006-0.971
			c-0.482,0-0.885,0.357-0.983,0.81c-0.438,1.608-1.395,3.153-2.626,4.222c-0.932,0.809-2.448,1.724-4.38,1.467
			c-1.068-0.142-2.033-0.719-2.717-1.628c-0.753-1-1.08-2.273-0.897-3.494c0.192-1.287,0.986-2.544,2.123-3.363
			c0.538-0.388,1.198-0.658,2.139-0.878c0.305-0.067,0.648-0.083,1.011-0.1c0.078-0.004,0.156-0.007,0.233-0.011
			c0.442-0.024,0.769-0.117,1.06-0.303c0.274-0.175,0.442-0.388,0.605-0.594c0.045-0.057,0.092-0.116,0.143-0.178
			c0.356-0.426,0.816-0.653,1.231-0.606c0.573,0.065,1.262,0.375,1.929,0.675c0.249,0.112,0.506,0.227,0.754,0.328l0.011,0.004
			c0.416,0.164,0.818,0.334,1.193,0.506c0.402,0.184,0.786,0.375,1.142,0.568c1.007,0.558,1.916,1.261,2.703,2.088
			c0.266,0.28,0.515,0.571,0.739,0.866c0.805,1.061,1.391,2.298,1.649,3.484c0.138,0.631,0.185,1.249,0.142,1.836
			c-0.045,0.61-0.19,1.19-0.431,1.724c-0.142,0.289-0.307,0.57-0.491,0.837c-0.16,0.233-0.337,0.457-0.526,0.667L38.558,43.63l0,0
			c-0.007,0.007-0.013,0.013-0.019,0.02l-0.051,0.051l0.001,0.001c-0.485,0.521-0.752,1.196-0.752,1.911
			c0,0.749,0.292,1.458,0.821,1.988c0.53,0.53,1.234,0.827,1.983,0.827l0,0c0.749,0,1.453-0.297,1.983-0.827l-0.003-0.005
			c0.175-0.181,0.282-0.428,0.282-0.699c0-0.556-0.451-1.007-1.006-1.007c-0.288,0-0.548,0.121-0.731,0.315
			c-0.145,0.129-0.329,0.199-0.525,0.199c-0.211,0-0.41-0.082-0.56-0.232c-0.149-0.149-0.232-0.348-0.232-0.56
			c0-0.204,0.077-0.396,0.217-0.544L50.83,34.205l0.004,0.004c0.029-0.031,0.058-0.062,0.086-0.094l0.01-0.01l0,0
			c0.258-0.284,0.498-0.587,0.715-0.903c0.243-0.353,0.462-0.727,0.649-1.11l0.012-0.026c0.342-0.754,0.547-1.568,0.611-2.419
			C52.975,28.867,52.913,28.055,52.734,27.234z"/>
	</g>
</g>
<g>
	<g opacity="0.4">
		<path fill="#FFFFFF" d="M8.991,25.802l-1.059,5.67c0,0,6.444,4.323,9.951,12.112c4.216,9.36,4.9,18.479,4.9,18.479l1.669-4.691
			c0,0-0.466-7.694-4.038-16.44C15.763,29.556,8.991,25.802,8.991,25.802z"/>
		<path fill="#FFFFFF" d="M16.779,30.126c0,0,2.819-8.322,9.71-8.201c6.773,0.122,9.533,5.952,15.95,5.389
			c9.216-0.819,15.541-12.729,15.541-12.729l-0.939-4.364c0,0-5.671,10.403-14.722,10.771c-5.999,0.241-8.079-4.694-14.439-5.1
			c-8.645-0.555-11.751,9.217-11.751,9.217L16.779,30.126z"/>
		<path fill="#FFFFFF" d="M25.185,51.295c0,0,3.67-7.341,10.278-7.259c6.038,0.075,9.155,5.914,15.581,5.424
			c7.503-0.571,12.115-11.093,12.115-11.093l-0.856-3.915c0,0-3.959,9.015-11.502,9.297c-6,0.228-7.876-4.757-14.237-5.221
			c-7.262-0.531-11.136,6.976-11.136,6.976L25.185,51.295z"/>
		<path fill="#FFFFFF" d="M8.991,25.802l-1.059,5.67c0,0,6.444,4.323,9.951,12.112c4.216,9.36,4.9,18.479,4.9,18.479l1.669-4.691
			c0,0-0.466-7.694-4.038-16.44C15.763,29.556,8.991,25.802,8.991,25.802z"/>
		<path fill="#FFFFFF" d="M16.779,30.126c0,0,2.819-8.322,9.71-8.201c6.773,0.122,9.533,5.952,15.95,5.389
			c9.216-0.819,15.541-12.729,15.541-12.729l-0.939-4.364c0,0-5.671,10.403-14.722,10.771c-5.999,0.241-8.079-4.694-14.439-5.1
			c-8.645-0.555-11.751,9.217-11.751,9.217L16.779,30.126z"/>
		<path fill="#FFFFFF" d="M25.185,51.295c0,0,3.67-7.341,10.278-7.259c6.038,0.075,9.155,5.914,15.581,5.424
			c7.503-0.571,12.115-11.093,12.115-11.093l-0.856-3.915c0,0-3.959,9.015-11.502,9.297c-6,0.228-7.876-4.757-14.237-5.221
			c-7.262-0.531-11.136,6.976-11.136,6.976L25.185,51.295z"/>
	</g>
	<g>
		<g>
			<g>
				<linearGradient id="SVGID_1_" gradientUnits="userSpaceOnUse" x1="21.4319" y1="61.9261" x2="11.4426" y2="24.6453">
					<stop  offset="0.1264" style="stop-color:#283B59"/>
					<stop  offset="0.8901" style="stop-color:#142236"/>
				</linearGradient>
				<path fill="url(#SVGID_1_)" d="M8.991,25.302l-1.059,5.67c0,0,6.444,4.323,9.951,12.112c4.216,9.36,4.9,18.479,4.9,18.479
					l1.669-4.691c0,0-0.466-7.694-4.038-16.44C15.763,29.056,8.991,25.302,8.991,25.302z"/>
				<linearGradient id="SVGID_2_" gradientUnits="userSpaceOnUse" x1="39.1105" y1="27.8861" x2="35.0925" y2="12.8904">
					<stop  offset="0.1264" style="stop-color:#283B59"/>
					<stop  offset="0.8901" style="stop-color:#142236"/>
				</linearGradient>
				<path fill="url(#SVGID_2_)" d="M16.779,29.626c0,0,2.819-8.322,9.71-8.201c6.773,0.122,9.533,5.952,15.95,5.389
					c9.216-0.819,15.541-12.729,15.541-12.729L57.041,9.72c0,0-5.671,10.403-14.722,10.771c-5.999,0.241-8.079-4.694-14.439-5.1
					c-8.645-0.555-11.751,9.217-11.751,9.217L16.779,29.626z"/>
				<linearGradient id="SVGID_3_" gradientUnits="userSpaceOnUse" x1="45.9173" y1="50.4845" x2="42.0353" y2="35.9968">
					<stop  offset="0.1264" style="stop-color:#283B59"/>
					<stop  offset="0.8901" style="stop-color:#142236"/>
				</linearGradient>
				<path fill="url(#SVGID_3_)" d="M25.185,50.795c0,0,3.67-7.341,10.278-7.259c6.038,0.075,9.155,5.914,15.581,5.424
					c7.503-0.571,12.115-11.093,12.115-11.093l-0.856-3.915c0,0-3.959,9.015-11.502,9.297c-6,0.228-7.876-4.757-14.237-5.221
					c-7.262-0.531-11.136,6.976-11.136,6.976L25.185,50.795z"/>
			</g>
		</g>
		<defs>
			<filter id="Adobe_OpacityMaskFilter" filterUnits="userSpaceOnUse" x="7.932" y="9.72" width="55.227" height="51.844">
				
					<feColorMatrix  type="matrix" values="-1 0 0 0 1  0 -1 0 0 1  0 0 -1 0 1  0 0 0 1 0" color-interpolation-filters="sRGB" result="source"/>
			</filter>
		</defs>
		<mask maskUnits="userSpaceOnUse" x="7.932" y="9.72" width="55.227" height="51.844" id="SVGID_4_">
			<g filter="url(#Adobe_OpacityMaskFilter)">
				
					<image overflow="visible" width="247" height="233" xlink:href="72AC6F3D215EF94D.jpg"  transform="matrix(0.24 0 0 0.24 5.9318 7.7201)">
				</image>
			</g>
		</mask>
		<g opacity="0.23" mask="url(#SVGID_4_)">
			<g>
				<path fill="#090E12" d="M8.991,25.302l-1.059,5.67c0,0,6.444,4.323,9.951,12.112c4.216,9.36,4.9,18.479,4.9,18.479l1.669-4.691
					c0,0-0.466-7.694-4.038-16.44C15.763,29.056,8.991,25.302,8.991,25.302z"/>
				<path fill="#090E12" d="M16.779,29.626c0,0,2.819-8.322,9.71-8.201c6.773,0.122,9.533,5.952,15.95,5.389
					c9.216-0.819,15.541-12.729,15.541-12.729L57.041,9.72c0,0-5.671,10.403-14.722,10.771c-5.999,0.241-8.079-4.694-14.439-5.1
					c-8.645-0.555-11.751,9.217-11.751,9.217L16.779,29.626z"/>
				<path fill="#090E12" d="M25.185,50.795c0,0,3.67-7.341,10.278-7.259c6.038,0.075,9.155,5.914,15.581,5.424
					c7.503-0.571,12.115-11.093,12.115-11.093l-0.856-3.915c0,0-3.959,9.015-11.502,9.297c-6,0.228-7.876-4.757-14.237-5.221
					c-7.262-0.531-11.136,6.976-11.136,6.976L25.185,50.795z"/>
			</g>
		</g>
	</g>
</g>
<path display="none" fill="#7980BC" d="M55.035,9.871H26.529c-3.626,0-7.216,2.906-7.976,6.465l-0.896,4.17H60.19L55.035,9.871z
	 M36.311,40.383h9.261l-1.615,7.596c-0.157,0.71-0.873,1.287-1.598,1.287H24.633c-0.723,0-1.202-0.577-1.038-1.287l4.786-22.444
	H16.594l-6.266,29.291c-0.76,3.547,1.583,6.45,5.227,6.45h29.716c3.629,0,7.236-2.903,7.987-6.45l5.469-24.94l-27.163,0.017
	L36.311,40.383z"/>
<g display="none">
	
		<image display="inline" overflow="visible" width="212" height="212" xlink:href="72AC6F3D215EF94F.png"  transform="matrix(0.24 0 0 0.24 10.1218 10.5376)">
	</image>
	<defs>
		<filter id="Adobe_OpacityMaskFilter_1_" filterUnits="userSpaceOnUse" x="15.465" y="19.724" width="45.337" height="41.514">
			<feColorMatrix  type="matrix" values="1 0 0 0 0  0 1 0 0 0  0 0 1 0 0  0 0 0 1 0"/>
		</filter>
	</defs>
	<mask maskUnits="userSpaceOnUse" x="15.465" y="19.724" width="45.337" height="41.514" id="SVGID_5_" display="inline">
		<g filter="url(#Adobe_OpacityMaskFilter_1_)">
			
				<radialGradient id="SVGID_6_" cx="-174.4955" cy="-299.6106" r="123.8977" gradientTransform="matrix(0.1955 -0.157 -0.1687 -0.2101 14.7322 -60.765)" gradientUnits="userSpaceOnUse">
				<stop  offset="0.8352" style="stop-color:#010101"/>
				<stop  offset="0.8488" style="stop-color:#070707"/>
				<stop  offset="0.8646" style="stop-color:#171717"/>
				<stop  offset="0.8817" style="stop-color:#2B2A2A"/>
				<stop  offset="0.8995" style="stop-color:#454343"/>
				<stop  offset="0.918" style="stop-color:#6B6868"/>
				<stop  offset="0.937" style="stop-color:#A4A1A1"/>
				<stop  offset="0.956" style="stop-color:#FFFFFF"/>
			</radialGradient>
			<polygon fill="url(#SVGID_6_)" points="39.196,-1.571 -2.187,31.664 31.805,73.991 73.19,40.755 			"/>
			<path fill="#010101" d="M54.947,18.686c0,0-12.503-16.476-32.596-1.036c-9.283,7.132-12.102,15.063-12.432,20.393
				c0.535,5.58,2.988,9.676,2.988,9.676l-26.205-31.28l41.919-33.663L54.947,18.686z"/>
		</g>
	</mask>
	
		<radialGradient id="SVGID_7_" cx="-229.6505" cy="440.0212" r="115.3613" gradientTransform="matrix(0.2057 -0.1652 0.1656 0.2061 19.9896 -80.6104)" gradientUnits="userSpaceOnUse">
		<stop  offset="0.5879" style="stop-color:#F15A49"/>
		<stop  offset="0.8242" style="stop-color:#F5887A"/>
	</radialGradient>
	<path display="inline" opacity="0.45" mask="url(#SVGID_5_)" fill="url(#SVGID_7_)" d="M55.004,19.724
		c8.884,10.774,7.407,26.803-3.386,35.702c-10.865,8.96-27.068,7.498-36.153-3.957"/>
	<g display="inline">
		<g opacity="0.4">
			<rect x="25.576" y="21.762" fill="#010101" width="1.795" height="29.24"/>
			<path fill="#010101" d="M18.217,32.407c0.03-1.855,3.225-1.911,3.225-0.084l0.031,1.584h2.439v-1.467
				c0.152-4.891-8.231-4.887-8.167-0.118v8.42c-0.064,4.772,8.328,4.894,8.176,0v-1.76h-2.479v1.883c0,1.831-3.189,1.862-3.222,0
				v-8.543L18.217,32.407z"/>
			<path fill="#010101" d="M32.165,30.504c0,0,0.427-0.628,1.542-1.247c1.417-0.788,2.806,0,2.599-0.092
				c1.117,0.496,1.539,1.692,1.617,3.031v9.975h1.574v1.823h-4.038l-0.003-11.92c0-1.735-2.934-1.681-2.961,0.085v-0.085v11.92
				h-3.624v-1.828l1.148,0.005V31.003l-1.361-0.012v-1.825h3.497L32.165,30.504z"/>
			<path fill="#010101" d="M50.455,40.703c0.082,1.341,0.505,2.539,1.618,3.032c-0.212-0.091,0.549,0.285,1.32,0.274
				c0.405-0.008,2.379-0.004,2.379-0.004v-1.833c0,0-0.996-0.016-1.523-0.01c-0.674,0.01-1.255-0.31-1.298-1.26l0,0l0.003-9.895
				l-0.003-0.016h2.38v-1.795h-2.387l0.01-0.031v-3.84H50.46l0,0L50.455,40.703L50.455,40.703z"/>
			<path fill="#010101" d="M45.97,38.983v1.883c0,1.831-3.193,1.862-3.221,0v-3.931l5.239,0.006c0.25,0,0.453-0.201,0.453-0.451
				l-0.003-4.049c0.152-4.891-8.23-4.887-8.167-0.118v8.42c-0.063,4.772,8.329,4.894,8.175,0v-1.76H45.97z M42.749,32.31
				c0.039-1.83,3.221-1.814,3.221,0.014l-0.009,2.754h-3.212V32.31z"/>
		</g>
		<g>
			<rect x="25.576" y="22.101" fill="#FFFFFF" width="1.795" height="29.24"/>
			<path fill="#FFFFFF" d="M18.217,32.747c0.03-1.856,3.225-1.912,3.225-0.085l0.031,1.584h2.439v-1.466
				c0.152-4.892-8.231-4.887-8.167-0.118v8.419c-0.064,4.773,8.328,4.895,8.176,0v-1.759h-2.479v1.884c0,1.83-3.189,1.862-3.222,0
				v-8.543L18.217,32.747z"/>
			<path fill="#FFFFFF" d="M32.165,30.843c0,0,0.427-0.627,1.542-1.245c1.417-0.79,2.806,0,2.599-0.093
				c1.117,0.495,1.539,1.693,1.617,3.031v9.977h1.574v1.822h-4.038l-0.003-11.921c0-1.736-2.934-1.681-2.961,0.085v-0.085v11.921
				h-3.624v-1.829l1.148,0.007V31.344l-1.361-0.014v-1.824h3.497L32.165,30.843z"/>
			<path fill="#FFFFFF" d="M50.455,41.042c0.082,1.341,0.505,2.539,1.618,3.032c-0.212-0.092,0.549,0.286,1.32,0.273
				c0.405-0.007,2.379-0.004,2.379-0.004v-1.83c0,0-0.996-0.017-1.523-0.011c-0.674,0.011-1.255-0.31-1.298-1.26l0,0l0.003-9.897
				l-0.003-0.016h2.38v-1.794h-2.387l0.01-0.03v-3.841H50.46l0,0L50.455,41.042L50.455,41.042z"/>
			<path fill="#FFFFFF" d="M45.97,39.323v1.884c0,1.83-3.193,1.862-3.221,0v-3.932l5.239,0.007c0.25,0,0.453-0.202,0.453-0.453
				l-0.003-4.048c0.152-4.892-8.23-4.887-8.167-0.118v8.419c-0.063,4.773,8.329,4.895,8.175,0v-1.759H45.97z M42.749,32.65
				c0.039-1.831,3.221-1.815,3.221,0.013l-0.009,2.754h-3.212V32.65z"/>
		</g>
	</g>
</g>
<g display="none">
	<g display="inline">
		<path fill="#666766" d="M7.364,21.346l5.242,12.01l9.073,9.99l11.52,2.351l-0.057,1.655l-13.627,2.634v0.97l8.821-0.952
			l-2.958,1.667l0.014,0.906h1.461l7.562-1.874l9.215,1.539h1.479v-1.19l-4.143-1.559h6.175v-0.965l-11.47-1.13v-1.842l7.455-4.037
			l5.54-1.413c0,0,0.968,1.525,1.128,1.922c0.156,0.397,0.493,1.669,0.702,2.35c0.209,0.684,0.567,1.082,0.805,1.796
			c0.241,0.713,0.429,1.286,0.624,1.715c0.192,0.429,0.333,0.651,0.38,0.684c0.042,0.032,0.539,0,0.539,0v0.413
			c0,0-0.178,0.603-0.16,0.826c0.018,0.222,0.1,0.683,0.16,0.841c0.064,0.158,0.365,0.619,0.567,0.906
			c0.209,0.285,0.369,0.443,0.56,0.507c0.191,0.064,0.522,0.112,0.876,0.046c0.344-0.062,1.224-0.427,1.415-0.475
			c0.185-0.048,0.472-0.108,0.808-0.124c0.33-0.018,0.936-0.018,1.16,0.028c0.223,0.048,1.585,0.16,1.805,0.144
			c0.224-0.016,1.479-0.062,2.164-0.261c0.681-0.197,1.036-0.358,1.302-0.614c0.27-0.252,0.443-0.509,0.507-0.682
			c0.064-0.174,0.078-0.539,0.064-0.779c-0.018-0.238,0.032-0.19-0.114-0.429c-0.138-0.238-0.06-0.332-0.234-0.394
			c-0.174-0.065-0.142-0.131-0.383-0.016c-0.241,0.106-1.082,0.124-1.082,0.124s0.227-0.222,0.273-0.317
			c0.053-0.096,0.036-0.521,0.036-0.521s0.018-0.146-0.209-0.241c-0.227-0.094-0.781-0.094-0.972-0.016
			c-0.188,0.08-0.717,0.427-1.224,0.479c-0.507,0.046-0.663,0.046-1.014-0.016c-0.351-0.064-1.036-0.365-1.11-0.447
			c-0.081-0.078,0.571-0.905,0.571-0.905s0.394-0.653,0.394-0.73c0-0.082-0.06-0.287-0.06-0.287s-0.859-1.268-1-1.479
			c-0.146-0.206-1.398-2.953-1.398-2.953l-0.986-2.146c0,0-0.922-1.874-1.146-2.222c-0.22-0.349-0.872-1.35-1.156-1.906
			c-0.287-0.557-0.912-1.874-1.021-2.224c-0.11-0.351-0.284-1.064-0.695-1.369c-0.415-0.3-1.273-0.519-1.749-0.519
			c-0.475,0-4.721,0.571-7.484,1.156c-2.763,0.589-6.75,1.557-6.75,1.557s-0.443,0.143-0.621,0.049
			c-0.174-0.096-0.837-1.383-0.869-1.463c-0.039-0.08-0.099-0.364-0.099-0.364s0.653-0.145,0.699-0.255
			c0.049-0.11,0.095-1.256,0.095-1.256s4.689-0.935,4.767-0.935s0.192-0.016,0.192-0.016s0.092,0.096,0.301,0.239
			c0.206,0.14,0.159,0.298,0.716,0.298c0.554,0,0.855-0.19,1-0.254c0.142-0.062,0.49-0.028,0.568-0.08
			c0.081-0.046,0.273-0.092,0.479-0.092c0.206,0,0.273,0.046,0.323,0.046c0.042,0,0.294,0.014,0.294,0.014l0.192-0.127l0.177-0.316
			l0.653-0.046c0,0,0.362-0.254,0.394-0.397c0.028-0.146,0-0.381,0.145-0.415c0.142-0.032,2.777-0.429,2.777-0.429v-1.238
			l-4.274,0.635l-0.745-0.858c0,0-0.11-0.254-0.603-0.222c-0.493,0.032-0.621-0.014-0.621-0.014s-0.269-0.192-0.429-0.178
			c-0.16,0.018-0.16-0.08-0.621,0.16c-0.458,0.238-0.664,0.461-0.827,0.495c-0.153,0.03-2.837,0.172-2.837,0.172L26.493,26.73
			c0,0-1.621-0.795-2.004-0.954c-0.376-0.156-1.16-0.204-1.256-0.236c-0.092-0.033-1.029-0.541-1.206-0.684
			c-0.177-0.144-0.383-0.287-0.727-0.364c-0.351-0.08-0.894-0.271-1.163-0.271c-0.266,0-0.49,0.064-0.713-0.094
			c-0.223-0.16-0.415-0.351-0.443-0.447c-0.035-0.094-0.021-0.222-0.163-0.332c-0.138-0.111-0.762-0.653-0.84-0.701
			c-0.082-0.046-0.11-0.174-0.11-0.174l0.11-0.066c0,0,0.67,0.034,0.84,0c0.174-0.03,0.209-0.08,0.337-0.19
			c0.124-0.112,0.174-0.174,0.238-0.284c0.06-0.115,0.092-1.004,0.092-1.004s0-0.014,0.114-0.062
			c0.113-0.05,0.273-0.174,0.273-0.225c0-0.044,0.078-0.317,0.078-0.378c0-0.066-0.096-0.048,0-0.066
			c0.096-0.016,0.124-0.048,0.124-0.19c0-0.144,0.021-0.176-0.064-0.238c-0.078-0.062-0.032,0.128-0.078-0.062
			c-0.046-0.194-0.092-0.289-0.014-0.335c0.078-0.048,0.032,0,0.206-0.112c0.177-0.112,0.206-0.03,0.284-0.19
			c0.078-0.162,0.078-0.21,0.064-0.287c-0.018-0.078-0.397-0.587-0.521-0.779c-0.128-0.188-0.195-0.254-0.238-0.399
			c-0.05-0.14-0.142-0.11-0.142-0.25c0-0.145,0.06-0.367,0.092-0.527c0.032-0.158,0.078-0.285,0.092-0.429
			c0.018-0.14-0.014-0.333-0.078-0.507c-0.06-0.176-0.106-0.365-0.192-0.523c-0.074-0.159-0.17-0.207-0.17-0.383
			c0-0.172,0-0.19,0.096-0.381c0.092-0.19,0.568-1.462,0.568-1.462s0.127-0.172,0.053-0.238c-0.081-0.064-0.241-0.08-0.241-0.08
			l-0.844-0.046c0,0-0.142,0.032-0.298-0.051c-0.163-0.078-0.546-0.316-0.67-0.316c-0.128,0-1.206-0.016-1.508-0.016
			c-0.305,0-0.78,0.08-1.067,0.112c-0.284,0.032-1.128,0.032-1.412,0.112c-0.287,0.078-0.876,0.094-1.475,0.651
			c-0.603,0.557-1.447,1.509-1.465,2.717c-0.015,1.206,0.255,1.922,0.511,2.479c0.255,0.555,0.89,1.476,1.078,1.573
			c0.191,0.094,0.337,0.094,0.337,0.094l-0.049,1.046l-0.365,0.034l-0.014,1.35c0,0-0.21,0.127-0.475,0.493
			c-0.273,0.364-0.575,0.95-0.575,0.95s-0.159-0.571-1.316-1.364C9.017,21.854,7.364,21.346,7.364,21.346z"/>
		<path fill="none" stroke="#FFFFFF" stroke-width="4" stroke-miterlimit="10" d="M7.364,21.346l5.242,12.01l9.073,9.99l11.52,2.351
			l-0.057,1.655l-13.627,2.634v0.97l8.821-0.952l-2.958,1.667l0.014,0.906h1.461l7.562-1.874l9.215,1.539h1.479v-1.19l-4.143-1.559
			h6.175v-0.965l-11.47-1.13v-1.842l7.455-4.037l5.54-1.413c0,0,0.968,1.525,1.128,1.922c0.156,0.397,0.493,1.669,0.702,2.35
			c0.209,0.684,0.567,1.082,0.805,1.796c0.241,0.713,0.429,1.286,0.624,1.715c0.192,0.429,0.333,0.651,0.38,0.684
			c0.042,0.032,0.539,0,0.539,0v0.413c0,0-0.178,0.603-0.16,0.826c0.018,0.222,0.1,0.683,0.16,0.841
			c0.064,0.158,0.365,0.619,0.567,0.906c0.209,0.285,0.369,0.443,0.56,0.507c0.191,0.064,0.522,0.112,0.876,0.046
			c0.344-0.062,1.224-0.427,1.415-0.475c0.185-0.048,0.472-0.108,0.808-0.124c0.33-0.018,0.936-0.018,1.16,0.028
			c0.223,0.048,1.585,0.16,1.805,0.144c0.224-0.016,1.479-0.062,2.164-0.261c0.681-0.197,1.036-0.358,1.302-0.614
			c0.27-0.252,0.443-0.509,0.507-0.682c0.064-0.174,0.078-0.539,0.064-0.779c-0.018-0.238,0.032-0.19-0.114-0.429
			c-0.138-0.238-0.06-0.332-0.234-0.394c-0.174-0.065-0.142-0.131-0.383-0.016c-0.241,0.106-1.082,0.124-1.082,0.124
			s0.227-0.222,0.273-0.317c0.053-0.096,0.036-0.521,0.036-0.521s0.018-0.146-0.209-0.241c-0.227-0.094-0.781-0.094-0.972-0.016
			c-0.188,0.08-0.717,0.427-1.224,0.479c-0.507,0.046-0.663,0.046-1.014-0.016c-0.351-0.064-1.036-0.365-1.11-0.447
			c-0.081-0.078,0.571-0.905,0.571-0.905s0.394-0.653,0.394-0.73c0-0.082-0.06-0.287-0.06-0.287s-0.859-1.268-1-1.479
			c-0.146-0.206-1.398-2.953-1.398-2.953l-0.986-2.146c0,0-0.922-1.874-1.146-2.222c-0.22-0.349-0.872-1.35-1.156-1.906
			c-0.287-0.557-0.912-1.874-1.021-2.224c-0.11-0.351-0.284-1.064-0.695-1.369c-0.415-0.3-1.273-0.519-1.749-0.519
			c-0.475,0-4.721,0.571-7.484,1.156c-2.763,0.589-6.75,1.557-6.75,1.557s-0.443,0.143-0.621,0.049
			c-0.174-0.096-0.837-1.383-0.869-1.463c-0.039-0.08-0.099-0.364-0.099-0.364s0.653-0.145,0.699-0.255
			c0.049-0.11,0.095-1.256,0.095-1.256s4.689-0.935,4.767-0.935s0.192-0.016,0.192-0.016s0.092,0.096,0.301,0.239
			c0.206,0.14,0.159,0.298,0.716,0.298c0.554,0,0.855-0.19,1-0.254c0.142-0.062,0.49-0.028,0.568-0.08
			c0.081-0.046,0.273-0.092,0.479-0.092c0.206,0,0.273,0.046,0.323,0.046c0.042,0,0.294,0.014,0.294,0.014l0.192-0.127l0.177-0.316
			l0.653-0.046c0,0,0.362-0.254,0.394-0.397c0.028-0.146,0-0.381,0.145-0.415c0.142-0.032,2.777-0.429,2.777-0.429v-1.238
			l-4.274,0.635l-0.745-0.858c0,0-0.11-0.254-0.603-0.222c-0.493,0.032-0.621-0.014-0.621-0.014s-0.269-0.192-0.429-0.178
			c-0.16,0.018-0.16-0.08-0.621,0.16c-0.458,0.238-0.664,0.461-0.827,0.495c-0.153,0.03-2.837,0.172-2.837,0.172L26.493,26.73
			c0,0-1.621-0.795-2.004-0.954c-0.376-0.156-1.16-0.204-1.256-0.236c-0.092-0.033-1.029-0.541-1.206-0.684
			c-0.177-0.144-0.383-0.287-0.727-0.364c-0.351-0.08-0.894-0.271-1.163-0.271c-0.266,0-0.49,0.064-0.713-0.094
			c-0.223-0.16-0.415-0.351-0.443-0.447c-0.035-0.094-0.021-0.222-0.163-0.332c-0.138-0.111-0.762-0.653-0.84-0.701
			c-0.082-0.046-0.11-0.174-0.11-0.174l0.11-0.066c0,0,0.67,0.034,0.84,0c0.174-0.03,0.209-0.08,0.337-0.19
			c0.124-0.112,0.174-0.174,0.238-0.284c0.06-0.115,0.092-1.004,0.092-1.004s0-0.014,0.114-0.062
			c0.113-0.05,0.273-0.174,0.273-0.225c0-0.044,0.078-0.317,0.078-0.378c0-0.066-0.096-0.048,0-0.066
			c0.096-0.016,0.124-0.048,0.124-0.19c0-0.144,0.021-0.176-0.064-0.238c-0.078-0.062-0.032,0.128-0.078-0.062
			c-0.046-0.194-0.092-0.289-0.014-0.335c0.078-0.048,0.032,0,0.206-0.112c0.177-0.112,0.206-0.03,0.284-0.19
			c0.078-0.162,0.078-0.21,0.064-0.287c-0.018-0.078-0.397-0.587-0.521-0.779c-0.128-0.188-0.195-0.254-0.238-0.399
			c-0.05-0.14-0.142-0.11-0.142-0.25c0-0.145,0.06-0.367,0.092-0.527c0.032-0.158,0.078-0.285,0.092-0.429
			c0.018-0.14-0.014-0.333-0.078-0.507c-0.06-0.176-0.106-0.365-0.192-0.523c-0.074-0.159-0.17-0.207-0.17-0.383
			c0-0.172,0-0.19,0.096-0.381c0.092-0.19,0.568-1.462,0.568-1.462s0.127-0.172,0.053-0.238c-0.081-0.064-0.241-0.08-0.241-0.08
			l-0.844-0.046c0,0-0.142,0.032-0.298-0.051c-0.163-0.078-0.546-0.316-0.67-0.316c-0.128,0-1.206-0.016-1.508-0.016
			c-0.305,0-0.78,0.08-1.067,0.112c-0.284,0.032-1.128,0.032-1.412,0.112c-0.287,0.078-0.876,0.094-1.475,0.651
			c-0.603,0.557-1.447,1.509-1.465,2.717c-0.015,1.206,0.255,1.922,0.511,2.479c0.255,0.555,0.89,1.476,1.078,1.573
			c0.191,0.094,0.337,0.094,0.337,0.094l-0.049,1.046l-0.365,0.034l-0.014,1.35c0,0-0.21,0.127-0.475,0.493
			c-0.273,0.364-0.575,0.95-0.575,0.95s-0.159-0.571-1.316-1.364C9.017,21.854,7.364,21.346,7.364,21.346z"/>
	</g>
	<path display="inline" fill="#666766" d="M7.364,21.346l5.242,12.01l9.073,9.99l11.52,2.351l-0.057,1.655l-13.627,2.634v0.97
		l8.821-0.952l-2.958,1.667l0.014,0.906h1.461l7.562-1.874l9.215,1.539h1.479v-1.19l-4.143-1.559h6.175v-0.965l-11.47-1.13v-1.842
		l7.455-4.037l5.54-1.413c0,0,0.968,1.525,1.128,1.922c0.156,0.397,0.493,1.669,0.702,2.35c0.209,0.684,0.567,1.082,0.805,1.796
		c0.241,0.713,0.429,1.286,0.624,1.715c0.192,0.429,0.333,0.651,0.38,0.684c0.042,0.032,0.539,0,0.539,0v0.413
		c0,0-0.178,0.603-0.16,0.826c0.018,0.222,0.1,0.683,0.16,0.841c0.064,0.158,0.365,0.619,0.567,0.906
		c0.209,0.285,0.369,0.443,0.56,0.507c0.191,0.064,0.522,0.112,0.876,0.046c0.344-0.062,1.224-0.427,1.415-0.475
		c0.185-0.048,0.472-0.108,0.808-0.124c0.33-0.018,0.936-0.018,1.16,0.028c0.223,0.048,1.585,0.16,1.805,0.144
		c0.224-0.016,1.479-0.062,2.164-0.261c0.681-0.197,1.036-0.358,1.302-0.614c0.27-0.252,0.443-0.509,0.507-0.682
		c0.064-0.174,0.078-0.539,0.064-0.779c-0.018-0.238,0.032-0.19-0.114-0.429c-0.138-0.238-0.06-0.332-0.234-0.394
		c-0.174-0.065-0.142-0.131-0.383-0.016c-0.241,0.106-1.082,0.124-1.082,0.124s0.227-0.222,0.273-0.317
		c0.053-0.096,0.036-0.521,0.036-0.521s0.018-0.146-0.209-0.241c-0.227-0.094-0.781-0.094-0.972-0.016
		c-0.188,0.08-0.717,0.427-1.224,0.479c-0.507,0.046-0.663,0.046-1.014-0.016c-0.351-0.064-1.036-0.365-1.11-0.447
		c-0.081-0.078,0.571-0.905,0.571-0.905s0.394-0.653,0.394-0.73c0-0.082-0.06-0.287-0.06-0.287s-0.859-1.268-1-1.479
		c-0.146-0.206-1.398-2.953-1.398-2.953l-0.986-2.146c0,0-0.922-1.874-1.146-2.222c-0.22-0.349-0.872-1.35-1.156-1.906
		c-0.287-0.557-0.912-1.874-1.021-2.224c-0.11-0.351-0.284-1.064-0.695-1.369c-0.415-0.3-1.273-0.519-1.749-0.519
		c-0.475,0-4.721,0.571-7.484,1.156c-2.763,0.589-6.75,1.557-6.75,1.557s-0.443,0.143-0.621,0.049
		c-0.174-0.096-0.837-1.383-0.869-1.463c-0.039-0.08-0.099-0.364-0.099-0.364s0.653-0.145,0.699-0.255
		c0.049-0.11,0.095-1.256,0.095-1.256s4.689-0.935,4.767-0.935s0.192-0.016,0.192-0.016s0.092,0.096,0.301,0.239
		c0.206,0.14,0.159,0.298,0.716,0.298c0.554,0,0.855-0.19,1-0.254c0.142-0.062,0.49-0.028,0.568-0.08
		c0.081-0.046,0.273-0.092,0.479-0.092c0.206,0,0.273,0.046,0.323,0.046c0.042,0,0.294,0.014,0.294,0.014l0.192-0.127l0.177-0.316
		l0.653-0.046c0,0,0.362-0.254,0.394-0.397c0.028-0.146,0-0.381,0.145-0.415c0.142-0.032,2.777-0.429,2.777-0.429v-1.238
		l-4.274,0.635l-0.745-0.858c0,0-0.11-0.254-0.603-0.222c-0.493,0.032-0.621-0.014-0.621-0.014s-0.269-0.192-0.429-0.178
		c-0.16,0.018-0.16-0.08-0.621,0.16c-0.458,0.238-0.664,0.461-0.827,0.495c-0.153,0.03-2.837,0.172-2.837,0.172L26.493,26.73
		c0,0-1.621-0.795-2.004-0.954c-0.376-0.156-1.16-0.204-1.256-0.236c-0.092-0.033-1.029-0.541-1.206-0.684
		c-0.177-0.144-0.383-0.287-0.727-0.364c-0.351-0.08-0.894-0.271-1.163-0.271c-0.266,0-0.49,0.064-0.713-0.094
		c-0.223-0.16-0.415-0.351-0.443-0.447c-0.035-0.094-0.021-0.222-0.163-0.332c-0.138-0.111-0.762-0.653-0.84-0.701
		c-0.082-0.046-0.11-0.174-0.11-0.174l0.11-0.066c0,0,0.67,0.034,0.84,0c0.174-0.03,0.209-0.08,0.337-0.19
		c0.124-0.112,0.174-0.174,0.238-0.284c0.06-0.115,0.092-1.004,0.092-1.004s0-0.014,0.114-0.062c0.113-0.05,0.273-0.174,0.273-0.225
		c0-0.044,0.078-0.317,0.078-0.378c0-0.066-0.096-0.048,0-0.066c0.096-0.016,0.124-0.048,0.124-0.19
		c0-0.144,0.021-0.176-0.064-0.238c-0.078-0.062-0.032,0.128-0.078-0.062c-0.046-0.194-0.092-0.289-0.014-0.335
		c0.078-0.048,0.032,0,0.206-0.112c0.177-0.112,0.206-0.03,0.284-0.19c0.078-0.162,0.078-0.21,0.064-0.287
		c-0.018-0.078-0.397-0.587-0.521-0.779c-0.128-0.188-0.195-0.254-0.238-0.399c-0.05-0.14-0.142-0.11-0.142-0.25
		c0-0.145,0.06-0.367,0.092-0.527c0.032-0.158,0.078-0.285,0.092-0.429c0.018-0.14-0.014-0.333-0.078-0.507
		c-0.06-0.176-0.106-0.365-0.192-0.523c-0.074-0.159-0.17-0.207-0.17-0.383c0-0.172,0-0.19,0.096-0.381
		c0.092-0.19,0.568-1.462,0.568-1.462s0.127-0.172,0.053-0.238c-0.081-0.064-0.241-0.08-0.241-0.08l-0.844-0.046
		c0,0-0.142,0.032-0.298-0.051c-0.163-0.078-0.546-0.316-0.67-0.316c-0.128,0-1.206-0.016-1.508-0.016
		c-0.305,0-0.78,0.08-1.067,0.112c-0.284,0.032-1.128,0.032-1.412,0.112c-0.287,0.078-0.876,0.094-1.475,0.651
		c-0.603,0.557-1.447,1.509-1.465,2.717c-0.015,1.206,0.255,1.922,0.511,2.479c0.255,0.555,0.89,1.476,1.078,1.573
		c0.191,0.094,0.337,0.094,0.337,0.094l-0.049,1.046l-0.365,0.034l-0.014,1.35c0,0-0.21,0.127-0.475,0.493
		c-0.273,0.364-0.575,0.95-0.575,0.95s-0.159-0.571-1.316-1.364C9.017,21.854,7.364,21.346,7.364,21.346z"/>
</g>
<path display="none" fill="#CB2026" d="M45.045,30.944c-0.536-2.354-1.746-3.901-3.429-4.909c-1.615-1.008-3.631-1.413-5.854-1.413
	c-5.85,0-9.818,5.179-9.818,11.502c0,8.612,5.584,12.109,10.291,11.906c3.564-0.135,6.659-1.679,8.14-5.044h15.002
	C57.895,55.498,46.66,62.023,34.754,62.023c-15.339,0-23.745-11.37-23.745-25.967c0-13.788,8.275-24.753,22.804-24.753
	c3.901,0,8.743,1.143,11.299,4.505h0.135v-3.429h12.783v18.566H45.045z"/>
<g display="none">
	<circle display="inline" cx="35.996" cy="32.424" r="22.744"/>
	<linearGradient id="SVGID_8_" gradientUnits="userSpaceOnUse" x1="15.0907" y1="33.4335" x2="49.3558" y2="33.4335">
		<stop  offset="0" style="stop-color:#D2D5D9"/>
		<stop  offset="0.0126" style="stop-color:#C0C2C6"/>
		<stop  offset="0.0434" style="stop-color:#989A9D"/>
		<stop  offset="0.0779" style="stop-color:#737577"/>
		<stop  offset="0.1156" style="stop-color:#545557"/>
		<stop  offset="0.1572" style="stop-color:#3A3A3B"/>
		<stop  offset="0.2041" style="stop-color:#242525"/>
		<stop  offset="0.259" style="stop-color:#141415"/>
		<stop  offset="0.3268" style="stop-color:#080909"/>
		<stop  offset="0.4218" style="stop-color:#020202"/>
		<stop  offset="0.6854" style="stop-color:#000000"/>
	</linearGradient>
	<path display="inline" fill="url(#SVGID_8_)" d="M17.062,28.725c0.593-6.366,3.903-11.82,8.677-15.332
		c-5.77,3.385-9.886,9.398-10.554,16.566C14.083,41.791,22.78,52.277,34.612,53.38c5.466,0.509,10.645-1.077,14.744-4.095
		c-3.754,2.202-8.204,3.294-12.867,2.86C24.656,51.043,15.96,40.557,17.062,28.725z"/>
	<ellipse display="inline" fill="#FFFFFF" cx="44.649" cy="29.952" rx="8.652" ry="8.406"/>
	<g display="inline">
		<path fill="#D2D5D9" d="M46.095,22.68c3.018,1.042,5.181,3.839,5.181,7.129c0,4.178-3.488,7.565-7.788,7.565
			c-0.433,0-0.858-0.035-1.273-0.102c0.816,0.282,1.693,0.436,2.609,0.436c4.301,0,7.788-3.387,7.788-7.565
			C52.612,26.386,49.791,23.27,46.095,22.68z"/>
	</g>
	
		<ellipse transform="matrix(0.9472 0.3206 -0.3206 0.9472 10.1487 -7.9434)" display="inline" fill="#FFFFFF" stroke="#000000" stroke-width="0.163" cx="29.197" cy="26.849" rx="9.323" ry="13.383"/>
	<g display="inline">
		<path fill="#D2D5D9" d="M26.358,37.785c-4.438-1.502-6.288-7.885-4.132-14.256c0.84-2.482,2.166-4.594,3.732-6.162
			c-1.968,1.611-3.658,4.046-4.66,7.005c-2.157,6.372-0.306,12.755,4.132,14.257c2.709,0.917,5.756-0.199,8.21-2.655
			C31.371,37.83,28.735,38.589,26.358,37.785z"/>
	</g>
	<g display="inline">
		
			<ellipse transform="matrix(0.9735 0.2287 -0.2287 0.9735 5.1121 -7.0322)" fill="#C3302D" cx="32.899" cy="18.542" rx="1.14" ry="2.642"/>
		<ellipse transform="matrix(0.9736 0.2281 -0.2281 0.9736 5.0956 -7.0143)" cx="32.9" cy="18.542" rx="0.767" ry="1.777"/>
		
			<ellipse transform="matrix(0.9816 0.191 -0.191 0.9816 3.936 -6.0017)" fill="#FFFFFF" cx="33.109" cy="17.422" rx="0.881" ry="1.251"/>
	</g>
	<g display="inline">
		<ellipse fill="#C3302D" cx="40.558" cy="25.297" rx="1.112" ry="1.529"/>
		<ellipse cx="40.559" cy="25.297" rx="0.742" ry="1.02"/>
		
			<ellipse transform="matrix(0.9816 0.1908 -0.1908 0.9816 5.4653 -7.2337)" fill="#FFFFFF" cx="40.294" cy="24.762" rx="0.632" ry="0.898"/>
	</g>
	<path display="inline" fill="#ED2024" stroke="#000000" stroke-width="0.2323" d="M52.938,39.883c0,0-0.081,0.031-0.233,0.087
		c-0.374,0.139-1.181,0.437-2.22,0.808c-2.014,2.233-6.831,7.156-11.284,8.533C24.582,50.33,26.349,38.061,26.081,39.4
		c-0.523-0.899-1.827-4.509-2.18-5.65c0,0-0.836,23.133,5.921,26.773c0,0,7.7,2.676,10.997-0.883c0,0-2.848-7.221-1.216-9.417
		C39.603,50.223,52.634,41.564,52.938,39.883z"/>
	<path display="inline" fill="#FFFFFF" stroke="#000000" stroke-width="0.1859" d="M40.611,49.552
		c4.413-1.406,9.769-6.897,11.729-9.102c-3.457,1.265-9.453,4.026-12.916,3.726c0,0-9.648,0.708-14.25-6.656
		C22.752,50.894,40.611,49.552,40.611,49.552z"/>
	<path display="inline" fill="#F26667" d="M38.922,58.509c-0.343,1.311-3.04,2.05-6.025,1.65c-2.984-0.401-5.127-1.789-4.784-3.101
		c0.342-1.311,3.039-2.05,6.025-1.649C37.122,55.81,39.264,57.197,38.922,58.509z"/>
	<ellipse display="inline" fill="#FFFFFF" cx="45.302" cy="16.416" rx="3.496" ry="2.967"/>
	<ellipse display="inline" fill="#FFFFFF" cx="49.428" cy="19.013" rx="2.059" ry="1.669"/>
	<path display="inline" fill="#D2D5D9" d="M28.58,41.943c0,0-2.658-2.348-3.029-3.029c0,0-0.988,5.254,3.4,8.097
		C28.951,47.011,24.191,41.015,28.58,41.943z"/>
</g>
<g display="none">
	<circle display="inline" fill="#FFCD34" cx="35.359" cy="34.338" r="24.03"/>
	<circle display="inline" fill="#333333" cx="35.359" cy="34.339" r="19.355"/>
	<path display="inline" fill="#FFFFFF" d="M22.814,40.882c-1.676-1.677-3.133-3.023-4.397-4.178l3.545-3.544l2.006,1.675
		l0.082-0.082c-0.302-1.457-0.358-3.93,1.924-6.211c1.759-1.759,4.012-2.198,5.991-1.373l0.054-0.056
		c-0.192-1.237-0.165-2.363,0.11-3.407c0.329-1.154,0.907-2.226,1.897-3.216c2.583-2.583,6.348-2.72,10.36,1.292l7.915,7.915
		l-4.067,4.067l-7.283-7.283c-1.951-1.951-3.71-2.445-5.057-1.1c-0.99,0.99-0.99,2.309-0.494,3.408
		c0.22,0.385,0.576,0.852,0.907,1.182l7.86,7.86L40.1,41.899l-7.53-7.531c-1.677-1.675-3.435-2.226-4.782-0.878
		c-1.072,1.072-0.879,2.527-0.468,3.434c0.193,0.467,0.55,0.88,0.907,1.237l7.805,7.805l-4.066,4.067L22.814,40.882z"/>
</g>
<g display="none">
	<rect x="8.04" y="10.013" display="inline" fill="#CB2026" width="56.57" height="48.137"/>
	<g display="inline">
		<path fill="#FFFFFF" d="M24.16,50.857l-0.518-1.408c0,0-0.842,0.939-2.103,0.939c-1.116,0-1.909-0.97-1.909-2.524
			c0-1.988,1.003-2.7,1.99-2.7c1.423,0,1.876,0.921,2.264,2.102l0.518,1.617c0.518,1.569,1.488,2.831,4.287,2.831
			c2.006,0,3.364-0.615,3.364-2.232c0-1.31-0.744-1.989-2.135-2.313l-1.035-0.227c-0.712-0.161-0.922-0.453-0.922-0.937
			c0-0.55,0.437-0.873,1.149-0.873c0.776,0,1.197,0.29,1.262,0.986l1.618-0.194c-0.13-1.456-1.133-2.054-2.782-2.054
			c-1.456,0-2.879,0.549-2.879,2.313c0,1.1,0.533,1.796,1.876,2.119l1.1,0.259c0.825,0.194,1.1,0.533,1.1,1.003
			c0,0.598-0.583,0.84-1.683,0.84c-1.633,0-2.313-0.857-2.701-2.038l-0.534-1.616c-0.679-2.102-1.763-2.879-3.913-2.879
			c-2.378,0-3.639,1.504-3.639,4.059c0,2.459,1.261,3.785,3.526,3.785C23.287,51.713,24.16,50.857,24.16,50.857L24.16,50.857z"/>
		<path fill="#FFFFFF" d="M17.238,50.096c-0.162,0.049-0.324,0.081-0.534,0.081c-0.388,0-0.663-0.178-0.663-0.646v-8.818h-1.699
			v9.221c0,1.213,0.841,1.715,1.828,1.715c0.323,0,0.631-0.049,1.019-0.146L17.238,50.096L17.238,50.096z"/>
		<path fill="#FFFFFF" d="M37.698,49.837c-0.419,0.292-0.776,0.437-1.262,0.437c-0.615,0-0.954-0.323-0.954-1.116v-3.785h2.232
			v-1.326h-2.217v-1.796l-1.714,0.21v1.586H32.7v1.326h1.084v4.141c0,1.487,0.857,2.199,2.249,2.199c0.76,0,1.44-0.146,1.973-0.453
			L37.698,49.837L37.698,49.837z"/>
		<path fill="#FFFFFF" d="M39.174,50.419c0,0.664,0.517,1.197,1.18,1.197c0.696,0,1.213-0.533,1.213-1.197
			c0-0.68-0.517-1.197-1.213-1.197C39.691,49.222,39.174,49.739,39.174,50.419L39.174,50.419z"/>
		<path fill="#FFFFFF" d="M43.325,45.373v6.146h1.699v-6.146h1.909v-1.326h-1.909v-0.679c0-1.019,0.438-1.343,1.149-1.343
			c0.502,0,0.841,0.113,1.23,0.324l0.275-1.425c-0.452-0.211-0.986-0.323-1.633-0.323c-1.424,0-2.719,0.679-2.719,2.702v0.744
			h-1.084v1.326H43.325L43.325,45.373z"/>
		<path fill="#FFFFFF" d="M53.7,45.518c-0.194-1.213-0.987-1.649-2.021-1.649c-1.037,0-1.926,0.468-2.313,1.617l-0.211-1.439H47.78
			v7.472h1.698v-4.221c0-1.44,0.745-1.99,1.538-1.99c0.824,0,1.164,0.549,1.164,1.439v4.772h1.683v-4.237
			c0-1.424,0.76-1.973,1.553-1.973c0.808,0,1.148,0.549,1.148,1.439v4.772h1.698v-5.37c0-1.601-0.937-2.28-2.183-2.28
			C55.027,43.869,54.088,44.337,53.7,45.518L53.7,45.518z"/>
	</g>
</g>
<g display="none">
	<path display="inline" fill="#D3202B" d="M61.103,10.808H10.019c-1.128,0-2.043,0.915-2.043,2.043v38.652
		c0,1.129,0.915,2.043,2.043,2.043h51.083c1.128,0,2.043-0.914,2.043-2.043V12.852C63.146,11.724,62.231,10.808,61.103,10.808"/>
	<g display="inline">
		<path fill="#FFFFFF" d="M21.54,48.258c-0.89,0.384-2.287,0.629-3.53,0.629c-4.113,0-5.632-2.103-5.632-5.97
			c0-3.914,1.703-5.956,5.74-5.956c1.105,0,2.348,0.185,3.269,0.507l-0.307,2.671c-0.813-0.292-1.872-0.461-2.778-0.461
			c-2.088,0-2.548,0.706-2.548,3.208c0,2.624,0.491,3.253,2.164,3.253c0.261,0,0.522-0.015,0.768-0.061v-3.637h2.854V48.258z"/>
		<path fill="#FFFFFF" d="M32.515,44.56c0,2.839-1.581,4.328-4.789,4.328c-3.192,0-4.819-1.473-4.819-4.328v-7.398h3.208v7.368
			c0,1.074,0.461,1.565,1.627,1.565c1.151,0,1.581-0.46,1.581-1.565v-7.368h3.193V44.56z"/>
		<rect x="34.234" y="37.161" fill="#FFFFFF" width="3.284" height="11.511"/>
		<path fill="#FFFFFF" d="M43.934,48.673h-4.558V37.161h4.512c3.761,0,5.311,1.765,5.311,5.694
			C49.198,47.03,47.387,48.673,43.934,48.673 M43.872,39.924h-1.289v6.016h1.289c1.474,0,1.95-0.43,1.95-3.1
			C45.822,40.415,45.361,39.924,43.872,39.924"/>
		<polygon fill="#FFFFFF" points="58.745,45.987 58.684,48.673 50.565,48.673 50.565,37.161 58.484,37.161 58.53,39.878 
			53.773,39.878 53.773,41.566 57.702,41.566 57.702,44.022 53.773,44.022 53.773,45.987 		"/>
		<polygon fill="#FFFFFF" points="53.598,15.337 47.32,34.322 39.375,34.322 33.123,15.337 39.968,15.337 42.98,27.006 
			43.462,28.981 43.537,28.981 43.993,27.006 47.081,15.337 		"/>
		<polygon fill="#FFFFFF" points="29.271,20.942 29.271,34.322 22.907,34.322 22.907,20.942 18.173,20.942 18.274,15.337 
			33.229,15.337 34.038,20.942 		"/>
	</g>
</g>
<image display="none" overflow="visible" width="3300" height="1335" id="Layer_1_copy_xA0_Image_1_" xlink:href="72AC6F3D215EF94D.png"  transform="matrix(0.0169 0 0 0.0169 7.6089 14.3747)">
</image>
<g display="none">
	<path display="inline" fill="#FFCD05" d="M14.763,48.298c0-5.752,4.655-10.407,10.429-10.407c5.766,0,10.408,4.654,10.408,10.407
		c0,5.788-4.642,10.443-10.408,10.443C19.418,58.741,14.763,54.086,14.763,48.298z"/>
	<path display="inline" fill="#F8991D" d="M37.858,34.883c0-5.741,4.681-10.42,10.455-10.42c5.726,0,10.405,4.679,10.405,10.42
		c0,5.775-4.679,10.427-10.405,10.427C42.539,45.31,37.858,40.658,37.858,34.883z"/>
	<path display="inline" fill="#F26822" d="M14.763,21.682c0-5.777,4.655-10.431,10.429-10.431c5.766,0,10.447,4.654,10.447,10.431
		c0,5.753-4.68,10.419-10.447,10.419C19.418,32.101,14.763,27.436,14.763,21.682z"/>
</g>
<linearGradient id="SVGID_9_" gradientUnits="userSpaceOnUse" x1="36.6742" y1="11.1908" x2="36.6742" y2="59.6351">
	<stop  offset="0" style="stop-color:#262626"/>
	<stop  offset="1" style="stop-color:#000000"/>
</linearGradient>
<path display="none" fill="url(#SVGID_9_)" d="M12.452,35.378c0-6.688,2.369-12.392,7.109-17.111
	c4.741-4.718,10.456-7.077,17.146-7.077c6.689,0,12.393,2.359,17.111,7.077c4.718,4.719,7.078,10.422,7.078,17.111
	c0,6.689-2.36,12.405-7.078,17.146c-4.718,4.739-10.422,7.11-17.111,7.11c-6.69,0-12.404-2.371-17.146-7.11
	C14.821,47.784,12.452,42.067,12.452,35.378z M59.448,35.378c-1.905-4.17-4.833-7.585-8.777-10.248
	c-4.213-2.796-8.867-4.193-13.964-4.193c-5.097,0-9.775,1.398-14.03,4.193c-3.946,2.663-6.872,6.078-8.778,10.248
	c1.906,4.217,4.831,7.63,8.778,10.249c4.255,2.84,8.932,4.261,14.03,4.261c5.097,0,9.751-1.421,13.964-4.261
	C54.615,43.009,57.543,39.596,59.448,35.378z M23.805,35.393c0-3.541,1.26-6.561,3.784-9.063c2.523-2.5,5.555-3.752,9.095-3.752
	c3.541,0,6.56,1.252,9.062,3.752c2.5,2.502,3.752,5.522,3.752,9.063c0,3.538-1.252,6.573-3.752,9.094
	c-2.502,2.525-5.521,3.785-9.062,3.785c-3.54,0-6.572-1.26-9.095-3.785C25.065,41.966,23.805,38.932,23.805,35.393z"/>
<path display="none" fill="#004282" d="M61.251,35.154c0,13.596-11.023,24.613-24.62,24.613c-13.593,0-24.613-11.017-24.613-24.613
	c0-13.594,11.02-24.616,24.613-24.616C50.227,10.537,61.251,21.56,61.251,35.154z M13.397,35.793
	c5.06,10.516,17.64,16.305,29.251,13.297c7.721-2.004,14.073-7.272,17.353-14.33c-4.125-7.736-12.032-13.09-20.811-13.901
	C28.426,19.86,17.893,26.101,13.397,35.793z M36.63,22.207c-7.15,0-12.945,5.794-12.945,12.947c0,7.15,5.795,12.946,12.945,12.946
	c7.15,0,12.954-5.796,12.954-12.946C49.584,28.001,43.78,22.207,36.63,22.207z"/>
<path display="none" fill="#6FA3CE" d="M60.963,34.474c0,13.738-11.139,24.871-24.879,24.871c-13.736,0-24.871-11.133-24.871-24.871
	c0-13.737,11.136-24.875,24.871-24.875C49.824,9.599,60.963,20.737,60.963,34.474z M12.607,35.12
	c5.114,10.626,17.825,16.477,29.558,13.437c7.802-2.025,14.221-7.349,17.536-14.48C55.532,26.26,47.542,20.849,38.671,20.03
	C27.794,19.02,17.15,25.326,12.607,35.12z M36.085,21.391c-7.225,0-13.081,5.855-13.081,13.083c0,7.225,5.856,13.082,13.081,13.082
	c7.225,0,13.09-5.857,13.09-13.082C49.174,27.246,43.31,21.391,36.085,21.391z"/>
<g display="none">
	<g display="inline">
		<circle fill="#E32726" cx="35.122" cy="35.181" r="25.742"/>
	</g>
	<g display="inline">
		<linearGradient id="SVGID_10_" gradientUnits="userSpaceOnUse" x1="35.122" y1="9.4378" x2="35.122" y2="60.9238">
			<stop  offset="0" style="stop-color:#FFFFFF;stop-opacity:0"/>
			<stop  offset="0.7142" style="stop-color:#000000"/>
		</linearGradient>
		<circle fill="url(#SVGID_10_)" cx="35.122" cy="35.181" r="25.742"/>
	</g>
	<path id="Highlight_3_" display="inline" fill="#FFFFFF" d="M35.122,10.09c14.109,0,25.566,11.351,25.74,25.417
		c0.001-0.108,0.002-0.217,0.002-0.326c0-14.217-11.525-25.743-25.742-25.743C20.904,9.438,9.38,20.964,9.38,35.181
		c0,0.109,0.001,0.217,0.002,0.326C9.556,21.44,21.013,10.09,35.122,10.09z"/>
	<circle id="Fill_1_" display="inline" fill="#FED401" cx="35.122" cy="35.181" r="22.396"/>
	<linearGradient id="Gradient_1_" gradientUnits="userSpaceOnUse" x1="35.122" y1="12.785" x2="35.122" y2="57.5766">
		<stop  offset="0" style="stop-color:#FFFFFF;stop-opacity:0"/>
		<stop  offset="1" style="stop-color:#000000"/>
	</linearGradient>
	<circle id="Gradient" display="inline" fill="url(#Gradient_1_)" cx="35.122" cy="35.181" r="22.396"/>
	<path id="Highlight_1_" display="inline" fill="#FFFFFF" d="M35.122,13.437c12.261,0,22.219,9.852,22.393,22.07
		c0.002-0.108,0.003-0.217,0.003-0.326c0-12.368-10.027-22.396-22.396-22.396c-12.369,0-22.396,10.027-22.396,22.396
		c0,0.109,0.001,0.217,0.003,0.326C12.903,23.288,22.862,13.437,35.122,13.437z"/>
	<path display="inline" d="M45.137,45.072c-0.587-0.411-1.365-0.592-2.223-0.592c-0.669,0-2.374,0.273-5.03,0.823
		c-1.399,0.301-2.475,0.395-3.241,0.395c-3.069,0-5.661-1.01-7.894-3.05c-2.129-2.061-3.251-4.542-3.251-7.451
		c0-2.975,1.051-5.47,3.239-7.461c2.246-2.065,5.077-3.071,8.524-3.071c2.258,0,4.044,0.155,5.522,0.528
		c0.228,0.045,1.352,0.411,3.346,1.139l-0.815,3.117c-0.996-0.409-1.74-0.643-2.282-0.755c-1.038-0.293-2.128-0.433-3.252-0.433
		c-2.246,0-4,0.713-5.327,2.131c-1.225,1.303-1.796,2.935-1.796,4.836c0,1.876,0.548,3.41,1.67,4.673
		c1.137,1.277,2.476,1.834,4.022,1.834c0.597,0,1.125-0.094,1.536-0.463c0.378-0.341,0.63-0.828,0.63-1.466v-4.261h6.624V45.072z"/>
</g>
<g display="none">
	<path display="inline" fill="#1C3665" d="M42.123,32.094l7.688-23.546h-9.429l-2.314,7.828c1.86,0.621,3.202,2.373,3.203,4.437
		c-0.001,2.586-2.096,4.684-4.684,4.684c-2.582,0-4.679-2.098-4.679-4.684c0.001-2.066,1.345-3.82,3.205-4.439l-2.316-7.847h-9.429
		l7.688,23.546l-8.51,25.54h9.63l4.411-13.733l4.416,13.753h9.63L42.123,32.094z"/>
	<path display="inline" fill="#1C3665" d="M39.552,17.852c-0.759-0.759-1.807-1.228-2.966-1.228c-1.156,0-2.202,0.469-2.961,1.228
		c-0.758,0.76-1.228,1.806-1.228,2.962c0,1.158,0.47,2.206,1.228,2.965c0.759,0.76,1.805,1.23,2.961,1.23
		c1.159-0.001,2.206-0.47,2.966-1.23c0.759-0.761,1.229-1.807,1.229-2.965C40.781,19.658,40.311,18.612,39.552,17.852z"/>
</g>
<g display="none">
	<g display="inline">
		<linearGradient id="SVGID_11_" gradientUnits="userSpaceOnUse" x1="35.8934" y1="62.3026" x2="35.8934" y2="10.2405">
			<stop  offset="0.1067" style="stop-color:#921A1C"/>
			<stop  offset="0.382" style="stop-color:#CB2026"/>
		</linearGradient>
		<path fill="url(#SVGID_11_)" d="M61.15,46.474c0.67-0.311,0.962-1.115,0.651-1.784L46.096,11.015
			c-0.311-0.669-1.115-0.961-1.785-0.649L10.636,26.067c-0.669,0.312-0.962,1.115-0.65,1.786L25.69,61.528
			c0.313,0.669,1.116,0.961,1.786,0.649L61.15,46.474z"/>
		<linearGradient id="SVGID_12_" gradientUnits="userSpaceOnUse" x1="34.3521" y1="11.6403" x2="34.3521" y2="43.3762">
			<stop  offset="0.2079" style="stop-color:#F57F20"/>
			<stop  offset="0.8764" style="stop-color:#CB2026"/>
		</linearGradient>
		<path opacity="0.65" fill="url(#SVGID_12_)" d="M37.1,43.376c7.944,0,15.043-2.662,19.758-6.845L45.587,12.362
			c-0.292-0.623-1.04-0.897-1.663-0.605L12.567,26.379c-0.624,0.288-0.896,1.039-0.604,1.66l2.474,5.306
			C18.766,39.316,27.29,43.376,37.1,43.376z"/>
		<g>
			<path fill="#FFFFFF" d="M44.103,22.129h-8.441v14.528H25.537l9.81-14.528H20.455l-2.75,4.103h9.018l-9.86,14.527h20.102
				l3.54-5.222v-9.305h2.71c3.114,0,5.311,1.875,5.311,5.211c0,3.634-2.471,5.213-5.362,5.213h-2.139v4.103h3.078
				c5.163,0,9.463-4.078,9.463-9.316C53.567,26.205,49.292,22.129,44.103,22.129z"/>
		</g>
	</g>
	<g display="inline">
		<path d="M53.349,18.741h-0.818v-0.295h1.991v0.295H53.7v2.394h-0.351V18.741z"/>
		<path d="M57.088,19.955c-0.02-0.375-0.044-0.83-0.044-1.161h-0.008c-0.096,0.311-0.203,0.651-0.339,1.022l-0.475,1.305H55.96
			l-0.439-1.281c-0.128-0.383-0.232-0.726-0.307-1.046h-0.008c-0.008,0.335-0.028,0.782-0.052,1.189l-0.072,1.153H54.75l0.188-2.69
			h0.443l0.459,1.301c0.112,0.331,0.2,0.627,0.272,0.906h0.008c0.072-0.271,0.168-0.567,0.287-0.906l0.479-1.301h0.443l0.168,2.69
			h-0.343L57.088,19.955z"/>
	</g>
</g>
<path id="Symbol_1_" display="none" fill="#E18455" d="M37.492,25.85l0.731-0.709l0.734-0.706l0.735-0.704l0.737-0.702
	c0.491-0.469,0.984-0.934,1.478-1.399l1.481-1.395l1.486-1.389c0.494-0.464,0.991-0.925,1.489-1.385l1.491-1.382l1.494-1.379
	l0.976-0.9l15.842,23.199l-0.876,0.876l-7.03,7.03l-0.956,0.957l-1.056-0.845L21.096,16.896l2.202-0.342L9.237,37.645l-0.189-1.907
	l7.03,7.03l-2.02-0.106L34.439,28.1L14.903,45.868l-0.962-0.962l-7.03-7.03l-0.876-0.876l0.687-1.031l14.061-21.091l0.914-1.372
	l1.287,1.03l35.152,28.121l-2.013,0.111l7.03-7.03l-0.189,1.907L49.079,16.437l1.894,0.294L49.3,17.886l-1.676,1.152
	c-0.558,0.384-1.117,0.768-1.678,1.149l-1.682,1.144l-1.686,1.139c-0.562,0.38-1.125,0.758-1.69,1.134l-0.846,0.565l-0.848,0.563
	l-0.85,0.561L37.492,25.85z"/>
<g display="none">
	<g display="inline">
		<g>
			<path fill="#FFFFFF" d="M58.038,15.188c0.412-0.505,0.822-1.008,1.235-1.508c-2.412,0.664-4.817,1.353-7.218,2.066
				c0.005,0-0.809,0.259-0.809,0.259c-0.094,0.031-0.19,0.061-0.284,0.092c-0.069,0.074-0.135,0.149-0.202,0.224
				c-1.551,1.743-3.618,4.744-6.267,9.317c-1.293,2.227-2.473,4.414-3.589,6.581c0.511-6.165,0.759-10.467,0.714-12.829
				c-0.025-1.216-0.111-1.6-0.185-1.799c-0.074-0.199-0.148-0.398-0.222-0.598c-0.245,0.111-0.487,0.222-0.733,0.333
				c-2.735,1.244-5.461,2.53-8.173,3.854c0.066,0.224,0.132,0.448,0.198,0.67c0.036,0.12,0.125,0.624,0.184,2.693
				c0.134,4.451,0.194,9.359,0.188,14.595c-0.018,7.803-0.175,9.264-0.243,9.525c-0.119,0.462-0.237,0.925-0.355,1.387
				c0.427-0.247,0.855-0.493,1.283-0.739c2.507-1.521,5.025-3.002,7.555-4.447c0.053-0.075,0.106-0.149,0.159-0.224
				c1.29-1.838,2.907-4.629,4.826-8.234c-0.001-0.05,4.253-8.192,4.266-8.158c-0.002-0.033,3.586-6.784,3.594-6.761
				C55.416,18.829,56.794,16.719,58.038,15.188z"/>
			<path d="M28.476,55.052l1.798-6.996c0.002-0.068,0.15-1.416,0.166-8.924c0.007-5.25-0.055-10.135-0.188-14.517
				c-0.05-1.752-0.116-2.195-0.124-2.24l-0.743-2.477l1.848-0.904c2.734-1.335,5.479-2.629,8.237-3.883l3.126-1.402l1.043,2.837
				c0.295,0.791,0.385,1.495,0.411,2.795c0.012,0.639,0.005,1.413-0.026,2.33c1.888-3.075,3.537-5.412,4.916-6.966l0.416-0.444
				l-0.038-0.238l2.045-0.608c2.418-0.718,4.838-1.412,7.265-2.079l7.432-2.047l-6.133,7.433c-1.185,1.456-2.475,3.452-3.836,5.934
				l-0.302,0.55c-0.653,1.214-2.282,4.278-2.952,5.551l-1.021,1.929c-0.948,1.8-2.658,5.072-3.287,6.296v0.031l-0.285,0.536
				c-2.059,3.868-3.689,6.644-4.983,8.489l-0.492,0.68l-0.451,0.258c-2.51,1.436-5.011,2.906-7.501,4.415L28.476,55.052z
				 M35.031,22.56c0.031,0.458,0.059,1.072,0.086,1.913c0.131,4.43,0.195,9.365,0.188,14.667c-0.007,2.855-0.031,4.88-0.064,6.326
				c0.741-0.439,1.487-0.876,2.233-1.312l1.005-12.137c0.439-5.291,0.672-9.05,0.708-11.422
				C37.798,21.239,36.413,21.894,35.031,22.56z M52.355,18.2c-1.23,1.458-3.043,3.969-5.757,8.656
				c-1.166,2.008-2.323,4.126-3.534,6.476l-5.57,10.811c0.641-0.374,1.287-0.747,1.931-1.117c1.249-1.834,2.698-4.332,4.525-7.763
				l0.017,0.008c0.302-0.653,0.9-1.8,2.097-4.09c1.064-2.038,1.724-3.301,2.216-4.085c0.81-2.037,2.812-5.466,3.586-6.757
				l-0.04-0.023c0.461-0.837,0.914-1.627,1.363-2.369c-0.147,0.044-0.295,0.087-0.439,0.131l-0.007-0.021
				C52.612,18.11,52.481,18.158,52.355,18.2z"/>
		</g>
		<g>
			<path fill="#FFFFFF" d="M27.361,38.643c-1.375,1.947-2.969,3.208-4.886,3.843c-1.713,0.566-3.121,0.361-4.313-0.656
				c-1.151-0.979-1.784-2.388-1.929-4.307c0.005-0.43,0.012-0.859,0.018-1.289c0.001-0.08,0.002-0.16,0.003-0.242
				c0.182-2.704,0.988-5.09,2.408-7.072c1.524-2.105,3.473-3.454,5.951-4.131c2.316-0.633,3.972-0.098,5.045,1.591
				c0.133,0.208,0.264,0.414,0.396,0.623c3.123-2.407,6.271-4.74,9.447-6.996c-0.17-0.209-0.338-0.416-0.507-0.625
				c-2.966-3.643-7.852-4.836-14.423-3.219c-4.359,1.082-8.157,3.737-11.241,7.979c-0.001,0-0.001,0.001-0.001,0.001
				c-2.998,4.139-4.552,8.667-4.677,13.315c0,0.009,0.042,1.379,0.069,2.243c0.012,0.398,0.023,0.689,0.023,0.689
				c0.349,4.196,1.656,7.314,3.861,9.226c2.44,2.097,5.614,2.39,9.492,1.004c4.738-1.693,8.588-4.707,11.475-8.907
				c0.187-0.273,0.374-0.544,0.562-0.817c-2.095-0.959-4.195-1.93-6.305-2.91C27.673,38.205,27.517,38.424,27.361,38.643z"/>
			<path d="M17.717,53.9c-2.56,0-4.812-0.821-6.698-2.44c-2.717-2.357-4.294-6.011-4.698-10.868l-0.1-3.134
				c0.143-5.292,1.872-10.23,5.14-14.741c3.404-4.681,7.65-7.68,12.624-8.915c7.391-1.816,13.308-0.363,16.896,4.045l2.138,2.645
				l-2.109,1.498c-3.109,2.209-6.261,4.544-9.37,6.94l-2.102,1.621l-1.826-2.858c-0.627-0.987-1.259-0.857-2.356-0.556
				c-1.955,0.533-3.423,1.553-4.624,3.211c-1.138,1.59-1.798,3.548-1.95,5.809l-0.017,1.394c0.116,1.436,0.67,2.083,1.074,2.427
				c0.558,0.477,1.095,0.493,1.971,0.2c1.418-0.469,2.582-1.402,3.667-2.937l1.641-2.315l1.838,0.854
				c2.104,0.979,4.199,1.948,6.289,2.905l2.632,1.204l-2.199,3.202c-3.204,4.658-7.465,7.961-12.662,9.82
				C21.075,53.568,19.327,53.9,17.717,53.9z M29.91,17.888c-1.442,0-3.043,0.214-4.757,0.637c-3.829,0.95-7.147,3.322-9.854,7.047
				c-2.681,3.7-4.099,7.723-4.213,11.952l0.088,2.787c0.29,3.426,1.309,5.979,3.026,7.469c1.729,1.487,4.035,1.638,7.078,0.551
				c3.627-1.297,6.695-3.466,9.144-6.464c-0.606-0.279-1.211-0.561-1.819-0.841c-1.525,1.844-3.29,3.083-5.363,3.769
				c-2.546,0.842-4.829,0.445-6.657-1.115c-1.646-1.402-2.582-3.413-2.774-5.973l0.019-1.878c0.216-3.178,1.178-5.979,2.86-8.326
				c1.867-2.578,4.249-4.23,7.287-5.06c2.629-0.721,4.871-0.289,6.51,1.172c1.777-1.348,3.563-2.672,5.342-3.962
				C34.3,18.469,32.35,17.888,29.91,17.888z"/>
		</g>
	</g>
	<g display="inline">
		<g>
			<path fill="#EAB649" d="M58.038,15.188c0.412-0.505,0.822-1.008,1.235-1.508c-2.412,0.664-4.817,1.353-7.218,2.066
				c0.005,0-0.809,0.259-0.809,0.259c-0.094,0.031-0.19,0.061-0.284,0.092c-0.069,0.074-0.135,0.149-0.202,0.224
				c-1.551,1.743-3.618,4.744-6.267,9.317c-1.293,2.227-2.473,4.414-3.589,6.581c0.511-6.165,0.759-10.467,0.714-12.829
				c-0.025-1.216-0.111-1.6-0.185-1.799c-0.074-0.199-0.148-0.398-0.222-0.598c-0.245,0.111-0.487,0.222-0.733,0.333
				c-2.735,1.244-5.461,2.53-8.173,3.854c0.066,0.224,0.132,0.448,0.198,0.67c0.036,0.12,0.125,0.624,0.184,2.693
				c0.134,4.451,0.194,9.359,0.188,14.595c-0.018,7.803-0.175,9.264-0.243,9.525c-0.119,0.462-0.237,0.925-0.355,1.387
				c0.427-0.247,0.855-0.493,1.283-0.739c2.507-1.521,5.025-3.002,7.555-4.447c0.053-0.075,0.106-0.149,0.159-0.224
				c1.29-1.838,2.907-4.629,4.826-8.234c-0.001-0.05,4.253-8.192,4.266-8.158c-0.002-0.033,3.586-6.784,3.594-6.761
				C55.416,18.829,56.794,16.719,58.038,15.188z"/>
			<path fill="#FFFFFF" d="M31.324,51.3l0.717-2.788c0.033-0.14,0.207-1.255,0.223-9.376c0.007-5.27-0.057-10.174-0.188-14.575
				c-0.059-2.109-0.15-2.503-0.159-2.541l-0.344-1.16l0.463-0.226c2.681-1.311,5.439-2.61,8.189-3.862l1.332-0.6l0.444,1.209
				c0.1,0.271,0.197,0.701,0.223,1.996c0.038,1.937-0.121,5.203-0.482,9.936c0.748-1.391,1.484-2.708,2.225-3.981
				c2.518-4.35,4.65-7.518,6.337-9.416l0.318-0.348l0.748-0.242l-0.002-0.01l0.513-0.153c2.406-0.715,4.814-1.405,7.23-2.07
				l1.857-0.511l-1.228,1.484c-0.411,0.499-0.822,1-1.23,1.505c-1.254,1.54-2.605,3.628-4.021,6.206l-0.176,0.317
				c-0.634,1.171-2.907,5.447-3.335,6.275l-0.259,0.487c-0.715,1.338-3.582,6.824-4.016,7.687l-0.071,0.147
				c-2.024,3.801-3.615,6.515-4.864,8.297l-0.356,0.401c-2.544,1.456-5.083,2.95-7.541,4.44L31.324,51.3z M33.031,21.5l0.052,0.175
				c0.036,0.118,0.14,0.471,0.209,2.85c0.131,4.413,0.195,9.329,0.188,14.613c-0.009,3.962-0.059,8.844-0.259,9.663l0.031-0.018
				c2.42-1.465,4.926-2.943,7.441-4.382l0.078-0.109c1.223-1.742,2.788-4.415,4.788-8.173l0.043,0.023
				c0.546-1.211,2.945-6.244,4.173-7.941c0.29-0.879,3.7-7.088,3.738-7.129c1.361-2.52,2.755-4.669,4.052-6.267
				c0.007-0.008,0.014-0.017,0.021-0.024c-1.788,0.502-3.575,1.018-5.358,1.549l-0.005-0.014c-0.188,0.076-0.447,0.158-0.796,0.268
				l-0.135,0.053c-1.71,1.924-3.795,5.025-6.273,9.306c-1.183,2.032-2.351,4.175-3.577,6.554l-1.399,2.714l0.252-3.043
				c0.523-6.317,0.755-10.493,0.713-12.767c-0.017-0.825-0.064-1.359-0.143-1.585l-0.14,0.064
				C38.145,19.054,35.558,20.271,33.031,21.5z"/>
		</g>
		<g>
			<path fill="#3A8C4C" d="M27.361,38.643c-1.375,1.947-2.969,3.208-4.886,3.843c-1.713,0.566-3.121,0.361-4.313-0.656
				c-1.151-0.979-1.784-2.388-1.929-4.307c0.005-0.43,0.012-0.859,0.018-1.289c0.001-0.08,0.002-0.16,0.003-0.242
				c0.182-2.704,0.988-5.09,2.408-7.072c1.524-2.105,3.473-3.454,5.951-4.131c2.316-0.633,3.972-0.098,5.045,1.591
				c0.133,0.208,0.264,0.414,0.396,0.623c3.123-2.407,6.271-4.74,9.447-6.996c-0.17-0.209-0.338-0.416-0.507-0.625
				c-2.966-3.643-7.852-4.836-14.423-3.219c-4.359,1.082-8.157,3.737-11.241,7.979c-0.001,0-0.001,0.001-0.001,0.001
				c-2.998,4.139-4.552,8.667-4.677,13.315c0,0.009,0.042,1.379,0.069,2.243c0.012,0.398,0.023,0.689,0.023,0.689
				c0.349,4.196,1.656,7.314,3.861,9.226c2.44,2.097,5.614,2.39,9.492,1.004c4.738-1.693,8.588-4.707,11.475-8.907
				c0.187-0.273,0.374-0.544,0.562-0.817c-2.095-0.959-4.195-1.93-6.305-2.91C27.673,38.205,27.517,38.424,27.361,38.643z"/>
			<path fill="#FFFFFF" d="M17.717,52.076c-2.111,0-3.964-0.672-5.508-2c-2.339-2.028-3.708-5.27-4.071-9.637L8.064,38.07
				c-0.012-0.357-0.019-0.609-0.019-0.613c0.131-4.868,1.743-9.462,4.793-13.671c3.142-4.323,7.04-7.086,11.586-8.214
				c6.707-1.648,11.88-0.46,15.044,3.426l0.912,1.129l-0.527,0.374c-3.128,2.223-6.299,4.572-9.427,6.983l-0.525,0.405l-0.755-1.182
				c-0.933-1.471-2.335-1.889-4.373-1.332c-2.342,0.64-4.18,1.916-5.619,3.9c-1.344,1.878-2.116,4.153-2.294,6.758L16.84,37.53
				c0.131,1.693,0.691,2.965,1.715,3.836c1.028,0.878,2.214,1.047,3.729,0.543c1.781-0.59,3.28-1.773,4.582-3.616l0.762-1.072
				l0.458,0.214c2.109,0.98,4.206,1.95,6.301,2.91l0.656,0.3l-0.969,1.413c-2.981,4.335-6.942,7.408-11.773,9.135
				C20.659,51.779,19.116,52.076,17.717,52.076z M29.91,16.064c-1.589,0-3.335,0.232-5.194,0.689
				c-4.261,1.058-7.926,3.664-10.892,7.746c-2.902,4.007-4.439,8.372-4.563,12.975l0.09,2.895c0.335,4.008,1.563,6.974,3.653,8.787
				c2.247,1.933,5.173,2.218,8.888,0.891c4.584-1.639,8.346-4.559,11.18-8.679l0.152-0.221c-1.727-0.792-3.456-1.591-5.192-2.398
				l-0.173,0.243c-1.456,2.064-3.157,3.395-5.194,4.07c-1.919,0.633-3.558,0.374-4.897-0.772c-1.283-1.091-1.983-2.636-2.14-4.722
				l0.019-1.577c0.192-2.875,1.04-5.361,2.522-7.427c1.608-2.221,3.665-3.647,6.287-4.363c2.57-0.705,4.498-0.068,5.717,1.851
				l0.04,0.062c2.791-2.142,5.617-4.235,8.41-6.229l-0.1-0.124C36.523,17.31,33.625,16.064,29.91,16.064z"/>
		</g>
	</g>
</g>
<g display="none">
	<linearGradient id="SVGID_13_" gradientUnits="userSpaceOnUse" x1="35.4402" y1="8.4878" x2="35.4402" y2="56.8715">
		<stop  offset="0" style="stop-color:#7FAC40"/>
		<stop  offset="1" style="stop-color:#23451F"/>
	</linearGradient>
	<path display="inline" fill="url(#SVGID_13_)" d="M60.144,55.671c0,0.741-0.6,1.341-1.341,1.341H12.077
		c-0.741,0-1.341-0.6-1.341-1.341V8.328c0-0.741,0.6-1.341,1.341-1.341h46.727c0.741,0,1.341,0.6,1.341,1.341V55.671z"/>
	<linearGradient id="SVGID_14_" gradientUnits="userSpaceOnUse" x1="35.411" y1="8.0289" x2="35.411" y2="56.2821">
		<stop  offset="0" style="stop-color:#89C243"/>
		<stop  offset="0.26" style="stop-color:#6DA742"/>
		<stop  offset="0.4724" style="stop-color:#5C9842"/>
		<stop  offset="1" style="stop-color:#3B783A"/>
	</linearGradient>
	<path display="inline" fill="url(#SVGID_14_)" d="M59.452,55.416c0,0.514-0.416,0.93-0.93,0.93H12.3c-0.514,0-0.93-0.416-0.93-0.93
		V8.477c0-0.514,0.416-0.93,0.93-0.93h46.223c0.514,0,0.93,0.416,0.93,0.93V55.416z"/>
	<linearGradient id="SVGID_15_" gradientUnits="userSpaceOnUse" x1="35.4246" y1="9.4138" x2="35.4246" y2="56.0382">
		<stop  offset="0" style="stop-color:#FFFFFF"/>
		<stop  offset="0.681" style="stop-color:#4F8D40;stop-opacity:0"/>
	</linearGradient>
	<path display="inline" fill="url(#SVGID_15_)" d="M58.541,56.291H12.308c-0.518,0-0.939-0.421-0.939-0.939V8.486
		c0-0.518,0.421-0.939,0.939-0.939h46.232c0.518,0,0.939,0.421,0.939,0.939v46.866C59.48,55.87,59.059,56.291,58.541,56.291
		L58.541,56.291z M12.308,8.173c-0.173,0-0.314,0.141-0.314,0.313v46.866c0,0.173,0.141,0.313,0.314,0.313h46.232
		c0.173,0,0.313-0.141,0.313-0.313V8.486c0-0.173-0.141-0.313-0.313-0.313H12.308L12.308,8.173z"/>
	<path display="inline" opacity="0.35" fill="#FFFFFF" d="M32.719,34.25L21.073,19.96c-1.215-1.42-1.02-3.532,0.436-4.718h-0.494
		c1.455-1.185,4.113-0.996,5.328,0.425h-0.494l9.5,11.106l9.105-11.106l0.395,0c1.215-1.42,2.984-1.611,4.439-0.425
		c0,0,2.641,1.262,0.317,4.848L37.985,34.245c-0.653,0.762-1.617,1.202-2.635,1.202l0,0C34.332,35.448,33.371,35.013,32.719,34.25
		L32.719,34.25z"/>
	<path display="inline" fill="#208D44" d="M32.788,33.249L20.775,18.766c-1.212-1.42-1.117-3.631,0.336-4.816l0,0
		c1.452-1.185,3.711-1.292,4.924,0.129l9.383,11.007l9.284-11.007c1.212-1.42,3.471-1.315,4.924-0.129c0,0,2.527,1.608,0.336,4.915
		L38.048,33.15c-0.76,0.734-1.474,1.392-2.641,1.392C33.772,34.543,32.788,33.249,32.788,33.249z"/>
	<path display="inline" opacity="0.3" fill="#6DBE45" d="M24.337,40.477L24.337,40.477c0-1.758,1.425-3.182,3.182-3.182l0,0
		c1.757,0,3.182,1.424,3.182,3.182l0,0c0.001,1.259,0.501,2.369,1.324,3.197l0,0c0.828,0.823,1.938,1.323,3.197,1.324l0,0
		c1.258-0.001,2.368-0.501,3.197-1.324l0,0c0.823-0.828,1.323-1.939,1.325-3.197l0,0c0-1.758,1.425-3.182,3.182-3.182l0,0
		c1.757,0,3.182,1.424,3.182,3.182l0,0c-0.002,6.013-4.873,10.883-10.885,10.886l0,0C29.21,51.36,24.339,46.49,24.337,40.477
		L24.337,40.477z"/>
	<path display="inline" fill="#208D44" d="M24.247,39.18L24.247,39.18c0-1.758,1.443-3.182,3.224-3.182l0,0
		c1.781,0,3.52,1.424,3.52,3.182l0,0c0.001,1.259,0.31,2.369,1.145,3.197l0,0c0.839,0.823,1.865,1.323,3.141,1.324l0,0
		c1.275-0.001,2.103-0.402,2.943-1.225l0,0c0.834-0.828,1.242-2.037,1.244-3.296l0,0c0-1.758,1.838-3.182,3.619-3.182l0,0
		c1.78,0,3.224,1.424,3.224,3.182l0,0c-0.002,6.013-4.937,11.081-11.029,11.083l0,0C29.184,50.261,24.249,45.193,24.247,39.18
		L24.247,39.18z"/>
	<g display="inline">
		<path fill="#F4F4F4" d="M32.805,33.547L20.962,19.36c-1.185-1.42-0.995-3.532,0.425-4.718l0,0c1.42-1.185,3.532-0.996,4.718,0.425
			l0,0l9.271,11.106l9.271-11.106v0c1.185-1.42,3.297-1.611,4.718-0.425l0,0c1.42,1.185,1.61,3.298,0.425,4.718l0,0L37.948,33.547
			c-0.637,0.762-1.578,1.202-2.571,1.202l0,0C34.383,34.75,33.441,34.309,32.805,33.547L32.805,33.547z"/>
		<path fill="#F4F4F4" d="M24.344,39.877L24.344,39.877c0-1.758,1.425-3.182,3.182-3.182l0,0c1.757,0,3.182,1.424,3.182,3.182l0,0
			c0.001,1.259,0.501,2.369,1.325,3.197l0,0c0.828,0.823,1.938,1.323,3.197,1.324l0,0c1.258-0.001,2.368-0.501,3.197-1.324l0,0
			c0.823-0.828,1.323-1.939,1.325-3.197l0,0c0-1.758,1.425-3.182,3.182-3.182l0,0c1.757,0,3.182,1.424,3.182,3.182l0,0
			C46.113,45.89,41.243,50.76,35.23,50.762l0,0C29.217,50.76,24.346,45.89,24.344,39.877L24.344,39.877z"/>
	</g>
</g>
</svg>
