<?xml version="1.0" encoding="utf-8"?>
<!-- Generator: Adobe Illustrator 17.0.0, SVG Export Plug-In . SVG Version: 6.00 Build 0)  -->
<!DOCTYPE svg PUBLIC "-//W3C//DTD SVG 1.1//EN" "http://www.w3.org/Graphics/SVG/1.1/DTD/svg11.dtd">
<svg version="1.1" id="Layer_1" xmlns="http://www.w3.org/2000/svg" xmlns:xlink="http://www.w3.org/1999/xlink" x="0px" y="0px"
	 width="72px" height="72px" viewBox="0 0 72 72" enable-background="new 0 0 72 72" xml:space="preserve">
<linearGradient id="SVGID_1_" gradientUnits="userSpaceOnUse" x1="306.674" y1="-298.19" x2="306.674" y2="-346.634" gradientTransform="matrix(1 0 0 -1 -270 -287)">
	<stop  offset="0" style="stop-color:#262626"/>
	<stop  offset="1" style="stop-color:#000000"/>
</linearGradient>
<path fill="url(#SVGID_1_)" d="M12.452,35.378c0-6.688,2.369-12.392,7.109-17.111c4.741-4.718,10.456-7.077,17.146-7.077
	c6.689,0,12.393,2.359,17.111,7.077c4.718,4.719,7.078,10.422,7.078,17.111s-2.36,12.405-7.078,17.146
	c-4.718,4.739-10.422,7.11-17.111,7.11c-6.69,0-12.404-2.371-17.146-7.11C14.821,47.784,12.452,42.067,12.452,35.378z
	 M59.448,35.378c-1.905-4.17-4.833-7.585-8.777-10.248c-4.213-2.796-8.867-4.193-13.964-4.193s-9.775,1.398-14.03,4.193
	c-3.946,2.663-6.872,6.078-8.778,10.248c1.906,4.217,4.831,7.63,8.778,10.249c4.255,2.84,8.932,4.261,14.03,4.261
	c5.097,0,9.751-1.421,13.964-4.261C54.615,43.009,57.543,39.596,59.448,35.378z M23.805,35.393c0-3.541,1.26-6.561,3.784-9.063
	c2.523-2.5,5.555-3.752,9.095-3.752c3.541,0,6.56,1.252,9.062,3.752c2.5,2.502,3.752,5.522,3.752,9.063
	c0,3.538-1.252,6.573-3.752,9.094c-2.502,2.525-5.521,3.785-9.062,3.785c-3.54,0-6.572-1.26-9.095-3.785
	C25.065,41.966,23.805,38.932,23.805,35.393z"/>
</svg>
