<?xml version="1.0" encoding="utf-8"?>
<!-- Generator: Adobe Illustrator 17.0.0, SVG Export Plug-In . SVG Version: 6.00 Build 0)  -->
<!DOCTYPE svg PUBLIC "-//W3C//DTD SVG 1.1//EN" "http://www.w3.org/Graphics/SVG/1.1/DTD/svg11.dtd">
<svg version="1.1" id="Layer_1" xmlns="http://www.w3.org/2000/svg" xmlns:xlink="http://www.w3.org/1999/xlink" x="0px" y="0px"
	 width="72px" height="72px" viewBox="0 0 72 72" enable-background="new 0 0 72 72" xml:space="preserve">
<path fill="#004282" d="M61.251,35.154c0,13.596-11.023,24.613-24.62,24.613c-13.593,0-24.613-11.017-24.613-24.613
	c0-13.594,11.02-24.616,24.613-24.616C50.227,10.537,61.251,21.56,61.251,35.154z M13.397,35.793
	c5.06,10.516,17.64,16.305,29.251,13.297c7.721-2.004,14.073-7.272,17.353-14.33c-4.125-7.736-12.032-13.09-20.811-13.901
	C28.426,19.86,17.893,26.101,13.397,35.793z M36.63,22.207c-7.15,0-12.945,5.794-12.945,12.947c0,7.15,5.795,12.946,12.945,12.946
	s12.954-5.796,12.954-12.946C49.584,28.001,43.78,22.207,36.63,22.207z"/>
</svg>
