<?xml version="1.0" encoding="utf-8"?>
<!-- Generator: Adobe Illustrator 17.0.0, SVG Export Plug-In . SVG Version: 6.00 Build 0)  -->
<!DOCTYPE svg PUBLIC "-//W3C//DTD SVG 1.1//EN" "http://www.w3.org/Graphics/SVG/1.1/DTD/svg11.dtd">
<svg version="1.1" id="Layer_1" xmlns="http://www.w3.org/2000/svg" xmlns:xlink="http://www.w3.org/1999/xlink" x="0px" y="0px"
	 width="72px" height="72px" viewBox="0 0 72 72" enable-background="new 0 0 72 72" xml:space="preserve">
<g>
	<g>
		<path fill="#666766" d="M7.364,21.346l5.242,12.01l9.073,9.99l11.52,2.351l-0.057,1.655l-13.627,2.634v0.97l8.821-0.952
			l-2.958,1.667l0.014,0.906h1.461l7.562-1.874l9.215,1.539h1.479v-1.19l-4.143-1.559h6.175v-0.965l-11.47-1.13v-1.842l7.455-4.037
			l5.54-1.413c0,0,0.968,1.525,1.128,1.922c0.156,0.397,0.493,1.669,0.702,2.35c0.209,0.684,0.567,1.082,0.805,1.796
			c0.241,0.713,0.429,1.286,0.624,1.715c0.192,0.429,0.333,0.651,0.38,0.684c0.042,0.032,0.539,0,0.539,0v0.413
			c0,0-0.178,0.603-0.16,0.826c0.018,0.222,0.1,0.683,0.16,0.841c0.064,0.158,0.365,0.619,0.567,0.906
			c0.209,0.285,0.369,0.443,0.56,0.507s0.522,0.112,0.876,0.046c0.344-0.062,1.224-0.427,1.415-0.475
			c0.185-0.048,0.472-0.108,0.808-0.124c0.33-0.018,0.936-0.018,1.16,0.028c0.223,0.048,1.585,0.16,1.805,0.144
			c0.224-0.016,1.479-0.062,2.164-0.261c0.681-0.197,1.036-0.358,1.302-0.614c0.27-0.252,0.443-0.509,0.507-0.682
			c0.064-0.174,0.078-0.539,0.064-0.779c-0.018-0.238,0.032-0.19-0.114-0.429c-0.138-0.238-0.06-0.332-0.234-0.394
			c-0.174-0.065-0.142-0.131-0.383-0.016c-0.241,0.106-1.082,0.124-1.082,0.124s0.227-0.222,0.273-0.317
			c0.053-0.096,0.036-0.521,0.036-0.521s0.018-0.146-0.209-0.241c-0.227-0.094-0.781-0.094-0.972-0.016
			c-0.188,0.08-0.717,0.427-1.224,0.479c-0.507,0.046-0.663,0.046-1.014-0.016c-0.351-0.064-1.036-0.365-1.11-0.447
			c-0.081-0.078,0.571-0.905,0.571-0.905s0.394-0.653,0.394-0.73c0-0.082-0.06-0.287-0.06-0.287s-0.859-1.268-1-1.479
			c-0.146-0.206-1.398-2.953-1.398-2.953l-0.986-2.146c0,0-0.922-1.874-1.146-2.222c-0.22-0.349-0.872-1.35-1.156-1.906
			c-0.287-0.557-0.912-1.874-1.021-2.224c-0.11-0.351-0.284-1.064-0.695-1.369c-0.415-0.3-1.273-0.519-1.749-0.519
			c-0.475,0-4.721,0.571-7.484,1.156c-2.763,0.589-6.75,1.557-6.75,1.557s-0.443,0.143-0.621,0.049
			c-0.174-0.096-0.837-1.383-0.869-1.463c-0.039-0.08-0.099-0.364-0.099-0.364s0.653-0.145,0.699-0.255
			c0.049-0.11,0.095-1.256,0.095-1.256s4.689-0.935,4.767-0.935s0.192-0.016,0.192-0.016s0.092,0.096,0.301,0.239
			c0.206,0.14,0.159,0.298,0.716,0.298c0.554,0,0.855-0.19,1-0.254c0.142-0.062,0.49-0.028,0.568-0.08
			c0.081-0.046,0.273-0.092,0.479-0.092s0.273,0.046,0.323,0.046c0.042,0,0.294,0.014,0.294,0.014l0.192-0.127l0.177-0.316
			l0.653-0.046c0,0,0.362-0.254,0.394-0.397c0.028-0.146,0-0.381,0.145-0.415c0.142-0.032,2.777-0.429,2.777-0.429v-1.238
			l-4.274,0.635l-0.745-0.858c0,0-0.11-0.254-0.603-0.222s-0.621-0.014-0.621-0.014s-0.269-0.192-0.429-0.178
			c-0.16,0.018-0.16-0.08-0.621,0.16c-0.458,0.238-0.664,0.461-0.827,0.495c-0.153,0.03-2.837,0.172-2.837,0.172L26.493,26.73
			c0,0-1.621-0.795-2.004-0.954c-0.376-0.156-1.16-0.204-1.256-0.236c-0.092-0.033-1.029-0.541-1.206-0.684
			c-0.177-0.144-0.383-0.287-0.727-0.364c-0.351-0.08-0.894-0.271-1.163-0.271c-0.266,0-0.49,0.064-0.713-0.094
			c-0.223-0.16-0.415-0.351-0.443-0.447c-0.035-0.094-0.021-0.222-0.163-0.332c-0.138-0.111-0.762-0.653-0.84-0.701
			c-0.082-0.046-0.11-0.174-0.11-0.174l0.11-0.066c0,0,0.67,0.034,0.84,0c0.174-0.03,0.209-0.08,0.337-0.19
			c0.124-0.112,0.174-0.174,0.238-0.284c0.06-0.115,0.092-1.004,0.092-1.004s0-0.014,0.114-0.062
			c0.113-0.05,0.273-0.174,0.273-0.225c0-0.044,0.078-0.317,0.078-0.378c0-0.066-0.096-0.048,0-0.066
			c0.096-0.016,0.124-0.048,0.124-0.19c0-0.144,0.021-0.176-0.064-0.238c-0.078-0.062-0.032,0.128-0.078-0.062
			c-0.046-0.194-0.092-0.289-0.014-0.335c0.078-0.048,0.032,0,0.206-0.112c0.177-0.112,0.206-0.03,0.284-0.19
			c0.078-0.162,0.078-0.21,0.064-0.287c-0.018-0.078-0.397-0.587-0.521-0.779c-0.128-0.188-0.195-0.254-0.238-0.399
			c-0.05-0.14-0.142-0.11-0.142-0.25c0-0.145,0.06-0.367,0.092-0.527c0.032-0.158,0.078-0.285,0.092-0.429
			c0.018-0.14-0.014-0.333-0.078-0.507c-0.06-0.176-0.106-0.365-0.192-0.523c-0.074-0.159-0.17-0.207-0.17-0.383
			c0-0.172,0-0.19,0.096-0.381c0.092-0.19,0.568-1.462,0.568-1.462s0.127-0.172,0.053-0.238c-0.081-0.064-0.241-0.08-0.241-0.08
			l-0.844-0.046c0,0-0.142,0.032-0.298-0.051c-0.163-0.078-0.546-0.316-0.67-0.316c-0.128,0-1.206-0.016-1.508-0.016
			c-0.305,0-0.78,0.08-1.067,0.112c-0.284,0.032-1.128,0.032-1.412,0.112c-0.287,0.078-0.876,0.094-1.475,0.651
			c-0.603,0.557-1.447,1.509-1.465,2.717c-0.015,1.206,0.255,1.922,0.511,2.479c0.255,0.555,0.89,1.476,1.078,1.573
			c0.191,0.094,0.337,0.094,0.337,0.094l-0.049,1.046l-0.365,0.034l-0.014,1.35c0,0-0.21,0.127-0.475,0.493
			c-0.273,0.364-0.575,0.95-0.575,0.95s-0.159-0.571-1.316-1.364C9.017,21.854,7.364,21.346,7.364,21.346z"/>
		<path fill="none" stroke="#FFFFFF" stroke-width="4" stroke-miterlimit="10" d="M7.364,21.346l5.242,12.01l9.073,9.99l11.52,2.351
			l-0.057,1.655l-13.627,2.634v0.97l8.821-0.952l-2.958,1.667l0.014,0.906h1.461l7.562-1.874l9.215,1.539h1.479v-1.19l-4.143-1.559
			h6.175v-0.965l-11.47-1.13v-1.842l7.455-4.037l5.54-1.413c0,0,0.968,1.525,1.128,1.922c0.156,0.397,0.493,1.669,0.702,2.35
			c0.209,0.684,0.567,1.082,0.805,1.796c0.241,0.713,0.429,1.286,0.624,1.715c0.192,0.429,0.333,0.651,0.38,0.684
			c0.042,0.032,0.539,0,0.539,0v0.413c0,0-0.178,0.603-0.16,0.826c0.018,0.222,0.1,0.683,0.16,0.841
			c0.064,0.158,0.365,0.619,0.567,0.906c0.209,0.285,0.369,0.443,0.56,0.507s0.522,0.112,0.876,0.046
			c0.344-0.062,1.224-0.427,1.415-0.475c0.185-0.048,0.472-0.108,0.808-0.124c0.33-0.018,0.936-0.018,1.16,0.028
			c0.223,0.048,1.585,0.16,1.805,0.144c0.224-0.016,1.479-0.062,2.164-0.261c0.681-0.197,1.036-0.358,1.302-0.614
			c0.27-0.252,0.443-0.509,0.507-0.682c0.064-0.174,0.078-0.539,0.064-0.779c-0.018-0.238,0.032-0.19-0.114-0.429
			c-0.138-0.238-0.06-0.332-0.234-0.394c-0.174-0.065-0.142-0.131-0.383-0.016c-0.241,0.106-1.082,0.124-1.082,0.124
			s0.227-0.222,0.273-0.317c0.053-0.096,0.036-0.521,0.036-0.521s0.018-0.146-0.209-0.241c-0.227-0.094-0.781-0.094-0.972-0.016
			c-0.188,0.08-0.717,0.427-1.224,0.479c-0.507,0.046-0.663,0.046-1.014-0.016c-0.351-0.064-1.036-0.365-1.11-0.447
			c-0.081-0.078,0.571-0.905,0.571-0.905s0.394-0.653,0.394-0.73c0-0.082-0.06-0.287-0.06-0.287s-0.859-1.268-1-1.479
			c-0.146-0.206-1.398-2.953-1.398-2.953l-0.986-2.146c0,0-0.922-1.874-1.146-2.222c-0.22-0.349-0.872-1.35-1.156-1.906
			c-0.287-0.557-0.912-1.874-1.021-2.224c-0.11-0.351-0.284-1.064-0.695-1.369c-0.415-0.3-1.273-0.519-1.749-0.519
			c-0.475,0-4.721,0.571-7.484,1.156c-2.763,0.589-6.75,1.557-6.75,1.557s-0.443,0.143-0.621,0.049
			c-0.174-0.096-0.837-1.383-0.869-1.463c-0.039-0.08-0.099-0.364-0.099-0.364s0.653-0.145,0.699-0.255
			c0.049-0.11,0.095-1.256,0.095-1.256s4.689-0.935,4.767-0.935s0.192-0.016,0.192-0.016s0.092,0.096,0.301,0.239
			c0.206,0.14,0.159,0.298,0.716,0.298c0.554,0,0.855-0.19,1-0.254c0.142-0.062,0.49-0.028,0.568-0.08
			c0.081-0.046,0.273-0.092,0.479-0.092s0.273,0.046,0.323,0.046c0.042,0,0.294,0.014,0.294,0.014l0.192-0.127l0.177-0.316
			l0.653-0.046c0,0,0.362-0.254,0.394-0.397c0.028-0.146,0-0.381,0.145-0.415c0.142-0.032,2.777-0.429,2.777-0.429v-1.238
			l-4.274,0.635l-0.745-0.858c0,0-0.11-0.254-0.603-0.222s-0.621-0.014-0.621-0.014s-0.269-0.192-0.429-0.178
			c-0.16,0.018-0.16-0.08-0.621,0.16c-0.458,0.238-0.664,0.461-0.827,0.495c-0.153,0.03-2.837,0.172-2.837,0.172L26.493,26.73
			c0,0-1.621-0.795-2.004-0.954c-0.376-0.156-1.16-0.204-1.256-0.236c-0.092-0.033-1.029-0.541-1.206-0.684
			c-0.177-0.144-0.383-0.287-0.727-0.364c-0.351-0.08-0.894-0.271-1.163-0.271c-0.266,0-0.49,0.064-0.713-0.094
			c-0.223-0.16-0.415-0.351-0.443-0.447c-0.035-0.094-0.021-0.222-0.163-0.332c-0.138-0.111-0.762-0.653-0.84-0.701
			c-0.082-0.046-0.11-0.174-0.11-0.174l0.11-0.066c0,0,0.67,0.034,0.84,0c0.174-0.03,0.209-0.08,0.337-0.19
			c0.124-0.112,0.174-0.174,0.238-0.284c0.06-0.115,0.092-1.004,0.092-1.004s0-0.014,0.114-0.062
			c0.113-0.05,0.273-0.174,0.273-0.225c0-0.044,0.078-0.317,0.078-0.378c0-0.066-0.096-0.048,0-0.066
			c0.096-0.016,0.124-0.048,0.124-0.19c0-0.144,0.021-0.176-0.064-0.238c-0.078-0.062-0.032,0.128-0.078-0.062
			c-0.046-0.194-0.092-0.289-0.014-0.335c0.078-0.048,0.032,0,0.206-0.112c0.177-0.112,0.206-0.03,0.284-0.19
			c0.078-0.162,0.078-0.21,0.064-0.287c-0.018-0.078-0.397-0.587-0.521-0.779c-0.128-0.188-0.195-0.254-0.238-0.399
			c-0.05-0.14-0.142-0.11-0.142-0.25c0-0.145,0.06-0.367,0.092-0.527c0.032-0.158,0.078-0.285,0.092-0.429
			c0.018-0.14-0.014-0.333-0.078-0.507c-0.06-0.176-0.106-0.365-0.192-0.523c-0.074-0.159-0.17-0.207-0.17-0.383
			c0-0.172,0-0.19,0.096-0.381c0.092-0.19,0.568-1.462,0.568-1.462s0.127-0.172,0.053-0.238c-0.081-0.064-0.241-0.08-0.241-0.08
			l-0.844-0.046c0,0-0.142,0.032-0.298-0.051c-0.163-0.078-0.546-0.316-0.67-0.316c-0.128,0-1.206-0.016-1.508-0.016
			c-0.305,0-0.78,0.08-1.067,0.112c-0.284,0.032-1.128,0.032-1.412,0.112c-0.287,0.078-0.876,0.094-1.475,0.651
			c-0.603,0.557-1.447,1.509-1.465,2.717c-0.015,1.206,0.255,1.922,0.511,2.479c0.255,0.555,0.89,1.476,1.078,1.573
			c0.191,0.094,0.337,0.094,0.337,0.094l-0.049,1.046l-0.365,0.034l-0.014,1.35c0,0-0.21,0.127-0.475,0.493
			c-0.273,0.364-0.575,0.95-0.575,0.95s-0.159-0.571-1.316-1.364C9.017,21.854,7.364,21.346,7.364,21.346z"/>
	</g>
	<path fill="#666766" d="M7.364,21.346l5.242,12.01l9.073,9.99l11.52,2.351l-0.057,1.655l-13.627,2.634v0.97l8.821-0.952
		l-2.958,1.667l0.014,0.906h1.461l7.562-1.874l9.215,1.539h1.479v-1.19l-4.143-1.559h6.175v-0.965l-11.47-1.13v-1.842l7.455-4.037
		l5.54-1.413c0,0,0.968,1.525,1.128,1.922c0.156,0.397,0.493,1.669,0.702,2.35c0.209,0.684,0.567,1.082,0.805,1.796
		c0.241,0.713,0.429,1.286,0.624,1.715c0.192,0.429,0.333,0.651,0.38,0.684c0.042,0.032,0.539,0,0.539,0v0.413
		c0,0-0.178,0.603-0.16,0.826c0.018,0.222,0.1,0.683,0.16,0.841c0.064,0.158,0.365,0.619,0.567,0.906
		c0.209,0.285,0.369,0.443,0.56,0.507s0.522,0.112,0.876,0.046c0.344-0.062,1.224-0.427,1.415-0.475
		c0.185-0.048,0.472-0.108,0.808-0.124c0.33-0.018,0.936-0.018,1.16,0.028c0.223,0.048,1.585,0.16,1.805,0.144
		c0.224-0.016,1.479-0.062,2.164-0.261c0.681-0.197,1.036-0.358,1.302-0.614c0.27-0.252,0.443-0.509,0.507-0.682
		c0.064-0.174,0.078-0.539,0.064-0.779c-0.018-0.238,0.032-0.19-0.114-0.429c-0.138-0.238-0.06-0.332-0.234-0.394
		c-0.174-0.065-0.142-0.131-0.383-0.016c-0.241,0.106-1.082,0.124-1.082,0.124s0.227-0.222,0.273-0.317
		c0.053-0.096,0.036-0.521,0.036-0.521s0.018-0.146-0.209-0.241c-0.227-0.094-0.781-0.094-0.972-0.016
		c-0.188,0.08-0.717,0.427-1.224,0.479c-0.507,0.046-0.663,0.046-1.014-0.016c-0.351-0.064-1.036-0.365-1.11-0.447
		c-0.081-0.078,0.571-0.905,0.571-0.905s0.394-0.653,0.394-0.73c0-0.082-0.06-0.287-0.06-0.287s-0.859-1.268-1-1.479
		c-0.146-0.206-1.398-2.953-1.398-2.953l-0.986-2.146c0,0-0.922-1.874-1.146-2.222c-0.22-0.349-0.872-1.35-1.156-1.906
		c-0.287-0.557-0.912-1.874-1.021-2.224c-0.11-0.351-0.284-1.064-0.695-1.369c-0.415-0.3-1.273-0.519-1.749-0.519
		c-0.475,0-4.721,0.571-7.484,1.156c-2.763,0.589-6.75,1.557-6.75,1.557s-0.443,0.143-0.621,0.049
		c-0.174-0.096-0.837-1.383-0.869-1.463c-0.039-0.08-0.099-0.364-0.099-0.364s0.653-0.145,0.699-0.255
		c0.049-0.11,0.095-1.256,0.095-1.256s4.689-0.935,4.767-0.935s0.192-0.016,0.192-0.016s0.092,0.096,0.301,0.239
		c0.206,0.14,0.159,0.298,0.716,0.298c0.554,0,0.855-0.19,1-0.254c0.142-0.062,0.49-0.028,0.568-0.08
		c0.081-0.046,0.273-0.092,0.479-0.092s0.273,0.046,0.323,0.046c0.042,0,0.294,0.014,0.294,0.014l0.192-0.127l0.177-0.316
		l0.653-0.046c0,0,0.362-0.254,0.394-0.397c0.028-0.146,0-0.381,0.145-0.415c0.142-0.032,2.777-0.429,2.777-0.429v-1.238
		l-4.274,0.635l-0.745-0.858c0,0-0.11-0.254-0.603-0.222s-0.621-0.014-0.621-0.014s-0.269-0.192-0.429-0.178
		c-0.16,0.018-0.16-0.08-0.621,0.16c-0.458,0.238-0.664,0.461-0.827,0.495c-0.153,0.03-2.837,0.172-2.837,0.172L26.493,26.73
		c0,0-1.621-0.795-2.004-0.954c-0.376-0.156-1.16-0.204-1.256-0.236c-0.092-0.033-1.029-0.541-1.206-0.684
		c-0.177-0.144-0.383-0.287-0.727-0.364c-0.351-0.08-0.894-0.271-1.163-0.271c-0.266,0-0.49,0.064-0.713-0.094
		c-0.223-0.16-0.415-0.351-0.443-0.447c-0.035-0.094-0.021-0.222-0.163-0.332c-0.138-0.111-0.762-0.653-0.84-0.701
		c-0.082-0.046-0.11-0.174-0.11-0.174l0.11-0.066c0,0,0.67,0.034,0.84,0c0.174-0.03,0.209-0.08,0.337-0.19
		c0.124-0.112,0.174-0.174,0.238-0.284c0.06-0.115,0.092-1.004,0.092-1.004s0-0.014,0.114-0.062c0.113-0.05,0.273-0.174,0.273-0.225
		c0-0.044,0.078-0.317,0.078-0.378c0-0.066-0.096-0.048,0-0.066c0.096-0.016,0.124-0.048,0.124-0.19
		c0-0.144,0.021-0.176-0.064-0.238c-0.078-0.062-0.032,0.128-0.078-0.062c-0.046-0.194-0.092-0.289-0.014-0.335
		c0.078-0.048,0.032,0,0.206-0.112c0.177-0.112,0.206-0.03,0.284-0.19c0.078-0.162,0.078-0.21,0.064-0.287
		c-0.018-0.078-0.397-0.587-0.521-0.779c-0.128-0.188-0.195-0.254-0.238-0.399c-0.05-0.14-0.142-0.11-0.142-0.25
		c0-0.145,0.06-0.367,0.092-0.527c0.032-0.158,0.078-0.285,0.092-0.429c0.018-0.14-0.014-0.333-0.078-0.507
		c-0.06-0.176-0.106-0.365-0.192-0.523c-0.074-0.159-0.17-0.207-0.17-0.383c0-0.172,0-0.19,0.096-0.381
		c0.092-0.19,0.568-1.462,0.568-1.462s0.127-0.172,0.053-0.238c-0.081-0.064-0.241-0.08-0.241-0.08l-0.844-0.046
		c0,0-0.142,0.032-0.298-0.051c-0.163-0.078-0.546-0.316-0.67-0.316c-0.128,0-1.206-0.016-1.508-0.016
		c-0.305,0-0.78,0.08-1.067,0.112c-0.284,0.032-1.128,0.032-1.412,0.112c-0.287,0.078-0.876,0.094-1.475,0.651
		c-0.603,0.557-1.447,1.509-1.465,2.717c-0.015,1.206,0.255,1.922,0.511,2.479c0.255,0.555,0.89,1.476,1.078,1.573
		c0.191,0.094,0.337,0.094,0.337,0.094l-0.049,1.046l-0.365,0.034l-0.014,1.35c0,0-0.21,0.127-0.475,0.493
		c-0.273,0.364-0.575,0.95-0.575,0.95s-0.159-0.571-1.316-1.364C9.017,21.854,7.364,21.346,7.364,21.346z"/>
</g>
</svg>
