<?xml version="1.0" encoding="utf-8"?>
<!-- Generator: Adobe Illustrator 17.0.0, SVG Export Plug-In . SVG Version: 6.00 Build 0)  -->
<!DOCTYPE svg PUBLIC "-//W3C//DTD SVG 1.1//EN" "http://www.w3.org/Graphics/SVG/1.1/DTD/svg11.dtd">
<svg version="1.1" id="Layer_1" xmlns="http://www.w3.org/2000/svg" xmlns:xlink="http://www.w3.org/1999/xlink" x="0px" y="0px"
	 width="72px" height="72px" viewBox="0 0 72 72" enable-background="new 0 0 72 72" xml:space="preserve">
<path d="M7.48,40.252c0-4.36,0-8.719,0-13.079c2.076,0,4.152,0,6.228,0c0.953,0.955,1.907,1.909,2.858,2.866
	c0.072,0.072,0.149,0.074,0.236,0.074c4.342,0,8.684,0,13.026-0.001c0.056,0,0.112-0.005,0.176-0.008
	c0.004-0.063,0.009-0.114,0.009-0.164c0.001-0.882,0-1.764,0-2.647c0-0.04-0.006-0.08-0.009-0.12c3.702,0,7.404,0,11.107,0
	c-0.001,0.94-0.002,1.879-0.002,2.819c0,0.037,0.013,0.075,0.022,0.125c0.97,0,1.931,0,2.913,0c0,0.534,0,1.054,0,1.613
	c0.075-0.069,0.122-0.109,0.165-0.152c0.441-0.44,0.884-0.877,1.319-1.323c0.1-0.103,0.199-0.147,0.345-0.146
	c0.969,0.007,1.937,0.002,2.906,0.006c0.113,0,0.196-0.03,0.272-0.113c0.129-0.14,0.268-0.27,0.402-0.405
	c0.806-0.808,1.613-1.616,2.419-2.424c2.064,0,4.129,0,6.193,0c0,0.973,0,1.945,0,2.94c0.09,0,0.157,0,0.225,0
	c1.073,0,2.145,0.001,3.218-0.002c0.105,0,0.182,0.025,0.259,0.102c0.898,0.904,1.799,1.805,2.703,2.704
	c0.076,0.075,0.109,0.15,0.108,0.257c-0.005,0.427-0.002,0.853-0.002,1.28c0,2.739,0,5.478,0.001,8.217
	c0,0.108-0.01,0.189-0.118,0.26c-1.552,1.028-3.1,2.062-4.649,3.096c-0.075,0.05-0.151,0.072-0.241,0.072
	c-0.992-0.002-1.984-0.001-2.975-0.002c-0.044,0-0.089-0.005-0.15-0.009c0-0.274,0.001-0.538,0-0.802
	c-0.002-0.261,0.008-0.523-0.008-0.811c-0.078,0.053-0.13,0.087-0.181,0.123c-0.662,0.472-1.324,0.944-1.983,1.418
	c-0.079,0.057-0.157,0.083-0.254,0.082c-0.876-0.003-1.753-0.002-2.629-0.002c-0.05,0-0.1-0.006-0.166-0.01c0-0.269,0-0.527,0-0.785
	c-0.001-0.261,0.003-0.523-0.019-0.789c-0.063,0.037-0.108,0.08-0.152,0.123c-0.449,0.448-0.899,0.896-1.344,1.347
	c-0.078,0.079-0.155,0.117-0.27,0.117c-1.638-0.004-3.275-0.004-4.913-0.001c-0.107,0-0.182-0.029-0.257-0.105
	c-0.457-0.464-0.92-0.923-1.381-1.384c-0.04-0.04-0.083-0.077-0.147-0.136c-0.112,0.552-0.219,1.08-0.329,1.623
	c-0.062,0-0.119,0-0.175,0c-1.413,0-2.825-0.001-4.238,0.002c-0.105,0-0.183-0.028-0.262-0.098c-0.527-0.466-1.058-0.927-1.588-1.39
	c-0.045-0.039-0.092-0.076-0.168-0.138c-0.038,0.566-0.073,1.091-0.108,1.613c-0.408,0.035-5.039,0.019-5.17-0.017
	c-0.073-0.518-0.109-1.043-0.191-1.592c-0.063,0.07-0.101,0.111-0.138,0.154c-0.384,0.446-0.77,0.89-1.148,1.34
	c-0.078,0.093-0.157,0.128-0.278,0.128c-2.531-0.003-5.063-0.002-7.594-0.005c-0.089,0-0.184-0.018-0.267-0.051
	c-0.44-0.171-0.877-0.35-1.316-0.525c-0.056-0.022-0.114-0.039-0.195-0.067c0,0.228,0,0.427,0,0.644c-0.079,0-0.141,0-0.203,0
	c-1.286,0-2.572-0.001-3.858,0.002c-0.12,0-0.221-0.027-0.324-0.089c-1.466-0.883-2.933-1.765-4.403-2.641
	c-0.235-0.14-0.444-0.303-0.637-0.497c-0.832-0.84-1.669-1.674-2.507-2.508C7.597,40.318,7.535,40.288,7.48,40.252z M16.649,41.86
	c0.071,0,0.122,0,0.174,0c3.586,0,7.172,0,10.759,0.002c0.113,0,0.193-0.034,0.272-0.114c0.678-0.683,1.359-1.365,2.043-2.042
	c0.089-0.088,0.126-0.176,0.125-0.302c-0.003-2.595-0.003-5.189-0.003-7.784c0-0.062,0-0.125,0-0.183
	c-0.176-0.041-3.451-0.038-3.601,0.004c0,0.45,0,0.904,0,1.359c0,0.455,0,0.911,0,1.366c0,0.45,0,0.899,0,1.349
	c0,0.455,0,0.911,0,1.366c0,0.453,0.002,0.906-0.002,1.354c-0.245,0.041-1.153,0.03-1.288-0.015c0-2.26,0-4.524,0-6.8
	c-1.204,0-2.394,0-3.604,0c0,2.279,0,4.548,0,6.837c-0.436,0.002-0.853,0.003-1.292-0.001c0-2.291,0-4.559,0-6.838
	c-1.207,0-2.391,0-3.585,0C16.649,34.899,16.649,38.367,16.649,41.86z M63.288,41.849c0.003-0.067,0.007-0.118,0.007-0.169
	c0-2.612,0-5.224,0.003-7.836c0-0.108-0.033-0.181-0.108-0.256c-0.687-0.682-1.373-1.367-2.054-2.056
	c-0.089-0.09-0.177-0.125-0.303-0.125c-1.274,0.004-2.549,0.003-3.823,0.002c-0.073,0-0.146-0.006-0.237-0.01
	c0-0.338,0-0.659,0-0.981c0-0.323,0.001-0.646,0-0.969c-0.001-0.32,0.005-0.64-0.004-0.962c-1.21,0-2.395,0-3.577,0
	c-0.034,0.222-0.025,13.229,0.009,13.361c1.183,0,2.368,0,3.574,0c0-2.281,0-4.55,0-6.828c0.982,0,1.942,0,2.922,0
	c0,2.279,0,4.548,0,6.829C60.899,41.849,62.084,41.849,63.288,41.849z M8.801,28.485c0,0.071,0,0.133,0,0.195
	c0,3.574,0,7.148-0.002,10.722c0,0.119,0.034,0.204,0.118,0.288c0.688,0.682,1.373,1.367,2.054,2.054
	c0.084,0.085,0.17,0.118,0.288,0.118c1.291-0.004,2.583-0.002,3.874-0.002c0.062,0,0.123,0,0.181,0
	c0.04-0.198,0.033-3.458-0.008-3.6c-0.317,0-0.639,0-0.961,0c-0.323,0-0.646,0.003-0.968-0.001c-0.32-0.003-0.641,0.015-0.967-0.012
	c0-1.083,0-2.147,0-3.229c0.074-0.003,0.141-0.009,0.208-0.009c0.836-0.001,1.672,0,2.508-0.001c0.067,0,0.134-0.006,0.203-0.009
	c0-1.203,0-2.387,0-3.593c-0.976,0-1.942,0-2.929,0c0-0.986,0-1.951,0-2.921C11.193,28.485,10.008,28.485,8.801,28.485z
	 M39.817,38.26c0-1.09,0-2.159,0-3.25c0.075,0,0.143,0,0.211,0c0.836,0,1.672,0,2.508,0c0.066,0,0.132-0.006,0.194-0.01
	c0.034-0.321,0.021-3.448-0.017-3.59c-0.317,0-0.639,0-0.961,0c-0.323,0-0.646,0.001-0.968,0c-0.32-0.001-0.641,0.005-0.977-0.004
	c0-0.266,0-0.507,0-0.748c0-0.242,0-0.484,0-0.726c0-0.242,0-0.484,0-0.726c-0.001-0.24-0.002-0.479-0.003-0.717
	c-1.209,0-2.394,0-3.598,0c0,0.074,0,0.136,0,0.198c0,3.568,0.001,7.137-0.002,10.705c0,0.124,0.032,0.214,0.122,0.304
	c0.684,0.677,1.365,1.358,2.042,2.042c0.088,0.089,0.176,0.127,0.302,0.126c1.291-0.004,2.583-0.003,3.874-0.003
	c0.061,0,0.123-0.006,0.192-0.009c0-1.2,0-2.385,0-3.591C41.759,38.26,40.794,38.26,39.817,38.26z M47.648,35.01
	c0.082,0,0.155,0,0.228,0c1.257,0,2.514,0,3.77,0c0.073,0,0.145-0.006,0.221-0.009c0-1.203,0-2.387,0-3.581
	c-0.061-0.004-0.112-0.01-0.163-0.01c-1.747,0-3.494,0-5.24-0.002c-0.1,0-0.172,0.031-0.242,0.102
	c-0.691,0.695-1.383,1.389-2.079,2.079c-0.076,0.075-0.107,0.151-0.107,0.258c0.003,1.862,0.003,3.724,0,5.586
	c0,0.1,0.028,0.172,0.099,0.243c0.695,0.691,1.388,1.384,2.079,2.079c0.075,0.075,0.15,0.108,0.257,0.108
	c1.741-0.003,3.482-0.002,5.223-0.003c0.056,0,0.111-0.007,0.174-0.011c0-1.198,0-2.383,0-3.589c-0.083,0-0.156,0-0.23,0
	c-1.257,0-2.514,0-3.77,0c-0.072,0-0.144-0.007-0.22-0.011C47.648,37.163,47.648,36.099,47.648,35.01z M31.328,31.421
	c0,3.485,0,6.953,0,10.428c1.197,0,2.382,0,3.577,0c0-3.48,0-6.948,0-10.428C33.712,31.421,32.527,31.421,31.328,31.421z
	 M34.905,28.498c-0.195-0.038-3.451-0.03-3.575,0.007c-0.03,0.253-0.02,1.474,0.014,1.6c1.184,0,2.368,0,3.561,0
	C34.905,29.561,34.905,29.028,34.905,28.498z"/>
<path fill="#FFFFFF" d="M16.649,41.86c0-3.493,0-6.962,0-10.44c1.194,0,2.378,0,3.585,0c0,2.278,0,4.546,0,6.838
	c0.439,0.004,0.856,0.003,1.292,0.001c0-2.289,0-4.557,0-6.837c1.209,0,2.4,0,3.604,0c0,2.276,0,4.541,0,6.8
	c0.135,0.046,1.043,0.057,1.288,0.015c0.004-0.448,0.001-0.901,0.002-1.354c0-0.455,0-0.911,0-1.366c0-0.45,0-0.899,0-1.349
	c0-0.455,0-0.911,0-1.366c0-0.454,0-0.909,0-1.359c0.149-0.042,3.425-0.045,3.601-0.004c0,0.058,0,0.12,0,0.183
	c0,2.595-0.001,5.189,0.003,7.784c0,0.126-0.036,0.214-0.125,0.302c-0.684,0.677-1.365,1.359-2.043,2.042
	c-0.079,0.08-0.159,0.114-0.272,0.114c-3.586-0.003-7.172-0.002-10.759-0.002C16.771,41.86,16.719,41.86,16.649,41.86z"/>
<path fill="#FFFFFF" d="M63.288,41.849c-1.204,0-2.389,0-3.593,0c0-2.28,0-4.549,0-6.829c-0.979,0-1.94,0-2.922,0
	c0,2.279,0,4.548,0,6.828c-1.206,0-2.391,0-3.574,0c-0.034-0.132-0.043-13.138-0.009-13.361c1.183,0,2.367,0,3.577,0
	c0.01,0.321,0.003,0.642,0.004,0.962c0.001,0.323,0,0.646,0,0.969c0,0.322,0,0.643,0,0.981c0.091,0.004,0.164,0.01,0.237,0.01
	c1.274,0.001,2.549,0.002,3.823-0.002c0.125,0,0.214,0.035,0.303,0.125c0.681,0.689,1.367,1.373,2.054,2.056
	c0.075,0.075,0.108,0.148,0.108,0.256c-0.003,2.612-0.002,5.224-0.003,7.836C63.295,41.731,63.291,41.782,63.288,41.849z"/>
<path fill="#FFFFFF" d="M8.801,28.485c1.207,0,2.392,0,3.599,0c0,0.97,0,1.935,0,2.921c0.987,0,1.953,0,2.929,0
	c0,1.206,0,2.391,0,3.593c-0.069,0.003-0.136,0.009-0.203,0.009c-0.836,0.001-1.672,0-2.508,0.001c-0.067,0-0.135,0.005-0.208,0.009
	c0,1.082,0,2.146,0,3.229c0.327,0.027,0.647,0.008,0.967,0.012c0.323,0.003,0.646,0.001,0.968,0.001c0.322,0,0.644,0,0.961,0
	c0.041,0.142,0.048,3.402,0.008,3.6c-0.057,0-0.119,0-0.181,0c-1.291,0-2.583-0.001-3.874,0.002c-0.118,0-0.204-0.033-0.288-0.118
	c-0.682-0.688-1.367-1.373-2.054-2.054c-0.084-0.084-0.119-0.169-0.118-0.288c0.003-3.574,0.002-7.148,0.002-10.722
	C8.801,28.619,8.801,28.557,8.801,28.485z"/>
<path fill="#FFFFFF" d="M39.817,38.26c0.977,0,1.943,0,2.918,0c0,1.206,0,2.391,0,3.591c-0.069,0.003-0.13,0.009-0.192,0.009
	c-1.291,0.001-2.583-0.001-3.874,0.003c-0.126,0-0.214-0.037-0.302-0.126c-0.677-0.684-1.358-1.365-2.042-2.042
	c-0.09-0.089-0.122-0.179-0.122-0.304c0.003-3.568,0.002-7.137,0.002-10.705c0-0.062,0-0.124,0-0.198c1.204,0,2.389,0,3.598,0
	c0.001,0.238,0.003,0.478,0.003,0.717c0.001,0.242,0,0.484,0,0.726c0,0.242,0,0.484,0,0.726c0,0.241,0,0.482,0,0.748
	c0.336,0.008,0.657,0.003,0.977,0.004c0.323,0.001,0.646,0,0.968,0c0.322,0,0.644,0,0.961,0c0.038,0.142,0.051,3.269,0.017,3.59
	c-0.062,0.003-0.128,0.01-0.194,0.01c-0.836,0.001-1.672,0-2.508,0c-0.068,0-0.135,0-0.211,0
	C39.817,36.101,39.817,37.17,39.817,38.26z"/>
<path fill="#FFFFFF" d="M47.648,35.01c0,1.089,0,2.154,0,3.239c0.076,0.004,0.148,0.011,0.22,0.011c1.257,0.001,2.514,0,3.77,0
	c0.074,0,0.147,0,0.23,0c0,1.206,0,2.391,0,3.589c-0.063,0.004-0.118,0.011-0.174,0.011c-1.741,0.001-3.482,0-5.223,0.003
	c-0.107,0-0.182-0.033-0.257-0.108c-0.691-0.695-1.384-1.388-2.079-2.079c-0.071-0.071-0.1-0.143-0.099-0.243
	c0.002-1.862,0.003-3.724,0-5.586c0-0.106,0.031-0.182,0.107-0.258c0.696-0.69,1.388-1.384,2.079-2.079
	c0.07-0.071,0.142-0.102,0.242-0.102c1.747,0.002,3.494,0.002,5.24,0.002c0.051,0,0.102,0.006,0.163,0.01c0,1.194,0,2.378,0,3.581
	c-0.076,0.003-0.148,0.009-0.221,0.009c-1.257,0.001-2.514,0-3.77,0C47.803,35.01,47.73,35.01,47.648,35.01z"/>
<path fill="#FFFFFF" d="M31.328,31.421c1.199,0,2.385,0,3.577,0c0,3.48,0,6.948,0,10.428c-1.195,0-2.38,0-3.577,0
	C31.328,38.374,31.328,34.906,31.328,31.421z"/>
<path fill="#FFFFFF" d="M34.905,28.498c0,0.53,0,1.063,0,1.606c-1.193,0-2.377,0-3.561,0c-0.034-0.126-0.045-1.347-0.014-1.6
	C31.453,28.468,34.71,28.46,34.905,28.498z"/>
</svg>
