<?xml version="1.0" encoding="utf-8"?>
<!-- Generator: Adobe Illustrator 17.0.0, SVG Export Plug-In . SVG Version: 6.00 Build 0)  -->
<!DOCTYPE svg PUBLIC "-//W3C//DTD SVG 1.1//EN" "http://www.w3.org/Graphics/SVG/1.1/DTD/svg11.dtd">
<svg version="1.1" id="Layer_1" xmlns="http://www.w3.org/2000/svg" xmlns:xlink="http://www.w3.org/1999/xlink" x="0px" y="0px"
	 width="72px" height="72px" viewBox="0 0 72 72" enable-background="new 0 0 72 72" xml:space="preserve">
<g>
	<circle fill="#E41F00" cx="36.789" cy="34.584" r="26.895"/>
</g>
<circle id="Fill_1_" fill="#FFD400" cx="36.788" cy="34.584" r="23.399"/>
<path d="M47.252,44.918C46.639,44.49,45.826,44.3,44.93,44.3c-0.699,0-2.481,0.285-5.256,0.86c-1.461,0.314-2.585,0.412-3.387,0.412
	c-3.207,0-5.915-1.055-8.248-3.187c-2.224-2.154-3.397-4.745-3.397-7.784c0-3.108,1.098-5.715,3.384-7.796
	c2.346-2.157,5.304-3.209,8.906-3.209c2.359,0,4.225,0.162,5.769,0.551c0.238,0.047,1.413,0.429,3.496,1.19l-0.852,3.256
	c-1.04-0.427-1.818-0.672-2.384-0.789c-1.085-0.307-2.223-0.452-3.397-0.452c-2.346,0-4.179,0.745-5.566,2.227
	c-1.28,1.362-1.876,3.066-1.876,5.052c0,1.96,0.572,3.563,1.745,4.882c1.188,1.334,2.587,1.916,4.202,1.916
	c0.623,0,1.175-0.098,1.604-0.484c0.395-0.356,0.658-0.865,0.658-1.531v-4.452h6.92V44.918z"/>
</svg>
