<?xml version="1.0" encoding="utf-8"?>
<!-- Generator: Adobe Illustrator 17.0.0, SVG Export Plug-In . SVG Version: 6.00 Build 0)  -->
<!DOCTYPE svg PUBLIC "-//W3C//DTD SVG 1.1//EN" "http://www.w3.org/Graphics/SVG/1.1/DTD/svg11.dtd">
<svg version="1.1" id="Layer_1" xmlns="http://www.w3.org/2000/svg" xmlns:xlink="http://www.w3.org/1999/xlink" x="0px" y="0px"
	 width="72px" height="72px" viewBox="0 0 72 72" enable-background="new 0 0 72 72" xml:space="preserve">
<g>
	<path fill="#292929" d="M36.718,19.063V50.92h-2.593V34.763c0-4.187,0.227-11.195,0.183-11.195h-0.046
		c-0.047,0-1.411,2.458-2.731,4.824l-8.464,14.7h-1.411l-8.465-14.7c-1.32-2.367-2.685-4.824-2.729-4.824h-0.047
		c-0.046,0,0.182,7.008,0.182,11.195V50.92H8.002V19.063h2.46l8.417,14.517c2.868,4.868,3.415,6.28,3.459,6.28h0.046
		c0.047,0,0.593-1.412,3.459-6.28l8.42-14.517H36.718z"/>
	<path fill="#ED1B5A" d="M64.443,45.002v5.918H42.371V19.063h6.325v25.939H64.443z"/>
</g>
</svg>
