<?xml version="1.0" encoding="utf-8"?>
<!-- Generator: Adobe Illustrator 17.0.0, SVG Export Plug-In . SVG Version: 6.00 Build 0)  -->
<!DOCTYPE svg PUBLIC "-//W3C//DTD SVG 1.1//EN" "http://www.w3.org/Graphics/SVG/1.1/DTD/svg11.dtd">
<svg version="1.1" id="Layer_1" xmlns="http://www.w3.org/2000/svg" xmlns:xlink="http://www.w3.org/1999/xlink" x="0px" y="0px"
	 width="72px" height="72px" viewBox="0 0 72 72" enable-background="new 0 0 72 72" xml:space="preserve">
<g>
	<circle fill="#FFCD34" cx="35.359" cy="34.338" r="24.03"/>
	<circle fill="#333333" cx="35.359" cy="34.339" r="19.355"/>
	<path fill="#FFFFFF" d="M22.814,40.882c-1.676-1.677-3.133-3.023-4.397-4.178l3.545-3.544l2.006,1.675l0.082-0.082
		c-0.302-1.457-0.358-3.93,1.924-6.211c1.759-1.759,4.012-2.198,5.991-1.373l0.054-0.056c-0.192-1.237-0.165-2.363,0.11-3.407
		c0.329-1.154,0.907-2.226,1.897-3.216c2.583-2.583,6.348-2.72,10.36,1.292l7.915,7.915l-4.067,4.067l-7.283-7.283
		c-1.951-1.951-3.71-2.445-5.057-1.1c-0.99,0.99-0.99,2.309-0.494,3.408c0.22,0.385,0.576,0.852,0.907,1.182l7.86,7.86L40.1,41.899
		l-7.53-7.531c-1.677-1.675-3.435-2.226-4.782-0.878c-1.072,1.072-0.879,2.527-0.468,3.434c0.193,0.467,0.55,0.88,0.907,1.237
		l7.805,7.805l-4.066,4.067L22.814,40.882z"/>
</g>
</svg>
