<?xml version="1.0" encoding="utf-8"?>
<!-- Generator: Adobe Illustrator 17.0.0, SVG Export Plug-In . SVG Version: 6.00 Build 0)  -->
<!DOCTYPE svg PUBLIC "-//W3C//DTD SVG 1.1//EN" "http://www.w3.org/Graphics/SVG/1.1/DTD/svg11.dtd">
<svg version="1.1" id="Layer_1" xmlns="http://www.w3.org/2000/svg" xmlns:xlink="http://www.w3.org/1999/xlink" x="0px" y="0px"
	 width="72px" height="72px" viewBox="0 0 72 72" enable-background="new 0 0 72 72" xml:space="preserve">
<path id="Symbol_1_" fill="#E18455" d="M37.492,25.85l0.731-0.709l0.734-0.706l0.735-0.704l0.737-0.702
	c0.491-0.469,0.984-0.934,1.478-1.399l1.481-1.395l1.486-1.389c0.494-0.464,0.991-0.925,1.489-1.385l1.491-1.382l1.494-1.379
	l0.976-0.9l15.842,23.199l-0.876,0.876l-7.03,7.03l-0.956,0.957l-1.056-0.845L21.096,16.896l2.202-0.342L9.237,37.645l-0.189-1.907
	l7.03,7.03l-2.02-0.106L34.439,28.1L14.903,45.868l-0.962-0.962l-7.03-7.03L6.035,37l0.687-1.031l14.061-21.091l0.914-1.372
	l1.287,1.03l35.152,28.121l-2.013,0.111l7.03-7.03l-0.189,1.907L49.079,16.437l1.894,0.294L49.3,17.886l-1.676,1.152
	c-0.558,0.384-1.117,0.768-1.678,1.149l-1.682,1.144l-1.686,1.139c-0.562,0.38-1.125,0.758-1.69,1.134l-0.846,0.565l-0.848,0.563
	l-0.85,0.561L37.492,25.85z"/>
</svg>
