<?xml version="1.0" encoding="utf-8"?>
<!-- Generator: Adobe Illustrator 17.0.0, SVG Export Plug-In . SVG Version: 6.00 Build 0)  -->
<!DOCTYPE svg PUBLIC "-//W3C//DTD SVG 1.1//EN" "http://www.w3.org/Graphics/SVG/1.1/DTD/svg11.dtd">
<svg version="1.1" id="Layer_1" xmlns="http://www.w3.org/2000/svg" xmlns:xlink="http://www.w3.org/1999/xlink" x="0px" y="0px"
	 width="72px" height="72px" viewBox="0 0 72 72" enable-background="new 0 0 72 72" xml:space="preserve">
<g>
	
		<linearGradient id="SVGID_1_" gradientUnits="userSpaceOnUse" x1="305.4405" y1="-295.4878" x2="305.4405" y2="-343.8715" gradientTransform="matrix(1 0 0 -1 -270 -287)">
		<stop  offset="0" style="stop-color:#7FAC40"/>
		<stop  offset="1" style="stop-color:#23451F"/>
	</linearGradient>
	<path fill="url(#SVGID_1_)" d="M60.144,55.671c0,0.741-0.6,1.341-1.341,1.341H12.077c-0.741,0-1.341-0.6-1.341-1.341V8.328
		c0-0.741,0.6-1.341,1.341-1.341h46.727c0.741,0,1.341,0.6,1.341,1.341L60.144,55.671L60.144,55.671z"/>
	
		<linearGradient id="SVGID_2_" gradientUnits="userSpaceOnUse" x1="305.4115" y1="-295.0289" x2="305.4115" y2="-343.2821" gradientTransform="matrix(1 0 0 -1 -270 -287)">
		<stop  offset="0" style="stop-color:#89C243"/>
		<stop  offset="0.26" style="stop-color:#6DA742"/>
		<stop  offset="0.4724" style="stop-color:#5C9842"/>
		<stop  offset="1" style="stop-color:#3B783A"/>
	</linearGradient>
	<path fill="url(#SVGID_2_)" d="M59.452,55.416c0,0.514-0.416,0.93-0.93,0.93H12.3c-0.514,0-0.93-0.416-0.93-0.93V8.477
		c0-0.514,0.416-0.93,0.93-0.93h46.223c0.514,0,0.93,0.416,0.93,0.93L59.452,55.416L59.452,55.416z"/>
	
		<linearGradient id="SVGID_3_" gradientUnits="userSpaceOnUse" x1="305.424" y1="-296.4138" x2="305.424" y2="-343.0382" gradientTransform="matrix(1 0 0 -1 -270 -287)">
		<stop  offset="0" style="stop-color:#FFFFFF"/>
		<stop  offset="0.681" style="stop-color:#4F8D40;stop-opacity:0"/>
	</linearGradient>
	<path fill="url(#SVGID_3_)" d="M58.541,56.291H12.308c-0.518,0-0.939-0.421-0.939-0.939V8.486c0-0.518,0.421-0.939,0.939-0.939
		H58.54c0.518,0,0.939,0.421,0.939,0.939v46.866C59.48,55.87,59.059,56.291,58.541,56.291L58.541,56.291z M12.308,8.173
		c-0.173,0-0.314,0.141-0.314,0.313v46.866c0,0.173,0.141,0.313,0.314,0.313H58.54c0.173,0,0.313-0.141,0.313-0.313V8.486
		c0-0.173-0.141-0.313-0.313-0.313H12.308L12.308,8.173z"/>
	<path opacity="0.35" fill="#FFFFFF" enable-background="new    " d="M32.719,34.25L21.073,19.96
		c-1.215-1.42-1.02-3.532,0.436-4.718h-0.494c1.455-1.185,4.113-0.996,5.328,0.425h-0.494l9.5,11.106l9.105-11.106h0.395
		c1.215-1.42,2.984-1.611,4.439-0.425c0,0,2.641,1.262,0.317,4.848l-11.62,14.155c-0.653,0.762-1.617,1.202-2.635,1.202l0,0
		C34.332,35.448,33.371,35.013,32.719,34.25L32.719,34.25z"/>
	<path fill="#208D44" d="M32.788,33.249L20.775,18.766c-1.212-1.42-1.117-3.631,0.336-4.816l0,0
		c1.452-1.185,3.711-1.292,4.924,0.129l9.383,11.007l9.284-11.007c1.212-1.42,3.471-1.315,4.924-0.129c0,0,2.527,1.608,0.336,4.915
		L38.048,33.15c-0.76,0.734-1.474,1.392-2.641,1.392C33.772,34.543,32.788,33.249,32.788,33.249z"/>
	<path opacity="0.3" fill="#6DBE45" enable-background="new    " d="M24.337,40.477L24.337,40.477c0-1.758,1.425-3.182,3.182-3.182
		l0,0c1.757,0,3.182,1.424,3.182,3.182l0,0c0.001,1.259,0.501,2.369,1.324,3.197l0,0c0.828,0.823,1.938,1.323,3.197,1.324l0,0
		c1.258-0.001,2.368-0.501,3.197-1.324l0,0c0.823-0.828,1.323-1.939,1.325-3.197l0,0c0-1.758,1.425-3.182,3.182-3.182l0,0
		c1.757,0,3.182,1.424,3.182,3.182l0,0c-0.002,6.013-4.873,10.883-10.885,10.886l0,0C29.21,51.36,24.339,46.49,24.337,40.477
		L24.337,40.477z"/>
	<path fill="#208D44" d="M24.247,39.18L24.247,39.18c0-1.758,1.443-3.182,3.224-3.182l0,0c1.781,0,3.52,1.424,3.52,3.182l0,0
		c0.001,1.259,0.31,2.369,1.145,3.197l0,0c0.839,0.823,1.865,1.323,3.141,1.324l0,0c1.275-0.001,2.103-0.402,2.943-1.225l0,0
		c0.834-0.828,1.242-2.037,1.244-3.296l0,0c0-1.758,1.838-3.182,3.619-3.182l0,0c1.78,0,3.224,1.424,3.224,3.182l0,0
		c-0.002,6.013-4.937,11.081-11.029,11.083l0,0C29.184,50.261,24.249,45.193,24.247,39.18L24.247,39.18z"/>
	<g>
		<path fill="#F4F4F4" d="M32.805,33.547L20.962,19.36c-1.185-1.42-0.995-3.532,0.425-4.718l0,0c1.42-1.185,3.532-0.996,4.718,0.425
			l0,0l9.271,11.106l9.271-11.106l0,0c1.185-1.42,3.297-1.611,4.718-0.425l0,0c1.42,1.185,1.61,3.298,0.425,4.718l0,0L37.948,33.547
			c-0.637,0.762-1.578,1.202-2.571,1.202l0,0C34.383,34.75,33.441,34.309,32.805,33.547L32.805,33.547z"/>
		<path fill="#F4F4F4" d="M24.344,39.877L24.344,39.877c0-1.758,1.425-3.182,3.182-3.182l0,0c1.757,0,3.182,1.424,3.182,3.182l0,0
			c0.001,1.259,0.501,2.369,1.325,3.197l0,0c0.828,0.823,1.938,1.323,3.197,1.324l0,0c1.258-0.001,2.368-0.501,3.197-1.324l0,0
			c0.823-0.828,1.323-1.939,1.325-3.197l0,0c0-1.758,1.425-3.182,3.182-3.182l0,0c1.757,0,3.182,1.424,3.182,3.182l0,0
			C46.113,45.89,41.243,50.76,35.23,50.762l0,0C29.217,50.76,24.346,45.89,24.344,39.877L24.344,39.877z"/>
	</g>
</g>
</svg>
