<?xml version="1.0" encoding="utf-8"?>
<!-- Generator: Adobe Illustrator 17.0.0, SVG Export Plug-In . SVG Version: 6.00 Build 0)  -->
<!DOCTYPE svg PUBLIC "-//W3C//DTD SVG 1.1//EN" "http://www.w3.org/Graphics/SVG/1.1/DTD/svg11.dtd">
<svg version="1.1" id="Layer_1" xmlns="http://www.w3.org/2000/svg" xmlns:xlink="http://www.w3.org/1999/xlink" x="0px" y="0px"
	 width="72px" height="72px" viewBox="0 0 72 72" enable-background="new 0 0 72 72" xml:space="preserve">
<g>
	<path fill="#1C3665" d="M42.123,32.094l7.688-23.546h-9.429l-2.314,7.828c1.86,0.621,3.202,2.373,3.203,4.437
		c-0.001,2.586-2.096,4.684-4.684,4.684c-2.582,0-4.679-2.098-4.679-4.684c0.001-2.066,1.345-3.82,3.205-4.439l-2.316-7.847h-9.429
		l7.688,23.546l-8.51,25.54h9.63l4.411-13.733l4.416,13.753h9.63L42.123,32.094z"/>
	<path fill="#1C3665" d="M39.552,17.852c-0.759-0.759-1.807-1.228-2.966-1.228c-1.156,0-2.202,0.469-2.961,1.228
		c-0.758,0.76-1.228,1.806-1.228,2.962c0,1.158,0.47,2.206,1.228,2.965c0.759,0.76,1.805,1.23,2.961,1.23
		c1.159-0.001,2.206-0.47,2.966-1.23c0.759-0.761,1.229-1.807,1.229-2.965C40.781,19.658,40.311,18.612,39.552,17.852z"/>
</g>
</svg>
