<?xml version="1.0" encoding="utf-8"?>
<!-- Generator: Adobe Illustrator 17.0.0, SVG Export Plug-In . SVG Version: 6.00 Build 0)  -->
<!DOCTYPE svg PUBLIC "-//W3C//DTD SVG 1.1//EN" "http://www.w3.org/Graphics/SVG/1.1/DTD/svg11.dtd">
<svg version="1.1" id="Layer_1" xmlns="http://www.w3.org/2000/svg" xmlns:xlink="http://www.w3.org/1999/xlink" x="0px" y="0px"
	 width="72px" height="72px" viewBox="0 0 72 72" enable-background="new 0 0 72 72" xml:space="preserve">
<g>
	<path fill="#D3202B" d="M61.103,10.808H10.019c-1.128,0-2.043,0.915-2.043,2.043v38.652c0,1.129,0.915,2.043,2.043,2.043h51.083
		c1.128,0,2.043-0.914,2.043-2.043V12.852C63.146,11.724,62.231,10.808,61.103,10.808"/>
	<g>
		<path fill="#FFFFFF" d="M21.54,48.258c-0.89,0.384-2.287,0.629-3.53,0.629c-4.113,0-5.632-2.103-5.632-5.97
			c0-3.914,1.703-5.956,5.74-5.956c1.105,0,2.348,0.185,3.269,0.507l-0.307,2.671c-0.813-0.292-1.872-0.461-2.778-0.461
			c-2.088,0-2.548,0.706-2.548,3.208c0,2.624,0.491,3.253,2.164,3.253c0.261,0,0.522-0.015,0.768-0.061v-3.637h2.854V48.258z"/>
		<path fill="#FFFFFF" d="M32.515,44.56c0,2.839-1.581,4.328-4.789,4.328c-3.192,0-4.819-1.473-4.819-4.328v-7.398h3.208v7.368
			c0,1.074,0.461,1.565,1.627,1.565c1.151,0,1.581-0.46,1.581-1.565v-7.368h3.193L32.515,44.56L32.515,44.56z"/>
		<rect x="34.234" y="37.161" fill="#FFFFFF" width="3.284" height="11.511"/>
		<path fill="#FFFFFF" d="M43.934,48.673h-4.558V37.161h4.512c3.761,0,5.311,1.765,5.311,5.694
			C49.198,47.03,47.387,48.673,43.934,48.673 M43.872,39.924h-1.289v6.016h1.289c1.474,0,1.95-0.43,1.95-3.1
			C45.822,40.415,45.361,39.924,43.872,39.924"/>
		<polygon fill="#FFFFFF" points="58.745,45.987 58.684,48.673 50.565,48.673 50.565,37.161 58.484,37.161 58.53,39.878 
			53.773,39.878 53.773,41.566 57.702,41.566 57.702,44.022 53.773,44.022 53.773,45.987 		"/>
		<polygon fill="#FFFFFF" points="53.598,15.337 47.32,34.322 39.375,34.322 33.123,15.337 39.968,15.337 42.98,27.006 
			43.462,28.981 43.537,28.981 43.993,27.006 47.081,15.337 		"/>
		<polygon fill="#FFFFFF" points="29.271,20.942 29.271,34.322 22.907,34.322 22.907,20.942 18.173,20.942 18.274,15.337 
			33.229,15.337 34.038,20.942 		"/>
	</g>
</g>
</svg>
