<svg xmlns="http://www.w3.org/2000/svg" width="60" height="60" viewBox="0 0 60 60" xmlns:xlink="http://www.w3.org/1999/xlink">
  <defs>
    <polygon id="a" points="0 10.436 16.58 10.436 16.58 0 0 0"/>
  </defs>
  <g fill="none" fill-rule="evenodd" transform="translate(-79 -74)">
    <g transform="translate(79 74)">
      <rect width="60" height="60" fill="#3ABD69"/>
      <g transform="translate(18.373 16.474)">
        <path fill="#FFFFFF" d="M9.61107472,14.6014338 L0.59253779,4.07718467 C-0.310113111,3.02363156 -0.165261783,1.45681837 0.916460256,0.577404449 C1.99758063,-0.30200947 3.60643816,-0.161203609 4.50908906,0.892789065 L11.5692751,9.13169016 L18.6294612,0.892789065 L18.6294612,0.893082105 C19.5321121,-0.160471008 21.1405184,-0.30200947 22.22209,0.577404449 C23.3033608,1.45681837 23.448513,3.02363156 22.5457117,4.07718467 L13.5277764,14.6014338 C13.0426824,15.1667817 12.3258714,15.4934484 11.5697264,15.4934484 C10.8129045,15.4937414 10.0957927,15.1670748 9.61107472,14.6014338"/>
        <g transform="translate(3.168 16.86)">
          <mask id="b" fill="white">
            <use xlink:href="#a"/>
          </mask>
          <path fill="#FFFFFF" d="M0,2.36051282 L0.000300833495,2.36051282 C0.000300833495,1.0567033 1.084956,0 2.42328901,0 C3.76162202,0 4.84665323,1.0567033 4.84665323,2.36051282 C4.84755573,3.29413919 5.22803489,4.11772894 5.85534794,4.73230769 C6.48581973,5.34315018 7.3316131,5.71362637 8.29021903,5.71457875 C9.2482233,5.71362637 10.0938663,5.34315018 10.7247893,4.73230769 C11.3517263,4.11772894 11.7323559,3.29413919 11.7336344,2.36051282 C11.7336344,1.0567033 12.8185904,0 14.156773,0 C15.4949556,0 16.580062,1.0567033 16.580062,2.36051282 C16.5784074,6.82139194 12.8692809,10.4341392 8.29021903,10.4357509 C3.71078116,10.4341392 0.00157937585,6.82139194 0,2.36051282" mask="url(#b)"/>
        </g>
      </g>
    </g>
  </g>
</svg>
