<?xml version="1.0" encoding="utf-8"?>
<!-- Generator: Adobe Illustrator 17.0.0, SVG Export Plug-In . SVG Version: 6.00 Build 0)  -->
<!DOCTYPE svg PUBLIC "-//W3C//DTD SVG 1.1//EN" "http://www.w3.org/Graphics/SVG/1.1/DTD/svg11.dtd">
<svg version="1.1" id="Layer_1" xmlns="http://www.w3.org/2000/svg" xmlns:xlink="http://www.w3.org/1999/xlink" x="0px" y="0px"
	 width="72px" height="72px" viewBox="0 0 72 72" enable-background="new 0 0 72 72" xml:space="preserve">
<g>
	<circle cx="35.996" cy="32.424" r="22.744"/>
	
		<linearGradient id="SVGID_1_" gradientUnits="userSpaceOnUse" x1="285.0908" y1="-320.4335" x2="319.356" y2="-320.4335" gradientTransform="matrix(1 0 0 -1 -270 -287)">
		<stop  offset="0" style="stop-color:#D2D5D9"/>
		<stop  offset="0.0126" style="stop-color:#C0C2C6"/>
		<stop  offset="0.0434" style="stop-color:#989A9D"/>
		<stop  offset="0.0779" style="stop-color:#737577"/>
		<stop  offset="0.1156" style="stop-color:#545557"/>
		<stop  offset="0.1572" style="stop-color:#3A3A3B"/>
		<stop  offset="0.2041" style="stop-color:#242525"/>
		<stop  offset="0.259" style="stop-color:#141415"/>
		<stop  offset="0.3268" style="stop-color:#080909"/>
		<stop  offset="0.4218" style="stop-color:#020202"/>
		<stop  offset="0.6854" style="stop-color:#000000"/>
	</linearGradient>
	<path fill="url(#SVGID_1_)" d="M17.062,28.725c0.593-6.366,3.903-11.82,8.677-15.332c-5.77,3.385-9.886,9.398-10.554,16.566
		C14.083,41.791,22.78,52.277,34.612,53.38c5.466,0.509,10.645-1.077,14.744-4.095c-3.754,2.202-8.204,3.294-12.867,2.86
		C24.656,51.043,15.96,40.557,17.062,28.725z"/>
	<ellipse fill="#FFFFFF" cx="44.649" cy="29.952" rx="8.652" ry="8.406"/>
	<g>
		<path fill="#D2D5D9" d="M46.095,22.68c3.018,1.042,5.181,3.839,5.181,7.129c0,4.178-3.488,7.565-7.788,7.565
			c-0.433,0-0.858-0.035-1.273-0.102c0.816,0.282,1.693,0.436,2.609,0.436c4.301,0,7.788-3.387,7.788-7.565
			C52.612,26.386,49.791,23.27,46.095,22.68z"/>
	</g>
	
		<ellipse transform="matrix(0.3206 -0.9472 0.9472 0.3206 -5.5954 45.8959)" fill="#FFFFFF" stroke="#000000" stroke-width="0.163" cx="29.196" cy="26.849" rx="13.383" ry="9.323"/>
	<g>
		<path fill="#D2D5D9" d="M26.358,37.785c-4.438-1.502-6.288-7.885-4.132-14.256c0.84-2.482,2.166-4.594,3.732-6.162
			c-1.968,1.611-3.658,4.046-4.66,7.005c-2.157,6.372-0.306,12.755,4.132,14.257c2.709,0.917,5.756-0.199,8.21-2.655
			C31.371,37.83,28.735,38.589,26.358,37.785z"/>
	</g>
	<g>
		
			<ellipse transform="matrix(0.2287 -0.9735 0.9735 0.2287 7.3238 46.3286)" fill="#C3302D" cx="32.899" cy="18.542" rx="2.642" ry="1.14"/>
		<ellipse transform="matrix(0.2281 -0.9736 0.9736 0.2281 7.3396 46.3432)" cx="32.898" cy="18.543" rx="1.777" ry="0.767"/>
		
			<ellipse transform="matrix(0.191 -0.9816 0.9816 0.191 9.6818 46.5944)" fill="#FFFFFF" cx="33.108" cy="17.424" rx="1.251" ry="0.881"/>
	</g>
	<g>
		<ellipse fill="#C3302D" cx="40.558" cy="25.297" rx="1.112" ry="1.529"/>
		<ellipse cx="40.559" cy="25.297" rx="0.742" ry="1.02"/>
		
			<ellipse transform="matrix(0.1908 -0.9816 0.9816 0.1908 8.2993 59.5893)" fill="#FFFFFF" cx="40.293" cy="24.761" rx="0.898" ry="0.632"/>
	</g>
	<path fill="#ED2024" stroke="#000000" stroke-width="0.2323" d="M52.938,39.883c0,0-0.081,0.031-0.233,0.087
		c-0.374,0.139-1.181,0.437-2.22,0.808c-2.014,2.233-6.831,7.156-11.284,8.533c-14.619,1.019-12.852-11.25-13.12-9.911
		c-0.523-0.899-1.827-4.509-2.18-5.65c0,0-0.836,23.133,5.921,26.773c0,0,7.7,2.676,10.997-0.883c0,0-2.848-7.221-1.216-9.417
		C39.603,50.223,52.634,41.564,52.938,39.883z"/>
	<path fill="#FFFFFF" stroke="#000000" stroke-width="0.1859" d="M40.611,49.552c4.413-1.406,9.769-6.897,11.729-9.102
		c-3.457,1.265-9.453,4.026-12.916,3.726c0,0-9.648,0.708-14.25-6.656C22.752,50.894,40.611,49.552,40.611,49.552z"/>
	<path fill="#F26667" d="M38.922,58.509c-0.343,1.311-3.04,2.05-6.025,1.65c-2.984-0.401-5.127-1.789-4.784-3.101
		c0.342-1.311,3.039-2.05,6.025-1.649C37.122,55.81,39.264,57.197,38.922,58.509z"/>
	<ellipse fill="#FFFFFF" cx="45.302" cy="16.416" rx="3.496" ry="2.967"/>
	<ellipse fill="#FFFFFF" cx="49.428" cy="19.013" rx="2.059" ry="1.669"/>
	<path fill="#D2D5D9" d="M28.58,41.943c0,0-2.658-2.348-3.029-3.029c0,0-0.988,5.254,3.4,8.097
		C28.951,47.011,24.191,41.015,28.58,41.943z"/>
</g>
</svg>
