<?xml version="1.0" encoding="utf-8"?>
<!-- Generator: Adobe Illustrator 17.0.0, SVG Export Plug-In . SVG Version: 6.00 Build 0)  -->
<!DOCTYPE svg PUBLIC "-//W3C//DTD SVG 1.1//EN" "http://www.w3.org/Graphics/SVG/1.1/DTD/svg11.dtd">
<svg version="1.1" id="Layer_1" xmlns="http://www.w3.org/2000/svg" xmlns:xlink="http://www.w3.org/1999/xlink" x="0px" y="0px"
	 width="72px" height="72px" viewBox="0 0 72 72" enable-background="new 0 0 72 72" xml:space="preserve">
<g>
	<g>
		<g>
			<path fill="#FFFFFF" d="M58.038,15.188c0.412-0.505,0.822-1.008,1.235-1.508c-2.412,0.664-4.817,1.353-7.218,2.066
				c0.005,0-0.809,0.259-0.809,0.259c-0.094,0.031-0.19,0.061-0.284,0.092c-0.069,0.074-0.135,0.149-0.202,0.224
				c-1.551,1.743-3.618,4.744-6.267,9.317c-1.293,2.227-2.473,4.414-3.589,6.581c0.511-6.165,0.759-10.467,0.714-12.829
				c-0.025-1.216-0.111-1.6-0.185-1.799s-0.148-0.398-0.222-0.598c-0.245,0.111-0.487,0.222-0.733,0.333
				c-2.735,1.244-5.461,2.53-8.173,3.854c0.066,0.224,0.132,0.448,0.198,0.67c0.036,0.12,0.125,0.624,0.184,2.693
				c0.134,4.451,0.194,9.359,0.188,14.595c-0.018,7.803-0.175,9.264-0.243,9.525c-0.119,0.462-0.237,0.925-0.355,1.387
				c0.427-0.247,0.855-0.493,1.283-0.739c2.507-1.521,5.025-3.002,7.555-4.447c0.053-0.075,0.106-0.149,0.159-0.224
				c1.29-1.838,2.907-4.629,4.826-8.234c-0.001-0.05,4.253-8.192,4.266-8.158c-0.002-0.033,3.586-6.784,3.594-6.761
				C55.416,18.829,56.794,16.719,58.038,15.188z"/>
			<path d="M28.476,55.052l1.798-6.996c0.002-0.068,0.15-1.416,0.166-8.924c0.007-5.25-0.055-10.135-0.188-14.517
				c-0.05-1.752-0.116-2.195-0.124-2.24l-0.743-2.477l1.848-0.904c2.734-1.335,5.479-2.629,8.237-3.883l3.126-1.402l1.043,2.837
				c0.295,0.791,0.385,1.495,0.411,2.795c0.012,0.639,0.005,1.413-0.026,2.33c1.888-3.075,3.537-5.412,4.916-6.966l0.416-0.444
				l-0.038-0.238l2.045-0.608c2.418-0.718,4.838-1.412,7.265-2.079l7.432-2.047l-6.133,7.433c-1.185,1.456-2.475,3.452-3.836,5.934
				l-0.302,0.55c-0.653,1.214-2.282,4.278-2.952,5.551l-1.021,1.929c-0.948,1.8-2.658,5.072-3.287,6.296v0.031l-0.285,0.536
				c-2.059,3.868-3.689,6.644-4.983,8.489l-0.492,0.68l-0.451,0.258c-2.51,1.436-5.011,2.906-7.501,4.415L28.476,55.052z
				 M35.031,22.56c0.031,0.458,0.059,1.072,0.086,1.913c0.131,4.43,0.195,9.365,0.188,14.667c-0.007,2.855-0.031,4.88-0.064,6.326
				c0.741-0.439,1.487-0.876,2.233-1.312l1.005-12.137c0.439-5.291,0.672-9.05,0.708-11.422
				C37.798,21.239,36.413,21.894,35.031,22.56z M52.355,18.2c-1.23,1.458-3.043,3.969-5.757,8.656
				c-1.166,2.008-2.323,4.126-3.534,6.476l-5.57,10.811c0.641-0.374,1.287-0.747,1.931-1.117c1.249-1.834,2.698-4.332,4.525-7.763
				l0.017,0.008c0.302-0.653,0.9-1.8,2.097-4.09c1.064-2.038,1.724-3.301,2.216-4.085c0.81-2.037,2.812-5.466,3.586-6.757
				l-0.04-0.023c0.461-0.837,0.914-1.627,1.363-2.369c-0.147,0.044-0.295,0.087-0.439,0.131l-0.007-0.021
				C52.612,18.11,52.481,18.158,52.355,18.2z"/>
		</g>
		<g>
			<path fill="#FFFFFF" d="M27.361,38.643c-1.375,1.947-2.969,3.208-4.886,3.843c-1.713,0.566-3.121,0.361-4.313-0.656
				c-1.151-0.979-1.784-2.388-1.929-4.307c0.005-0.43,0.012-0.859,0.018-1.289c0.001-0.08,0.002-0.16,0.003-0.242
				c0.182-2.704,0.988-5.09,2.408-7.072c1.524-2.105,3.473-3.454,5.951-4.131c2.316-0.633,3.972-0.098,5.045,1.591
				c0.133,0.208,0.264,0.414,0.396,0.623c3.123-2.407,6.271-4.74,9.447-6.996c-0.17-0.209-0.338-0.416-0.507-0.625
				c-2.966-3.643-7.852-4.836-14.423-3.219c-4.359,1.082-8.157,3.737-11.241,7.979c-0.001,0-0.001,0.001-0.001,0.001
				c-2.998,4.139-4.552,8.667-4.677,13.315c0,0.009,0.042,1.379,0.069,2.243c0.012,0.398,0.023,0.689,0.023,0.689
				c0.349,4.196,1.656,7.314,3.861,9.226c2.44,2.097,5.614,2.39,9.492,1.004c4.738-1.693,8.588-4.707,11.475-8.907
				c0.187-0.273,0.374-0.544,0.562-0.817c-2.095-0.959-4.195-1.93-6.305-2.91C27.673,38.205,27.517,38.424,27.361,38.643z"/>
			<path d="M17.717,53.9c-2.56,0-4.812-0.821-6.698-2.44c-2.717-2.357-4.294-6.011-4.698-10.868l-0.1-3.134
				c0.143-5.292,1.872-10.23,5.14-14.741c3.404-4.681,7.65-7.68,12.624-8.915c7.391-1.816,13.308-0.363,16.896,4.045l2.138,2.645
				L40.91,21.99c-3.109,2.209-6.261,4.544-9.37,6.94l-2.102,1.621l-1.826-2.858c-0.627-0.987-1.259-0.857-2.356-0.556
				c-1.955,0.533-3.423,1.553-4.624,3.211c-1.138,1.59-1.798,3.548-1.95,5.809l-0.017,1.394c0.116,1.436,0.67,2.083,1.074,2.427
				c0.558,0.477,1.095,0.493,1.971,0.2c1.418-0.469,2.582-1.402,3.667-2.937l1.641-2.315l1.838,0.854
				c2.104,0.979,4.199,1.948,6.289,2.905l2.632,1.204l-2.199,3.202c-3.204,4.658-7.465,7.961-12.662,9.82
				C21.075,53.568,19.327,53.9,17.717,53.9z M29.91,17.888c-1.442,0-3.043,0.214-4.757,0.637c-3.829,0.95-7.147,3.322-9.854,7.047
				c-2.681,3.7-4.099,7.723-4.213,11.952l0.088,2.787c0.29,3.426,1.309,5.979,3.026,7.469c1.729,1.487,4.035,1.638,7.078,0.551
				c3.627-1.297,6.695-3.466,9.144-6.464c-0.606-0.279-1.211-0.561-1.819-0.841c-1.525,1.844-3.29,3.083-5.363,3.769
				c-2.546,0.842-4.829,0.445-6.657-1.115c-1.646-1.402-2.582-3.413-2.774-5.973l0.019-1.878c0.216-3.178,1.178-5.979,2.86-8.326
				c1.867-2.578,4.249-4.23,7.287-5.06c2.629-0.721,4.871-0.289,6.51,1.172c1.777-1.348,3.563-2.672,5.342-3.962
				C34.3,18.469,32.35,17.888,29.91,17.888z"/>
		</g>
	</g>
	<g>
		<g>
			<path fill="#EAB649" d="M58.038,15.188c0.412-0.505,0.822-1.008,1.235-1.508c-2.412,0.664-4.817,1.353-7.218,2.066
				c0.005,0-0.809,0.259-0.809,0.259c-0.094,0.031-0.19,0.061-0.284,0.092c-0.069,0.074-0.135,0.149-0.202,0.224
				c-1.551,1.743-3.618,4.744-6.267,9.317c-1.293,2.227-2.473,4.414-3.589,6.581c0.511-6.165,0.759-10.467,0.714-12.829
				c-0.025-1.216-0.111-1.6-0.185-1.799s-0.148-0.398-0.222-0.598c-0.245,0.111-0.487,0.222-0.733,0.333
				c-2.735,1.244-5.461,2.53-8.173,3.854c0.066,0.224,0.132,0.448,0.198,0.67c0.036,0.12,0.125,0.624,0.184,2.693
				c0.134,4.451,0.194,9.359,0.188,14.595c-0.018,7.803-0.175,9.264-0.243,9.525c-0.119,0.462-0.237,0.925-0.355,1.387
				c0.427-0.247,0.855-0.493,1.283-0.739c2.507-1.521,5.025-3.002,7.555-4.447c0.053-0.075,0.106-0.149,0.159-0.224
				c1.29-1.838,2.907-4.629,4.826-8.234c-0.001-0.05,4.253-8.192,4.266-8.158c-0.002-0.033,3.586-6.784,3.594-6.761
				C55.416,18.829,56.794,16.719,58.038,15.188z"/>
			<path fill="#FFFFFF" d="M31.324,51.3l0.717-2.788c0.033-0.14,0.207-1.255,0.223-9.376c0.007-5.27-0.057-10.174-0.188-14.575
				c-0.059-2.109-0.15-2.503-0.159-2.541l-0.344-1.16l0.463-0.226c2.681-1.311,5.439-2.61,8.189-3.862l1.332-0.6l0.444,1.209
				c0.1,0.271,0.197,0.701,0.223,1.996c0.038,1.937-0.121,5.203-0.482,9.936c0.748-1.391,1.484-2.708,2.225-3.981
				c2.518-4.35,4.65-7.518,6.337-9.416l0.318-0.348l0.748-0.242l-0.002-0.01l0.513-0.153c2.406-0.715,4.814-1.405,7.23-2.07
				l1.857-0.511l-1.228,1.484c-0.411,0.499-0.822,1-1.23,1.505c-1.254,1.54-2.605,3.628-4.021,6.206l-0.176,0.317
				c-0.634,1.171-2.907,5.447-3.335,6.275l-0.259,0.487c-0.715,1.338-3.582,6.824-4.016,7.687l-0.071,0.147
				c-2.024,3.801-3.615,6.515-4.864,8.297l-0.356,0.401c-2.544,1.456-5.083,2.95-7.541,4.44L31.324,51.3z M33.031,21.5l0.052,0.175
				c0.036,0.118,0.14,0.471,0.209,2.85c0.131,4.413,0.195,9.329,0.188,14.613c-0.009,3.962-0.059,8.844-0.259,9.663l0.031-0.018
				c2.42-1.465,4.926-2.943,7.441-4.382l0.078-0.109c1.223-1.742,2.788-4.415,4.788-8.173l0.043,0.023
				c0.546-1.211,2.945-6.244,4.173-7.941c0.29-0.879,3.7-7.088,3.738-7.129c1.361-2.52,2.755-4.669,4.052-6.267
				c0.007-0.008,0.014-0.017,0.021-0.024c-1.788,0.502-3.575,1.018-5.358,1.549l-0.005-0.014c-0.188,0.076-0.447,0.158-0.796,0.268
				l-0.135,0.053c-1.71,1.924-3.795,5.025-6.273,9.306c-1.183,2.032-2.351,4.175-3.577,6.554l-1.399,2.714l0.252-3.043
				c0.523-6.317,0.755-10.493,0.713-12.767c-0.017-0.825-0.064-1.359-0.143-1.585l-0.14,0.064
				C38.145,19.054,35.558,20.271,33.031,21.5z"/>
		</g>
		<g>
			<path fill="#3A8C4C" d="M27.361,38.643c-1.375,1.947-2.969,3.208-4.886,3.843c-1.713,0.566-3.121,0.361-4.313-0.656
				c-1.151-0.979-1.784-2.388-1.929-4.307c0.005-0.43,0.012-0.859,0.018-1.289c0.001-0.08,0.002-0.16,0.003-0.242
				c0.182-2.704,0.988-5.09,2.408-7.072c1.524-2.105,3.473-3.454,5.951-4.131c2.316-0.633,3.972-0.098,5.045,1.591
				c0.133,0.208,0.264,0.414,0.396,0.623c3.123-2.407,6.271-4.74,9.447-6.996c-0.17-0.209-0.338-0.416-0.507-0.625
				c-2.966-3.643-7.852-4.836-14.423-3.219c-4.359,1.082-8.157,3.737-11.241,7.979c-0.001,0-0.001,0.001-0.001,0.001
				c-2.998,4.139-4.552,8.667-4.677,13.315c0,0.009,0.042,1.379,0.069,2.243c0.012,0.398,0.023,0.689,0.023,0.689
				c0.349,4.196,1.656,7.314,3.861,9.226c2.44,2.097,5.614,2.39,9.492,1.004c4.738-1.693,8.588-4.707,11.475-8.907
				c0.187-0.273,0.374-0.544,0.562-0.817c-2.095-0.959-4.195-1.93-6.305-2.91C27.673,38.205,27.517,38.424,27.361,38.643z"/>
			<path fill="#FFFFFF" d="M17.717,52.076c-2.111,0-3.964-0.672-5.508-2c-2.339-2.028-3.708-5.27-4.071-9.637L8.064,38.07
				c-0.012-0.357-0.019-0.609-0.019-0.613c0.131-4.868,1.743-9.462,4.793-13.671c3.142-4.323,7.04-7.086,11.586-8.214
				c6.707-1.648,11.88-0.46,15.044,3.426l0.912,1.129l-0.527,0.374c-3.128,2.223-6.299,4.572-9.427,6.983l-0.525,0.405l-0.755-1.182
				c-0.933-1.471-2.335-1.889-4.373-1.332c-2.342,0.64-4.18,1.916-5.619,3.9c-1.344,1.878-2.116,4.153-2.294,6.758l-0.02,1.497
				c0.131,1.693,0.691,2.965,1.715,3.836c1.028,0.878,2.214,1.047,3.729,0.543c1.781-0.59,3.28-1.773,4.582-3.616l0.762-1.072
				l0.458,0.214c2.109,0.98,4.206,1.95,6.301,2.91l0.656,0.3l-0.969,1.413c-2.981,4.335-6.942,7.408-11.773,9.135
				C20.659,51.779,19.116,52.076,17.717,52.076z M29.91,16.064c-1.589,0-3.335,0.232-5.194,0.689
				c-4.261,1.058-7.926,3.664-10.892,7.746c-2.902,4.007-4.439,8.372-4.563,12.975l0.09,2.895c0.335,4.008,1.563,6.974,3.653,8.787
				c2.247,1.933,5.173,2.218,8.888,0.891c4.584-1.639,8.346-4.559,11.18-8.679l0.152-0.221c-1.727-0.792-3.456-1.591-5.192-2.398
				l-0.173,0.243c-1.456,2.064-3.157,3.395-5.194,4.07c-1.919,0.633-3.558,0.374-4.897-0.772c-1.283-1.091-1.983-2.636-2.14-4.722
				l0.019-1.577c0.192-2.875,1.04-5.361,2.522-7.427c1.608-2.221,3.665-3.647,6.287-4.363c2.57-0.705,4.498-0.068,5.717,1.851
				l0.04,0.062c2.791-2.142,5.617-4.235,8.41-6.229l-0.1-0.124C36.523,17.31,33.625,16.064,29.91,16.064z"/>
		</g>
	</g>
</g>
</svg>
