<?xml version="1.0" encoding="utf-8"?>
<!-- Generator: Adobe Illustrator 17.0.0, SVG Export Plug-In . SVG Version: 6.00 Build 0)  -->
<!DOCTYPE svg PUBLIC "-//W3C//DTD SVG 1.1//EN" "http://www.w3.org/Graphics/SVG/1.1/DTD/svg11.dtd">
<svg version="1.1" id="Layer_1" xmlns="http://www.w3.org/2000/svg" xmlns:xlink="http://www.w3.org/1999/xlink" x="0px" y="0px"
	 width="72px" height="72px" viewBox="0 0 72 72" enable-background="new 0 0 72 72" xml:space="preserve">
<g>
	<g>
		
			<linearGradient id="SVGID_1_" gradientUnits="userSpaceOnUse" x1="305.8933" y1="-349.3021" x2="305.8933" y2="-297.2409" gradientTransform="matrix(1 0 0 -1 -270 -287)">
			<stop  offset="0.1067" style="stop-color:#921A1C"/>
			<stop  offset="0.382" style="stop-color:#CB2026"/>
		</linearGradient>
		<path fill="url(#SVGID_1_)" d="M61.15,46.474c0.67-0.311,0.962-1.115,0.651-1.784L46.096,11.015
			c-0.311-0.669-1.115-0.961-1.785-0.649L10.636,26.067c-0.669,0.312-0.962,1.115-0.65,1.786L25.69,61.528
			c0.313,0.669,1.116,0.961,1.786,0.649L61.15,46.474z"/>
		
			<linearGradient id="SVGID_2_" gradientUnits="userSpaceOnUse" x1="304.3518" y1="-298.64" x2="304.3518" y2="-330.376" gradientTransform="matrix(1 0 0 -1 -270 -287)">
			<stop  offset="0.2079" style="stop-color:#F57F20"/>
			<stop  offset="0.8764" style="stop-color:#CB2026"/>
		</linearGradient>
		<path opacity="0.65" fill="url(#SVGID_2_)" enable-background="new    " d="M37.1,43.376c7.944,0,15.043-2.662,19.758-6.845
			L45.587,12.362c-0.292-0.623-1.04-0.897-1.663-0.605L12.567,26.379c-0.624,0.288-0.896,1.039-0.604,1.66l2.474,5.306
			C18.766,39.316,27.29,43.376,37.1,43.376z"/>
		<g>
			<path fill="#FFFFFF" d="M44.103,22.129h-8.441v14.528H25.537l9.81-14.528H20.455l-2.75,4.103h9.018l-9.86,14.527h20.102
				l3.54-5.222v-9.305h2.71c3.114,0,5.311,1.875,5.311,5.211c0,3.634-2.471,5.213-5.362,5.213h-2.139v4.103h3.078
				c5.163,0,9.463-4.078,9.463-9.316C53.567,26.205,49.292,22.129,44.103,22.129z"/>
		</g>
	</g>
	<g>
		<path d="M53.349,18.741h-0.818v-0.295h1.991v0.295H53.7v2.394h-0.351V18.741z"/>
		<path d="M57.088,19.955c-0.02-0.375-0.044-0.83-0.044-1.161h-0.008c-0.096,0.311-0.203,0.651-0.339,1.022l-0.475,1.305H55.96
			l-0.439-1.281c-0.128-0.383-0.232-0.726-0.307-1.046h-0.008c-0.008,0.335-0.028,0.782-0.052,1.189l-0.072,1.153H54.75l0.188-2.69
			h0.443l0.459,1.301c0.112,0.331,0.2,0.627,0.272,0.906h0.008c0.072-0.271,0.168-0.567,0.287-0.906l0.479-1.301h0.443l0.168,2.69
			h-0.343L57.088,19.955z"/>
	</g>
</g>
</svg>
