<?xml version="1.0" encoding="utf-8"?>
<!-- Generator: Adobe Illustrator 17.0.0, SVG Export Plug-In . SVG Version: 6.00 Build 0)  -->
<!DOCTYPE svg PUBLIC "-//W3C//DTD SVG 1.1//EN" "http://www.w3.org/Graphics/SVG/1.1/DTD/svg11.dtd">
<svg version="1.1" id="Layer_1" xmlns="http://www.w3.org/2000/svg" xmlns:xlink="http://www.w3.org/1999/xlink" x="0px" y="0px"
	 width="72px" height="72px" viewBox="0 0 72 72" enable-background="new 0 0 72 72" xml:space="preserve">
<g>
	<path fill="#FFCD05" d="M14.763,48.298c0-5.752,4.655-10.407,10.429-10.407c5.766,0,10.408,4.654,10.408,10.407
		c0,5.788-4.642,10.443-10.408,10.443C19.418,58.741,14.763,54.086,14.763,48.298z"/>
	<path fill="#F8991D" d="M37.858,34.883c0-5.741,4.681-10.42,10.455-10.42c5.726,0,10.405,4.679,10.405,10.42
		c0,5.775-4.679,10.427-10.405,10.427C42.539,45.31,37.858,40.658,37.858,34.883z"/>
	<path fill="#F26822" d="M14.763,21.682c0-5.777,4.655-10.431,10.429-10.431c5.766,0,10.447,4.654,10.447,10.431
		c0,5.753-4.68,10.419-10.447,10.419C19.418,32.101,14.763,27.436,14.763,21.682z"/>
</g>
</svg>
