<?xml version="1.0" encoding="utf-8"?>
<!-- Generator: Adobe Illustrator 17.0.0, SVG Export Plug-In . SVG Version: 6.00 Build 0)  -->
<!DOCTYPE svg PUBLIC "-//W3C//DTD SVG 1.1//EN" "http://www.w3.org/Graphics/SVG/1.1/DTD/svg11.dtd">
<svg version="1.1" id="Layer_1" xmlns="http://www.w3.org/2000/svg" xmlns:xlink="http://www.w3.org/1999/xlink" x="0px" y="0px"
	 width="72px" height="72px" viewBox="0 0 72 72" enable-background="new 0 0 72 72" xml:space="preserve">
<g>
	<g>
		<circle fill="#FFFFFF" cx="36.293" cy="35.589" r="24.787"/>
		<path fill="#010101" d="M36.293,61.382c-1.749,0-3.498-0.176-5.197-0.524c-1.656-0.339-3.286-0.845-4.843-1.503
			c-1.529-0.646-3.003-1.447-4.382-2.378c-1.366-0.923-2.65-1.982-3.817-3.149s-2.226-2.451-3.149-3.817
			c-0.932-1.379-1.732-2.853-2.378-4.382c-0.659-1.557-1.164-3.186-1.503-4.843c-0.348-1.699-0.524-3.448-0.524-5.197
			c0-1.749,0.176-3.498,0.524-5.197c0.339-1.657,0.845-3.286,1.503-4.843c0.647-1.529,1.447-3.003,2.378-4.382
			c0.923-1.366,1.982-2.65,3.149-3.817s2.451-2.226,3.817-3.149c1.379-0.932,2.853-1.732,4.382-2.378
			c1.557-0.659,3.186-1.164,4.843-1.503c1.699-0.348,3.448-0.524,5.197-0.524s3.498,0.176,5.197,0.524
			c1.657,0.339,3.286,0.845,4.843,1.503c1.529,0.647,3.003,1.447,4.382,2.378c1.366,0.923,2.65,1.982,3.817,3.149
			s2.226,2.451,3.149,3.817c0.932,1.379,1.732,2.853,2.378,4.382c0.658,1.557,1.164,3.186,1.503,4.843
			c0.348,1.699,0.524,3.448,0.524,5.197s-0.176,3.498-0.524,5.197c-0.339,1.656-0.845,3.286-1.503,4.843
			c-0.647,1.529-1.447,3.003-2.378,4.382c-0.923,1.366-1.982,2.65-3.149,3.817s-2.451,2.226-3.817,3.149
			c-1.379,0.932-2.853,1.732-4.382,2.378c-1.557,0.659-3.186,1.164-4.843,1.503C39.791,61.206,38.042,61.382,36.293,61.382z
			 M36.293,11.809c-1.614,0-3.227,0.163-4.794,0.483c-1.526,0.312-3.028,0.778-4.462,1.385c-1.409,0.596-2.768,1.333-4.039,2.192
			c-1.259,0.851-2.444,1.828-3.52,2.904s-2.053,2.261-2.904,3.52c-0.859,1.271-1.596,2.63-2.192,4.039
			c-0.607,1.435-1.073,2.936-1.385,4.462c-0.321,1.567-0.483,3.179-0.483,4.794c0,1.614,0.163,3.227,0.483,4.794
			c0.312,1.526,0.778,3.028,1.385,4.462c0.596,1.409,1.333,2.768,2.192,4.039c0.851,1.259,1.828,2.444,2.904,3.52
			s2.261,2.054,3.52,2.904c1.271,0.859,2.63,1.596,4.039,2.192c1.435,0.607,2.936,1.073,4.462,1.385
			c1.567,0.321,3.18,0.483,4.794,0.483c1.614,0,3.227-0.162,4.793-0.483c1.526-0.312,3.028-0.778,4.462-1.385
			c1.409-0.596,2.768-1.334,4.039-2.192c1.259-0.851,2.444-1.828,3.52-2.904s2.054-2.261,2.904-3.52
			c0.859-1.271,1.596-2.63,2.192-4.039c0.607-1.435,1.073-2.936,1.385-4.462c0.321-1.567,0.483-3.179,0.483-4.794
			c0-1.614-0.162-3.227-0.483-4.794c-0.312-1.526-0.778-3.028-1.385-4.462c-0.596-1.409-1.333-2.768-2.192-4.039
			c-0.851-1.259-1.828-2.444-2.904-3.52s-2.261-2.053-3.52-2.904c-1.271-0.859-2.63-1.596-4.039-2.192
			c-1.435-0.607-2.936-1.073-4.462-1.385C39.52,11.971,37.907,11.809,36.293,11.809z"/>
	</g>
	<g>
		<circle fill="#010101" cx="40.344" cy="21.822" r="1.006"/>
		<path fill="#010101" d="M48.812,31.859l-0.003-0.003c0.493-0.494,0.765-1.151,0.765-1.849c0-0.7-0.272-1.357-0.767-1.852
			c-0.495-0.495-1.153-0.767-1.852-0.767c-0.682,0-1.323,0.259-1.813,0.729l-0.001-0.001L32.947,40.299l-0.002-0.002
			c-1.053,1.053-2.768,1.053-3.821,0s-1.053-2.767,0-3.821c1.053-1.053,2.767-1.053,3.821,0l0.001-0.001
			c0.178,0.159,0.413,0.256,0.67,0.256c0.556,0,1.006-0.451,1.006-1.006c0-0.257-0.097-0.492-0.256-0.67l0.002-0.002
			c-0.012-0.012-0.025-0.024-0.037-0.036c-0.005-0.005-0.009-0.009-0.014-0.014c-0.438-0.425-0.945-0.757-1.509-0.986
			c-0.565-0.229-1.162-0.345-1.774-0.345s-1.209,0.116-1.774,0.345c-0.586,0.237-1.11,0.586-1.56,1.036
			c-0.45,0.45-0.798,0.975-1.036,1.56c-0.032,0.079-0.062,0.159-0.089,0.239c-1.029,0.764-2.493,0.68-3.425-0.253
			c-1.025-1.025-1.025-2.693,0-3.718c1.001-1.001,2.615-1.024,3.645-0.07c0.184,0.208,0.454,0.339,0.753,0.339
			c0.556,0,1.006-0.451,1.006-1.006c0-0.263-0.101-0.503-0.267-0.682l0.003-0.003c-0.443-0.443-0.96-0.813-1.536-1.047
			c-0.556-0.226-1.144-0.366-1.746-0.366l0,0c-0.602,0-1.19,0.14-1.746,0.366c-0.577,0.234-1.093,0.588-1.536,1.031
			c-0.443,0.443-0.786,0.967-1.02,1.543c-0.225,0.556-0.34,1.147-0.34,1.75c0,0.602,0.114,1.192,0.34,1.748
			c0.234,0.576,0.577,1.094,1.02,1.537c0.443,0.443,0.96,0.786,1.536,1.02c0.556,0.226,1.144,0.34,1.746,0.34
			c0.47,0,0.931-0.07,1.376-0.208c0.057,0.337,0.15,0.666,0.28,0.986c0.237,0.585,0.586,1.11,1.036,1.56
			c0.45,0.45,0.975,0.798,1.56,1.036c0.565,0.229,1.162,0.345,1.774,0.345s1.209-0.116,1.774-0.345
			c0.577-0.234,1.095-0.576,1.54-1.016l0.003,0.003l12.175-12.164l0.001,0.001c0.114-0.114,0.267-0.178,0.429-0.178
			c0.162,0,0.314,0.063,0.429,0.178s0.178,0.267,0.178,0.429s-0.063,0.314-0.178,0.429l0.003,0.003L28.204,49.621
			c-0.423,0.375-0.962,0.58-1.532,0.58c-0.618,0-1.199-0.241-1.636-0.678s-0.678-1.018-0.678-1.636s0.241-1.199,0.678-1.636
			s1.018-0.678,1.636-0.678s1.199,0.241,1.636,0.678l0.002-0.002c0.183,0.187,0.437,0.302,0.719,0.302
			c0.556,0,1.006-0.451,1.006-1.006c0-0.306-0.137-0.58-0.353-0.765c-0.402-0.39-0.867-0.693-1.383-0.903
			c-0.519-0.21-1.066-0.317-1.628-0.317s-1.109,0.107-1.628,0.317c-0.537,0.218-1.019,0.538-1.432,0.95
			c-0.413,0.413-0.733,0.894-0.95,1.432c-0.21,0.518-0.317,1.066-0.317,1.628c0,0.561,0.107,1.109,0.317,1.628
			c0.218,0.537,0.538,1.019,0.95,1.432c0.413,0.413,0.894,0.732,1.432,0.95c0.519,0.21,1.066,0.317,1.628,0.317
			s1.109-0.107,1.628-0.317c0.537-0.218,1.019-0.538,1.432-0.95l-0.003-0.003L48.812,31.859z"/>
		<path fill="#010101" d="M43.746,26.673c0.013,0.007,0.025,0.013,0.038,0.02c0.005-0.011,0.011-0.022,0.016-0.033
			C43.781,26.665,43.763,26.669,43.746,26.673z"/>
		<path fill="#010101" d="M52.734,27.234c-0.324-1.487-1.02-2.964-2.013-4.273c-0.269-0.354-0.566-0.702-0.883-1.035
			c-0.929-0.976-2.002-1.805-3.189-2.463l-0.007-0.004c-0.397-0.216-0.824-0.428-1.27-0.632c-0.406-0.186-0.839-0.369-1.287-0.546
			c-0.213-0.087-0.441-0.189-0.682-0.298c-0.77-0.346-1.643-0.739-2.528-0.839c-1.089-0.123-2.212,0.368-3.003,1.316
			c-0.069,0.083-0.127,0.156-0.178,0.22c-0.033,0.042-0.072,0.092-0.102,0.127c-0.021,0.003-0.051,0.005-0.09,0.007
			c-0.074,0.004-0.147,0.007-0.221,0.011c-0.434,0.02-0.882,0.042-1.357,0.147l-0.01,0.002c-1.217,0.283-2.1,0.655-2.866,1.207
			c-0.757,0.546-1.423,1.252-1.926,2.042c-0.524,0.823-0.873,1.742-1.01,2.658c-0.262,1.751,0.205,3.574,1.279,5.002
			c1.011,1.343,2.453,2.201,4.06,2.415c1.099,0.146,2.194,0.033,3.255-0.337c0.963-0.336,1.875-0.946,2.711-1.672
			C42.947,28.96,44.132,28,44.671,25h-0.002c0.03,0,0.046-0.125,0.046-0.231c0-0.556-0.451-0.971-1.006-0.971
			c-0.482,0-0.885,0.357-0.983,0.81c-0.438,1.608-1.395,3.153-2.626,4.222c-0.932,0.809-2.448,1.724-4.38,1.467
			c-1.068-0.142-2.033-0.719-2.717-1.628c-0.753-1-1.08-2.273-0.897-3.494c0.192-1.287,0.986-2.544,2.123-3.363
			c0.538-0.388,1.198-0.658,2.139-0.878c0.305-0.067,0.648-0.083,1.011-0.1c0.078-0.004,0.156-0.007,0.233-0.011
			c0.442-0.024,0.769-0.117,1.06-0.303c0.274-0.175,0.442-0.388,0.605-0.594c0.045-0.057,0.092-0.116,0.143-0.178
			c0.356-0.426,0.816-0.653,1.231-0.606c0.573,0.065,1.262,0.375,1.929,0.675c0.249,0.112,0.506,0.227,0.754,0.328l0.011,0.004
			c0.416,0.164,0.818,0.334,1.193,0.506c0.402,0.184,0.786,0.375,1.142,0.568c1.007,0.558,1.916,1.261,2.703,2.088
			c0.266,0.28,0.515,0.571,0.739,0.866c0.805,1.061,1.391,2.298,1.649,3.484c0.138,0.631,0.185,1.249,0.142,1.836
			c-0.045,0.61-0.19,1.19-0.431,1.724c-0.142,0.289-0.307,0.57-0.491,0.837c-0.16,0.233-0.337,0.457-0.526,0.667L38.558,43.63l0,0
			c-0.007,0.007-0.013,0.013-0.019,0.02l-0.051,0.051l0.001,0.001c-0.485,0.521-0.752,1.196-0.752,1.911
			c0,0.749,0.292,1.458,0.821,1.988c0.53,0.53,1.234,0.827,1.983,0.827l0,0c0.749,0,1.453-0.297,1.983-0.827l-0.003-0.005
			c0.175-0.181,0.282-0.428,0.282-0.699c0-0.556-0.451-1.007-1.006-1.007c-0.288,0-0.548,0.121-0.731,0.315
			c-0.145,0.129-0.329,0.199-0.525,0.199c-0.211,0-0.41-0.082-0.56-0.232c-0.149-0.149-0.232-0.348-0.232-0.56
			c0-0.204,0.077-0.396,0.217-0.544L50.83,34.205l0.004,0.004c0.029-0.031,0.058-0.062,0.086-0.094l0.01-0.01l0,0
			c0.258-0.284,0.498-0.587,0.715-0.903c0.243-0.353,0.462-0.727,0.649-1.11l0.012-0.026c0.342-0.754,0.547-1.568,0.611-2.419
			C52.975,28.867,52.913,28.055,52.734,27.234z"/>
	</g>
</g>
</svg>
