<?xml version="1.0" encoding="utf-8"?>
<!-- Generator: Adobe Illustrator 17.0.0, SVG Export Plug-In . SVG Version: 6.00 Build 0)  -->
<!DOCTYPE svg PUBLIC "-//W3C//DTD SVG 1.1//EN" "http://www.w3.org/Graphics/SVG/1.1/DTD/svg11.dtd">
<svg version="1.1" id="Layer_1" xmlns="http://www.w3.org/2000/svg" xmlns:xlink="http://www.w3.org/1999/xlink" x="0px" y="0px"
	 width="72px" height="72px" viewBox="0 0 72 72" enable-background="new 0 0 72 72" xml:space="preserve">
<g>
	<rect x="8.04" y="10.013" fill="#CB2026" width="56.57" height="48.137"/>
	<g>
		<path fill="#FFFFFF" d="M24.16,50.857l-0.518-1.408c0,0-0.842,0.939-2.103,0.939c-1.116,0-1.909-0.97-1.909-2.524
			c0-1.988,1.003-2.7,1.99-2.7c1.423,0,1.876,0.921,2.264,2.102l0.518,1.617c0.518,1.569,1.488,2.831,4.287,2.831
			c2.006,0,3.364-0.615,3.364-2.232c0-1.31-0.744-1.989-2.135-2.313l-1.035-0.227c-0.712-0.161-0.922-0.453-0.922-0.937
			c0-0.55,0.437-0.873,1.149-0.873c0.776,0,1.197,0.29,1.262,0.986l1.618-0.194c-0.13-1.456-1.133-2.054-2.782-2.054
			c-1.456,0-2.879,0.549-2.879,2.313c0,1.1,0.533,1.796,1.876,2.119l1.1,0.259c0.825,0.194,1.1,0.533,1.1,1.003
			c0,0.598-0.583,0.84-1.683,0.84c-1.633,0-2.313-0.857-2.701-2.038l-0.534-1.616c-0.679-2.102-1.763-2.879-3.913-2.879
			c-2.378,0-3.639,1.504-3.639,4.059c0,2.459,1.261,3.785,3.526,3.785C23.287,51.713,24.16,50.857,24.16,50.857L24.16,50.857z"/>
		<path fill="#FFFFFF" d="M17.238,50.096c-0.162,0.049-0.324,0.081-0.534,0.081c-0.388,0-0.663-0.178-0.663-0.646v-8.818h-1.699
			v9.221c0,1.213,0.841,1.715,1.828,1.715c0.323,0,0.631-0.049,1.019-0.146L17.238,50.096L17.238,50.096z"/>
		<path fill="#FFFFFF" d="M37.698,49.837c-0.419,0.292-0.776,0.437-1.262,0.437c-0.615,0-0.954-0.323-0.954-1.116v-3.785h2.232
			v-1.326h-2.217v-1.796l-1.714,0.21v1.586H32.7v1.326h1.084v4.141c0,1.487,0.857,2.199,2.249,2.199c0.76,0,1.44-0.146,1.973-0.453
			L37.698,49.837L37.698,49.837z"/>
		<path fill="#FFFFFF" d="M39.174,50.419c0,0.664,0.517,1.197,1.18,1.197c0.696,0,1.213-0.533,1.213-1.197
			c0-0.68-0.517-1.197-1.213-1.197C39.691,49.222,39.174,49.739,39.174,50.419L39.174,50.419z"/>
		<path fill="#FFFFFF" d="M43.325,45.373v6.146h1.699v-6.146h1.909v-1.326h-1.909v-0.679c0-1.019,0.438-1.343,1.149-1.343
			c0.502,0,0.841,0.113,1.23,0.324l0.275-1.425c-0.452-0.211-0.986-0.323-1.633-0.323c-1.424,0-2.719,0.679-2.719,2.702v0.744
			h-1.084v1.326H43.325L43.325,45.373z"/>
		<path fill="#FFFFFF" d="M53.7,45.518c-0.194-1.213-0.987-1.649-2.021-1.649c-1.037,0-1.926,0.468-2.313,1.617l-0.211-1.439H47.78
			v7.472h1.698v-4.221c0-1.44,0.745-1.99,1.538-1.99c0.824,0,1.164,0.549,1.164,1.439v4.772h1.683v-4.237
			c0-1.424,0.76-1.973,1.553-1.973c0.808,0,1.148,0.549,1.148,1.439v4.772h1.698v-5.37c0-1.601-0.937-2.28-2.183-2.28
			C55.027,43.869,54.088,44.337,53.7,45.518L53.7,45.518z"/>
	</g>
</g>
</svg>
