<?xml version="1.0" encoding="UTF-8" standalone="no"?>
<svg width="28px" height="40px" viewBox="0 0 28 40" version="1.1" xmlns="http://www.w3.org/2000/svg" xmlns:xlink="http://www.w3.org/1999/xlink" xmlns:sketch="http://www.bohemiancoding.com/sketch/ns">
    <!-- Generator: Sketch 3.3 (11970) - http://www.bohemiancoding.com/sketch -->
    <title>Imported Layers</title>
    <desc>Created with Sketch.</desc>
    <defs></defs>
    <g id="Home---DONE" stroke="none" stroke-width="1" fill="none" fill-rule="evenodd" sketch:type="MSPage">
        <g id="HOME---GOAL" sketch:type="MSArtboardGroup" transform="translate(-21.000000, -108.000000)" fill="#FFFFFF">
            <g id="Main-Nav-Green-2-Copy" sketch:type="MSLayerGroup" transform="translate(0.000000, 98.000000)">
                <g id="Imported-Layers" transform="translate(20.925926, 10.000000)" sketch:type="MSShapeGroup">
                    <path d="M27.9348148,15.917037 L20.4197531,17.5140741 L20.4197531,27.9116049 L5.52493827,31.0780247 L5.52493827,39.5802469 L27.8928395,34.825679 L27.8928395,34.8162963 L27.9348148,34.8074074 L27.9348148,15.917037" id="Fill-1"></path>
                    <path d="M5.52493827,24.8212346 L13.0646914,23.2182716 L13.0646914,12.8108642 L27.9348148,9.65037037 L27.9348148,1.15703704 L5.56691358,5.91160494 L5.56691358,5.92197531 L5.52493827,5.9308642 L5.52493827,24.8212346" id="Fill-2"></path>
                    <path d="M22.8409877,0.0740740741 L16.1466667,1.49728395 L16.1461728,1.49679012 L8.63111111,3.09432099 L8.63308642,3.09481481 L7.94814815,3.24049383 L7.93975309,3.23901235 L0.424691358,4.83654321 L0.424691358,23.7348148 L5.52493827,24.8182716 L5.52493827,5.92 L5.52246914,5.91950617 L9.29530864,5.11753086 L9.29925926,5.11851852 L27.9348148,1.15703704 L27.9348148,1.15851852 L27.9382716,1.15753086 L22.8409877,0.0740740741" id="Fill-3" opacity="0.6"></path>
                    <path d="M22.8311111,14.84 L15.3175309,16.437037 L15.3160494,16.4365432 L15.3160494,26.8237037 L0.426666667,29.988642 L0.424691358,29.988642 L0.424691358,38.4893827 L5.52493827,39.574321 L5.52493827,31.0725926 L5.52395062,31.0725926 L17.6340741,28.4982716 L17.6340741,28.4977778 L20.4197531,27.9051852 L20.4197531,17.5209877 L20.4153086,17.52 L20.4197531,17.5190123 L20.4197531,17.5140741 L27.917037,15.9204938 L22.8311111,14.84" id="Fill-5" opacity="0.6"></path>
                </g>
            </g>
        </g>
    </g>
</svg>