<?xml version="1.0" encoding="utf-8"?>
<!-- Generator: Adobe Illustrator 17.0.0, SVG Export Plug-In . SVG Version: 6.00 Build 0)  -->
<!DOCTYPE svg PUBLIC "-//W3C//DTD SVG 1.1//EN" "http://www.w3.org/Graphics/SVG/1.1/DTD/svg11.dtd">
<svg version="1.1" id="Layer_1" xmlns="http://www.w3.org/2000/svg" xmlns:xlink="http://www.w3.org/1999/xlink" x="0px" y="0px"
	 width="72px" height="72px" viewBox="0 0 72 72" enable-background="new 0 0 72 72" xml:space="preserve">
<path fill="#7980BC" d="M55.035,9.871H26.529c-3.626,0-7.216,2.906-7.976,6.465l-0.896,4.17H60.19L55.035,9.871z M36.311,40.383
	h9.261l-1.615,7.596c-0.157,0.71-0.873,1.287-1.598,1.287H24.633c-0.723,0-1.202-0.577-1.038-1.287l4.786-22.444H16.594
	l-6.266,29.291c-0.76,3.547,1.583,6.45,5.227,6.45h29.716c3.629,0,7.236-2.903,7.987-6.45l5.469-24.94l-27.163,0.017L36.311,40.383z
	"/>
</svg>
