<?xml version="1.0" standalone="no"?>
<!DOCTYPE svg PUBLIC "-//W3C//DTD SVG 20010904//EN"
 "http://www.w3.org/TR/2001/REC-SVG-20010904/DTD/svg10.dtd">
<svg version="1.0" xmlns="http://www.w3.org/2000/svg"
 width="209.000000pt" height="193.000000pt" viewBox="0 0 209.000000 193.000000"
 preserveAspectRatio="xMidYMid meet">
<rect width="100%" height="100%" fill="#D8BC4F"/>
<g transform="translate(0.19000,193.000000) scale(0.100000,-0.100000)"
fill="none" stroke="none">
<path fill="#FFF" d="M0 1529 l0 -400 23 25 c22 24 421 274 630 395 300 172 721 324 1037
374 14 2 -361 5 -832 6 l-858 1 0 -401z"/>
<path fill="#FFF" d="M1925 1916 c91 -29 139 -72 155 -140 6 -21 8 -3 9 62 l1 92 -102 -1
c-98 0 -101 -1 -63 -13z"/>
<path  fill="#FFF" d="M1536 1734 c-130 -28 -301 -85 -446 -149 -170 -75 -438 -217 -395
-210 37 7 95 -26 95 -53 0 -28 -37 -93 -137 -244 -49 -73 -110 -171 -134 -218
l-46 -86 66 4 c147 7 341 82 636 245 372 207 633 443 687 620 14 47 5 65 -43
89 -43 22 -183 23 -283 2z"/>
<path fill="#FFF" d="M2077 1655 c-3 -20 -27 -75 -53 -123 -90 -167 -352 -394 -688 -596
-102 -61 -277 -145 -429 -206 -65 -26 -119 -50 -119 -55 -2 -14 128 -200 180
-257 32 -34 76 -68 108 -84 48 -24 63 -26 132 -22 63 4 96 13 185 51 60 26
119 47 132 47 29 0 56 -26 48 -46 -13 -35 -153 -112 -298 -164 -76 -28 -104
-33 -180 -33 -146 -1 -207 38 -348 226 -93 123 -172 203 -209 212 -12 2 -49 9
-80 13 l-57 9 -40 -91 c-53 -122 -92 -249 -94 -309 -2 -59 16 -77 79 -77 57 0
74 -8 74 -34 0 -32 -48 -73 -111 -96 l-54 -19 918 -1 917 0 0 845 c0 465 -2
845 -4 845 -2 0 -6 -16 -9 -35z"/>
<path fill="#FFF" d="M365 1192 c-242 -144 -255 -149 -338 -128 l-27 6 0 -535 0 -535 88 1
c48 1 78 3 67 6 -69 15 -95 54 -95 142 0 122 58 286 207 587 81 162 294 545
321 577 8 9 13 17 11 17 -2 -1 -107 -63 -234 -138z"/>
</g>
</svg>
