<?xml version="1.0" standalone="no"?>
<!DOCTYPE svg PUBLIC "-//W3C//DTD SVG 20010904//EN"
 "http://www.w3.org/TR/2001/REC-SVG-20010904/DTD/svg10.dtd">
<svg version="1.0" xmlns="http://www.w3.org/2000/svg"
 width="65.000000pt" height="64.000000pt" viewBox="0 0 65.000000 64.000000"
 preserveAspectRatio="xMidYMid meet">

<g transform="translate(0.000000,64.000000) scale(0.100000,-0.100000)"
fill="#000000" stroke="none">
<path d="M1 518 c0 -118 1 -121 14 -85 30 82 110 162 192 192 36 13 33 14 -84
14 l-123 1 1 -122z"/>
<path d="M453 620 c73 -28 131 -81 166 -152 l31 -61 0 116 0 117 -122 0 -123
-1 48 -19z"/>
<path d="M220 560 c-217 -101 -209 -400 13 -485 56 -21 155 -17 209 9 198 95
199 375 2 471 -59 29 -167 31 -224 5z m145 -90 c15 -36 32 -70 38 -76 7 -6 45
-24 85 -39 39 -16 72 -31 72 -35 0 -4 -35 -20 -77 -37 -83 -32 -84 -33 -130
-138 l-26 -60 -41 84 -41 84 -77 31 c-43 17 -78 33 -78 36 0 3 35 19 78 36
l77 30 39 82 c22 45 43 79 47 75 4 -5 19 -37 34 -73z"/>
<path d="M1 123 l-1 -123 123 1 c117 0 120 1 84 14 -82 30 -162 110 -192 192
-13 36 -14 33 -14 -84z"/>
<path d="M626 182 c-26 -62 -102 -135 -168 -161 l-53 -20 123 0 122 -1 0 115
c0 63 -1 115 -2 115 -2 0 -12 -21 -22 -48z"/>
</g>
</svg>
